<?xml version="1.0" encoding="UTF-8"?>
<svg version="1.1" xmlns="http://www.w3.org/2000/svg" width="200" height="200">
<path d="M0 0 C0.98476318 0.5561499 1.96952637 1.1122998 2.98413086 1.68530273 C4.0335083 2.29059814 5.08288574 2.89589355 6.1640625 3.51953125 C7.2682251 4.14738525 8.3723877 4.77523926 9.51000977 5.42211914 C18.91648804 10.78625456 28.27147205 16.24018994 37.609375 21.72265625 C42.04678468 24.32374742 46.50186104 26.89147967 50.96875 29.44140625 C52.17067879 30.12894481 53.3725833 30.81652583 54.57446289 31.50415039 C56.8807994 32.8234324 59.19024228 34.13668691 61.50170898 35.44702148 C62.54141846 36.04200439 63.58112793 36.6369873 64.65234375 37.25 C65.57313721 37.77360107 66.49393066 38.29720215 67.44262695 38.83666992 C70.25967641 40.63194907 72.21418612 42.25413804 73.7890625 45.20703125 C73.7890625 47.33203125 73.7890625 47.33203125 71.66943359 49.73535156 C68.79761723 52.32431909 66.07291502 54.12302115 62.703125 56.00390625 C62.1284549 56.32794937 61.55378479 56.65199249 60.96170044 56.9858551 C59.7425194 57.67229055 58.52130906 58.35513273 57.29821777 59.03457642 C55.39877839 60.09052812 53.50573564 61.15715501 51.61425781 62.22729492 C49.13334848 63.63063575 46.65108009 65.03149228 44.16699219 66.42919922 C39.94243174 68.80894945 35.7256411 71.19855956 31.5390625 73.64453125 C30.39953125 74.30066406 29.26 74.95679687 28.0859375 75.6328125 C26.94898438 76.47392578 26.94898438 76.47392578 25.7890625 77.33203125 C25.7890625 80.33174349 26.30023679 81.9815921 27.2890625 84.76953125 C29.97051145 93.54169996 29.49459102 101.67616611 26.4453125 110.2734375 C25.63719952 112.44830017 25.63719952 112.44830017 25.7890625 115.33203125 C26.54823975 115.76435059 27.30741699 116.19666992 28.08959961 116.64208984 C34.85200247 120.49477151 41.61041591 124.35429958 48.36274719 128.22460938 C52.01382012 130.31709689 55.66956687 132.40108486 59.328125 134.48046875 C60.83632981 135.34697377 62.34417941 136.21409755 63.8515625 137.08203125 C64.52759521 137.46278809 65.20362793 137.84354492 65.90014648 138.23583984 C72.20983328 141.89835443 72.20983328 141.89835443 73.7890625 145.33203125 C73.14833018 148.58575007 72.24536814 149.96463811 69.6640625 152.04296875 C68.7153125 152.59210938 67.7665625 153.14125 66.7890625 153.70703125 C65.95894653 154.19514282 65.95894653 154.19514282 65.11206055 154.69311523 C63.01274271 155.92097684 60.90063055 157.12535855 58.7890625 158.33203125 C56.87832779 159.43910638 54.96821993 160.54726382 53.05859375 161.65625 C47.48640813 164.88589773 41.90404191 168.09760796 36.31884766 171.3046875 C31.60297052 174.01264982 26.89003566 176.72571167 22.1784668 179.44116211 C19.98386458 180.70594726 17.78874782 181.96984018 15.59301758 183.23266602 C9.96663679 186.47427816 4.3793467 189.76466747 -1.15234375 193.16577148 C-5.35532192 195.5468942 -9.48804129 196.15692907 -14.2109375 195.33203125 C-16.64575195 194.20532227 -16.64575195 194.20532227 -19.26171875 192.7109375 C-20.71408936 191.8912146 -20.71408936 191.8912146 -22.19580078 191.05493164 C-23.1907959 190.48637451 -24.18579102 189.91781738 -25.2109375 189.33203125 C-27.10967304 188.27813696 -29.00941501 187.22605387 -30.91015625 186.17578125 C-44.47619857 178.61290156 -57.952475 170.91199588 -71.32861328 163.01806641 C-74.21220962 161.33128711 -77.11323923 159.67855896 -80.01953125 158.03125 C-81.83351858 156.9859985 -83.64732922 155.94044029 -85.4609375 154.89453125 C-86.28891846 154.43481934 -87.11689941 153.97510742 -87.9699707 153.50146484 C-88.735271 153.05496582 -89.50057129 152.6084668 -90.2890625 152.1484375 C-90.95325195 151.77146729 -91.61744141 151.39449707 -92.30175781 151.00610352 C-95.58871553 148.12392077 -97.81502809 144.54970771 -98.58386612 140.24308109 C-98.7284863 137.88812205 -98.75169609 135.56242976 -98.72851562 133.203125 C-98.7355249 132.31601837 -98.74253418 131.42891174 -98.74975586 130.5149231 C-98.76727764 127.59946858 -98.75573379 124.68499464 -98.7421875 121.76953125 C-98.74488408 119.73364069 -98.74876789 117.6977514 -98.75378418 115.66186523 C-98.75967136 111.40173034 -98.75114131 107.14193165 -98.73242188 102.88183594 C-98.70963298 97.43101741 -98.72276023 91.98098679 -98.74671173 86.53019714 C-98.76119071 82.32818708 -98.75655405 78.12636269 -98.74620056 73.92434692 C-98.74353909 71.9149669 -98.74678257 69.90556982 -98.75611877 67.89620972 C-98.76631889 65.08400039 -98.75073494 62.27305323 -98.72851562 59.4609375 C-98.73661255 58.6368338 -98.74470947 57.8127301 -98.75305176 56.96365356 C-98.67051055 51.30243212 -97.44710348 48.00181857 -94.2109375 43.33203125 C-91.890625 41.42578125 -91.890625 41.42578125 -89.0859375 39.83203125 C-88.54155029 39.51564697 -87.99716309 39.1992627 -87.4362793 38.87329102 C-86.14180101 38.12412647 -84.84243717 37.38337019 -83.53955078 36.64892578 C-80.84395489 35.12449254 -78.16609067 33.57108832 -75.48828125 32.015625 C-70.49052034 29.11652268 -65.48428336 26.2325486 -60.47363281 23.35578918 C-55.25022834 20.35629288 -50.03340915 17.34549119 -44.81762695 14.33276367 C-41.54624099 12.44378752 -38.27328261 10.55756219 -35 8.671875 C-31.53113722 6.67303143 -28.06659365 4.66734763 -24.609375 2.6484375 C-23.95549805 2.26872803 -23.30162109 1.88901855 -22.62792969 1.49780273 C-21.00015434 0.55240678 -19.37493115 -0.39738006 -17.75 -1.34765625 C-11.31267255 -4.69506653 -6.22416413 -3.54894705 0 0 Z " fill="#4A148C" transform="translate(112.2109375,3.66796875)"/>
<path d="M0 0 C1.07161199 1.33580442 2.08230122 2.7207436 3.0625 4.125 C8.57907289 11.38905871 15.95723675 16.31501306 25 18 C32.9023653 18.7076745 39.71835622 18.18664983 47 15 C47.99 14.608125 48.98 14.21625 50 13.8125 C55.59417986 10.432683 61.40936808 6.15964079 64 0 C68.56050714 0.53581224 71.72955082 1.70219143 75.67578125 4.02734375 C76.74368896 4.65020264 77.81159668 5.27306152 78.91186523 5.91479492 C80.03407471 6.5822876 81.15628418 7.24978027 82.3125 7.9375 C83.47621331 8.62223294 84.64036038 9.30622921 85.80493164 9.98950195 C88.12353201 11.35127923 90.4391243 12.71798441 92.75292969 14.08789062 C95.61712784 15.77453724 98.49379025 17.43450409 101.3828125 19.078125 C102.55396606 19.74920288 102.55396606 19.74920288 103.7487793 20.43383789 C105.16637919 21.24581508 106.58694887 22.05263816 108.01098633 22.85327148 C114.43520647 26.57578655 114.43520647 26.57578655 116 30 C115.35926768 33.25371882 114.45630564 34.63260686 111.875 36.7109375 C110.92625 37.26007813 109.9775 37.80921875 109 38.375 C108.16988403 38.86311157 108.16988403 38.86311157 107.32299805 39.36108398 C105.22368021 40.58894559 103.11156805 41.7933273 101 43 C99.08926529 44.10707513 97.17915743 45.21523257 95.26953125 46.32421875 C89.69734563 49.55386648 84.11497941 52.76557671 78.52978516 55.97265625 C73.81390802 58.68061857 69.10097316 61.39368042 64.3894043 64.10913086 C62.19480208 65.37391601 59.99968532 66.63780893 57.80395508 67.90063477 C52.17757429 71.14224691 46.5902842 74.43263622 41.05859375 77.83374023 C36.85561558 80.21486295 32.72289621 80.82489782 28 80 C25.56518555 78.87329102 25.56518555 78.87329102 22.94921875 77.37890625 C21.49684814 76.55918335 21.49684814 76.55918335 20.01513672 75.72290039 C19.0201416 75.15434326 18.02514648 74.58578613 17 74 C15.10126446 72.94610571 13.20152249 71.89402262 11.30078125 70.84375 C-2.26084441 63.28333254 -15.73526315 55.58755821 -29.10888672 47.69921875 C-32.02526037 45.98515351 -34.95139248 44.28870365 -37.87890625 42.59375 C-39.71128436 41.52142583 -41.5433315 40.44853583 -43.375 39.375 C-44.21973877 38.89015137 -45.06447754 38.40530273 -45.93481445 37.90576172 C-46.70656006 37.44959473 -47.47830566 36.99342773 -48.2734375 36.5234375 C-48.94810059 36.13075684 -49.62276367 35.73807617 -50.31787109 35.33349609 C-52.29046453 33.76973625 -53.04120101 32.30270439 -54 30 C-53.27748047 29.58862793 -52.55496094 29.17725586 -51.81054688 28.75341797 C-49.00688053 27.15631998 -46.20373323 25.55831627 -43.40106201 23.95947266 C-42.13622983 23.23794126 -40.87129694 22.51658637 -39.60626221 21.79541016 C-32.67137291 17.84060041 -25.74794672 13.86871495 -18.8671875 9.8203125 C-17.77083984 9.17594238 -16.67449219 8.53157227 -15.54492188 7.86767578 C-13.4580266 6.63810486 -11.37332602 5.40480012 -9.29101562 4.16748047 C-8.35708984 3.61721191 -7.42316406 3.06694336 -6.4609375 2.5 C-5.64415527 2.0153125 -4.82737305 1.530625 -3.98583984 1.03125 C-2 0 -2 0 0 0 Z " fill="#731F9F" transform="translate(70,119)"/>
<path d="M0 0 C8.57873527 5.78847996 16.46980655 14.13919559 18.59375 24.5546875 C19.78388037 34.10878962 19.33948274 43.61577589 13.875 51.8125 C13.215 51.8125 12.555 51.8125 11.875 51.8125 C11.6378125 52.54339844 11.400625 53.27429688 11.15625 54.02734375 C8.06426304 60.74864468 1.22415605 65.58891751 -5.5 68.3125 C-7.02887494 68.85034526 -8.57039715 69.35430126 -10.125 69.8125 C-10.75535156 70.00199219 -11.38570312 70.19148438 -12.03515625 70.38671875 C-22.16538015 72.45063353 -31.83306822 70.70462447 -40.5625 65.3046875 C-49.65754446 58.69848967 -56.26982121 50.02423266 -58.125 38.8125 C-59.00702836 26.97018486 -57.34412722 18.01179493 -49.8125 8.69140625 C-36.83963887 -5.75291367 -17.2457069 -9.93137985 0 0 Z " fill="#F9F7F9" transform="translate(122.125,67.1875)"/>
<path d="M0 0 C6.27590518 3.32714308 12.42664795 6.81922738 18.5 10.5 C23.65387154 13.62101298 28.8503082 16.60648125 34.16015625 19.45703125 C37.63262205 21.34372175 41.06831149 23.29035892 44.5 25.25 C45.10013916 25.59168213 45.70027832 25.93336426 46.31860352 26.28540039 C48.93994291 27.78571082 51.48544812 29.32363208 54 31 C53.72285156 31.54269531 53.44570312 32.08539063 53.16015625 32.64453125 C52.79792969 33.35996094 52.43570313 34.07539062 52.0625 34.8125 C51.70285156 35.52019531 51.34320313 36.22789063 50.97265625 36.95703125 C47.53626434 44.17483433 47.88034357 53.64063971 50.4375 61.125 C50.95777537 62.41689151 51.47856701 63.70857529 52 65 C52.34393969 66.33063683 52.67866338 67.6637247 53 69 C44.05125827 74.58818874 34.99266547 79.92811395 25.8125 85.125 C24.01060378 86.14666616 22.20911955 87.16904184 20.40841675 88.19281006 C18.68289595 89.17350797 16.95596531 90.15172397 15.22900391 91.12988281 C11.41720152 93.33753488 7.6928381 95.66905121 3.99487305 98.06201172 C2 99 2 99 -1 98 C-2.65079492 94.69841015 -2.14720605 91.02051328 -2.14526367 87.39111328 C-2.14862228 86.49991791 -2.1519809 85.60872253 -2.15544128 84.69052124 C-2.16496833 81.73377095 -2.16689532 78.7770772 -2.16796875 75.8203125 C-2.17118028 73.7700905 -2.17454427 71.71986873 -2.17805481 69.66964722 C-2.18405059 65.36716175 -2.18589427 61.06469638 -2.18530273 56.76220703 C-2.18520113 51.24502914 -2.19885009 45.72797998 -2.21607494 40.2108326 C-2.22718601 35.97467454 -2.22922221 31.73854769 -2.22869301 27.50237656 C-2.2298746 25.46818473 -2.23430637 23.43399213 -2.24202538 21.39981461 C-2.25180651 18.55567631 -2.24895453 15.71181845 -2.24291992 12.86767578 C-2.24853943 12.02493103 -2.25415894 11.18218628 -2.25994873 10.31390381 C-2.22186524 3.26182941 -2.22186524 3.26182941 0 0 Z " fill="#B967C7" transform="translate(16,50)"/>
<path d="M0 0 C1.07161199 1.33580442 2.08230122 2.7207436 3.0625 4.125 C8.87141974 11.77401232 15.87268104 15.49685567 25 18 C27.31 18.66 29.62 19.32 32 20 C32 39.8 32 59.6 32 80 C24.12801266 78.87543038 24.12801266 78.87543038 19.98046875 76.3671875 C19.05443848 75.81619385 18.1284082 75.2652002 17.17431641 74.69750977 C16.18866699 74.09608154 15.20301758 73.49465332 14.1875 72.875 C12.03305793 71.58899593 9.87809206 70.30386906 7.72265625 69.01953125 C6.61293457 68.3538916 5.50321289 67.68825195 4.35986328 67.00244141 C-1.01810422 63.79723217 -6.44706453 60.68205994 -11.875 57.5625 C-12.93702637 56.94826172 -13.99905273 56.33402344 -15.09326172 55.70117188 C-20.20379966 52.7466061 -25.32299058 49.81028539 -30.47399902 46.92692566 C-32.88543771 45.575674 -35.29169335 44.21534048 -37.6975708 42.85421753 C-39.39803596 41.89721003 -41.10593084 40.95344229 -42.81396484 40.01000977 C-43.84344238 39.42662842 -44.87291992 38.84324707 -45.93359375 38.2421875 C-46.84165771 37.7354248 -47.74972168 37.22866211 -48.68530273 36.70654297 C-51.31390891 34.76856626 -52.51582169 32.88139425 -54 30 C-53.27748047 29.58862793 -52.55496094 29.17725586 -51.81054688 28.75341797 C-49.00688053 27.15631998 -46.20373323 25.55831627 -43.40106201 23.95947266 C-42.13622983 23.23794126 -40.87129694 22.51658637 -39.60626221 21.79541016 C-32.67137291 17.84060041 -25.74794672 13.86871495 -18.8671875 9.8203125 C-17.77083984 9.17594238 -16.67449219 8.53157227 -15.54492188 7.86767578 C-13.4580266 6.63810486 -11.37332602 5.40480012 -9.29101562 4.16748047 C-8.35708984 3.61721191 -7.42316406 3.06694336 -6.4609375 2.5 C-5.64415527 2.0153125 -4.82737305 1.530625 -3.98583984 1.03125 C-2 0 -2 0 0 0 Z " fill="#4A148C" transform="translate(70,119)"/>
<path d="M0 0 C0 20.13 0 40.26 0 61 C0.66 61.33 1.32 61.66 2 62 C0.96101563 62.14695313 -0.07796875 62.29390625 -1.1484375 62.4453125 C-13.81499243 64.40735091 -22.18093491 67.75764636 -30.11328125 78.33984375 C-30.73589844 78.88769531 -31.35851562 79.43554688 -32 80 C-35.70803544 79.62056231 -38.33455526 78.43403221 -41.4765625 76.48828125 C-42.30655762 75.98071289 -43.13655273 75.47314453 -43.99169922 74.95019531 C-45.29518311 74.13953613 -45.29518311 74.13953613 -46.625 73.3125 C-48.43131968 72.20804418 -50.23860292 71.1051626 -52.046875 70.00390625 C-52.90861328 69.47812988 -53.77035156 68.95235352 -54.65820312 68.41064453 C-58.15723244 66.30290982 -61.73269377 64.35922999 -65.3359375 62.4375 C-68.75389568 60.59320585 -72.12773129 58.67627162 -75.5 56.75 C-76.10054199 56.40807617 -76.70108398 56.06615234 -77.31982422 55.71386719 C-79.94077703 54.21382972 -82.48584085 52.6761061 -85 51 C-84.80859375 49.20703125 -84.80859375 49.20703125 -84 47 C-81.97265625 45.38671875 -81.97265625 45.38671875 -79.0625 43.6875 C-78.50457764 43.35758057 -77.94665527 43.02766113 -77.37182617 42.68774414 C-75.25609427 41.44392038 -73.12820378 40.22236191 -71 39 C-69.08828418 37.89106876 -67.17684701 36.78165708 -65.265625 35.671875 C-60.27100868 32.77800025 -55.26864336 29.89785406 -50.26264954 27.02371216 C-45.03923802 24.02426996 -39.82245356 21.0134495 -34.60668945 18.00073242 C-31.33530349 16.11175627 -28.06234511 14.22553094 -24.7890625 12.33984375 C-21.32019972 10.34100018 -17.85565615 8.33531638 -14.3984375 6.31640625 C-13.74456055 5.93669678 -13.09068359 5.5569873 -12.41699219 5.16577148 C-10.78921684 4.22037553 -9.16399365 3.27058869 -7.5390625 2.3203125 C-5.08870384 1.046126 -2.80310884 0 0 0 Z " fill="#7A1FA1" transform="translate(102,0)"/>
<path d="M0 0 C9.16566434 7.15324303 9.16566434 7.15324303 10.95703125 12.52734375 C9.89005005 13.14778564 9.89005005 13.14778564 8.80151367 13.78076172 C5.58195065 15.65364646 2.36323213 17.52797777 -0.85546875 19.40234375 C-1.97501953 20.05332031 -3.09457031 20.70429687 -4.24804688 21.375 C-5.32119141 22.00019531 -6.39433594 22.62539062 -7.5 23.26953125 C-8.4897583 23.84558105 -9.4795166 24.42163086 -10.49926758 25.01513672 C-12.37962765 26.13299355 -14.22282039 27.31391151 -16.04296875 28.52734375 C-25.73161449 30.43074919 -32.46856741 26.71409874 -40.29394531 21.64404297 C-43.11466571 19.84309726 -46.01721944 18.19612777 -48.91796875 16.52734375 C-50.62668148 15.52799218 -52.33516782 14.52825272 -54.04296875 13.52734375 C-53.26564259 7.30873448 -49.69297094 4.40758207 -45.04296875 0.52734375 C-31.38375068 -8.91079652 -13.92014365 -9.32734677 0 0 Z " fill="#E1BCE7" transform="translate(124.04296875,68.47265625)"/>
<path d="M0 0 C0 0.99 0 1.98 0 3 C-3 5.1875 -3 5.1875 -6 7 C-6.33 6.01 -6.66 5.02 -7 4 C-4.69 2.68 -2.38 1.36 0 0 Z " fill="#571B8A" transform="translate(23,145)"/>
</svg>
