<?xml version="1.0" encoding="UTF-8"?>
<svg version="1.1" xmlns="http://www.w3.org/2000/svg" width="1024" height="1024">
<path d="M0 0 C-5.31734175 6.45219414 -11.1793071 12.31765367 -17.09260368 18.21565151 C-18.23050809 19.35429625 -19.36819296 20.49316043 -20.50567889 21.63222322 C-23.63430748 24.76391615 -26.76604339 27.89248548 -29.89829149 31.02055768 C-33.30445425 34.42328284 -36.70770997 37.82891341 -40.11133397 41.23417765 C-46.07762421 47.20254122 -52.04576995 53.16904429 -58.015131 59.13433647 C-66.89135449 68.00452651 -75.76471093 76.87758046 -84.63747915 85.75122661 C-99.56275231 100.67781396 -114.49035284 115.60207173 -129.41927719 130.52500725 C-144.202645 145.30245981 -158.9849799 160.08094437 -173.76593399 174.86081123 C-174.68466947 175.77947797 -175.60340494 176.69814471 -176.54998089 177.64464983 C-181.2156916 182.31002221 -185.88138384 186.97541307 -190.54706897 191.64081103 C-200.03462503 201.12776408 -209.5223438 210.6145544 -219.01013374 220.10127354 C-219.48482343 220.57590991 -219.95951312 221.05054628 -220.44858735 221.53956557 C-243.5367115 244.62506852 -266.62667847 267.70872806 -289.71679688 290.79223633 C-297.72908162 298.80222941 -305.74135822 306.81223064 -313.75360107 314.82226562 C-314.4989863 315.56744543 -314.4989863 315.56744543 -315.25942982 316.32767938 C-338.36233766 339.42424254 -361.46393581 362.5221155 -384.56519644 385.6203262 C-386.06504136 387.11997306 -387.56488685 388.61961935 -389.06473245 390.11926553 C-399.00432897 400.05754226 -408.94390291 409.99584155 -418.88346174 419.93415596 C-438.66053252 439.70875027 -458.43773589 459.48321196 -478.21503037 479.25758254 C-479.62675229 480.66909575 -481.03847395 482.08060923 -482.4501956 483.49212271 C-544.63107715 545.66380223 -606.81528002 607.83215975 -669 670 C-670.10066155 669.06576861 -671.1999907 668.12996735 -672.29877764 667.19353187 C-672.91111324 666.67258122 -673.52344884 666.15163058 -674.15434006 665.61489355 C-677.08625429 663.04956216 -679.82769479 660.3066664 -682.57432556 657.54592896 C-683.19692294 656.924186 -683.81952032 656.30244304 -684.46098429 655.66185939 C-686.52836988 653.59610945 -688.59218165 651.52682707 -690.65600586 649.45751953 C-692.14448927 647.96875381 -693.63319339 646.48020872 -695.12210083 644.99186707 C-699.15065925 640.9635949 -703.17613256 636.93225258 -707.20105052 632.90034342 C-711.41264041 628.68249144 -715.62707277 624.46748157 -719.84120178 620.25216675 C-727.81511035 612.27515328 -735.78646691 604.29559468 -743.75690514 596.3151139 C-752.83351392 587.22731785 -761.91297105 578.14236982 -770.99266613 569.05765748 C-789.66494392 550.37493435 -808.33364976 531.68864536 -827 513 C-825.62997073 509.98953856 -824.04588523 507.70768003 -821.85149109 505.23948312 C-821.19835431 504.50088459 -820.54521752 503.76228606 -819.8722887 503.00130576 C-819.15125871 502.19520198 -818.43022871 501.38909821 -817.68734932 500.55856705 C-816.92033192 499.69456946 -816.15331451 498.83057188 -815.36305416 497.94039255 C-813.22273656 495.53257009 -811.07819653 493.12860383 -808.93104135 490.7268788 C-807.54921448 489.18074734 -806.16867046 487.63347974 -804.7884724 486.0858942 C-798.11179337 478.60077277 -791.41861386 471.1305366 -784.71872979 463.66618404 C-783.06097989 461.81905124 -781.4037532 459.97145017 -779.74661875 458.12376523 C-751.03679154 426.11846899 -722.05439182 394.38255659 -692.61422729 363.04705811 C-691.6035551 361.97117024 -691.6035551 361.97117024 -690.57246529 360.87354726 C-675.89994242 345.25701608 -661.18963755 329.67657877 -646.43843371 314.13435479 C-639.19860583 306.50596975 -631.96680275 298.87000274 -624.73925781 291.22998047 C-624.02026852 290.47023708 -623.30127922 289.7104937 -622.56050237 288.92772778 C-601.02712974 266.16665683 -579.97507391 243.0356872 -559.23304972 219.55243101 C-527.15046833 183.24458946 -494.39402201 147.67619967 -460.22890423 113.31167051 C-458.83108957 111.90555083 -457.43412297 110.4985876 -456.03800441 109.09078386 C-384.96924171 37.43670184 -320.67772069 -11.07330813 0 0 Z " fill="#45D0FD" transform="translate(923,0)"/>
<path d="M0 0 C2.68004521 0.17999709 5.36037647 0.35516365 8.04077184 0.52986073 C53.62148917 3.53472346 98.67775069 8.99792445 143.60869348 17.24190259 C142.07252304 20.88138653 139.89645765 23.20279322 137.11467302 25.98201871 C136.65312769 26.44587173 136.19158236 26.90972475 135.7160508 27.38763392 C134.16275303 28.94624042 132.60240353 30.49758973 131.04201257 32.04909253 C129.9179134 33.17406359 128.79425372 34.29947393 127.67099714 35.42528629 C124.57877458 38.52198969 121.48033552 41.61240761 118.38086903 44.70185828 C115.04120149 48.03290425 111.7072999 51.36971215 108.37270105 54.70583081 C102.59304756 60.48653397 96.80973792 66.26355843 91.02394235 72.03811383 C82.6586168 80.38719847 74.29880684 88.74178778 65.94034101 97.09773919 C52.37976115 110.65393973 38.8147192 124.20566616 25.24687707 137.7545979 C12.06550052 150.91762178 -1.11377781 164.08274061 -14.2902323 177.25069165 C-15.50813833 178.46780951 -15.50813833 178.46780951 -16.75064851 179.7095156 C-20.823809 183.78006605 -24.89692819 187.85065782 -28.97002685 191.92127013 C-62.77071963 225.70122304 -96.57865193 259.47392337 -130.39130652 293.24190259 C-125.13159497 299.61956387 -119.34508881 305.42263584 -113.49546301 311.25127149 C-112.38462285 312.36183133 -111.27400473 313.47261332 -110.16358852 314.58359706 C-107.12376107 317.62371904 -104.08083665 320.66072437 -101.03739154 323.69722414 C-97.75138123 326.97684519 -94.46828764 330.25938375 -91.1848551 333.54158521 C-85.49961098 339.22394631 -79.81259516 344.90452919 -74.12441885 350.58395505 C-65.89982126 358.79599266 -57.6784689 367.0112731 -49.45799856 375.22744198 C-36.1193263 388.55905168 -22.77878681 401.88879112 -9.43671668 415.21700025 C-8.63862493 416.01426418 -7.84053318 416.81152812 -7.01825683 417.63295157 C-1.35098867 423.29431724 4.31634584 428.95561649 9.98369348 434.61690259 C16.46795367 441.09423089 22.95218074 447.57159235 29.4363302 454.0490315 C30.63473791 455.24619702 30.63473791 455.24619702 31.85735588 456.4675477 C45.15729675 469.75382408 58.45529024 483.04204789 71.75188351 496.33167446 C79.95744305 504.53274374 88.16478228 512.73202438 96.37439258 520.92903872 C101.99098164 526.5372304 107.60582722 532.14716347 113.21927671 537.75849764 C116.46251343 541.00038362 119.70659159 544.24141657 122.95283258 547.48029447 C125.91909702 550.4398558 128.88309733 553.40166445 131.84524675 556.36534424 C132.92224394 557.44206795 134.00010475 558.51792859 135.07887308 559.59287779 C136.53486405 561.04394928 137.98753851 562.49834632 139.43999803 563.95295262 C140.25086598 564.76289878 141.06173393 565.57284494 141.89717364 566.40733492 C143.60869348 568.24190259 143.60869348 568.24190259 143.60869348 569.24190259 C97.82787494 577.71474374 51.93075321 583.19730064 5.47731316 586.25250793 C2.80528847 586.42880252 0.13362468 586.61001009 -2.53806365 586.79132199 C-93.81141028 592.88504943 -168.92244936 583.10909138 -239.721901 521.41731864 C-270.72121304 494.11589606 -299.48196713 464.66374633 -327.36849457 434.22280437 C-329.64800784 431.73458772 -331.93042309 429.24905768 -334.21316826 426.7638061 C-373.5370666 383.91144878 -411.23279821 339.79360824 -447.39130652 294.24190259 C-445.89697303 290.95152358 -444.00866777 288.31280518 -441.7643553 285.4861691 C-441.0042387 284.52724328 -440.24412209 283.56831747 -439.46097165 282.58033329 C-438.61210227 281.51879234 -437.76278373 280.45761043 -436.91306555 279.39674878 C-436.25336352 278.57058472 -436.25336352 278.57058472 -435.58033416 277.72773048 C-402.12070233 235.84409894 -367.0497628 195.42479331 -330.7793439 155.95540613 C-328.5226859 153.49884707 -326.26910624 151.03948992 -324.01568329 148.57996345 C-250.72037076 68.68848577 -182.91487027 3.24938465 0 0 Z " fill="#40CFFD" transform="translate(779.3913065195084,454.758097410202)"/>
<path d="M0 0 C6.39061739 5.2711962 12.20921055 11.06902341 18.05406189 16.92707825 C19.16946352 18.0413265 20.28508286 19.15535685 21.40089995 20.26918906 C24.45435634 23.31848238 27.50469999 26.37087276 30.55452359 29.42379892 C33.84847741 32.72001877 37.14531163 36.01335556 40.44177246 39.30706787 C46.89261529 45.75346781 53.34075635 52.2025637 59.7879275 58.65263555 C65.02476879 63.8917355 70.26258565 69.12985825 75.50110054 74.36728477 C76.24672428 75.11275529 76.99234803 75.8582258 77.76056643 76.62628632 C79.27522646 78.14062663 80.78988873 79.65496468 82.30455322 81.16930052 C96.49978926 95.36168642 110.69196076 109.55713362 124.88308407 123.75363173 C137.07144125 135.94646205 149.26242567 148.13666036 161.45532227 160.32495117 C175.61043199 174.47471643 189.76392729 188.62609328 203.91482741 202.78006858 C205.42175277 204.2873125 206.92868024 205.79455434 208.43560982 207.30179405 C209.17709057 208.04342908 209.91857131 208.7850641 210.68252118 209.54917291 C215.91950858 214.78702545 221.15765898 220.0237132 226.39625359 225.25995827 C232.77153733 231.63244548 239.14505278 238.00669484 245.51626622 244.38325164 C248.76965925 247.63928283 252.02386524 250.89449076 255.28022194 254.14755821 C258.25571891 257.12009489 261.22893296 260.09489455 264.20027275 263.07158657 C265.28060765 264.15304674 266.36180334 265.23364778 267.44390356 266.3133416 C268.90439562 267.77083237 270.36183256 269.23130823 271.81848049 270.69263935 C272.63184413 271.50616535 273.44520778 272.31969134 274.2832188 273.15786964 C276 275 276 275 276 276 C226.74012962 279.50595147 177.4622292 281.90615958 128.09525371 283.23723936 C125.32023127 283.3122909 122.54526949 283.38936514 119.77030373 283.46648026 C-47.32768764 288.03753116 -47.32768764 288.03753116 -98.05371207 240.19792396 C-105.34247384 233.09837986 -111.88568397 225.42754571 -118.25 217.5 C-119.09730092 216.45161288 -119.09730092 216.45161288 -119.96171904 215.38204622 C-134.21188509 197.68258393 -146.55961903 179.19701222 -157 159 C-155.34099594 154.69341953 -152.08610415 151.81427545 -148.87509155 148.63458252 C-148.24043209 147.9982142 -147.60577262 147.36184589 -146.95188105 146.70619369 C-144.82079191 144.57180631 -142.68262564 142.44465283 -140.54443359 140.31738281 C-139.01663491 138.79014817 -137.48927628 137.2624732 -135.96232605 135.73439026 C-131.81208519 131.5835746 -127.65569829 127.43896255 -123.4982028 123.29541492 C-119.15576799 118.96546636 -114.8189807 114.62986902 -110.4815979 110.29486084 C-102.26561814 102.08510203 -94.04455254 93.88045561 -85.82165968 85.6776216 C-76.46114404 76.33944579 -67.10629379 66.99560332 -57.75192142 57.6512742 C-38.50759014 38.42785887 -19.25613465 19.21159135 0 0 Z " fill="#08589C" transform="translate(647,748)"/>
<path d="M0 0 C4.73867016 3.95678128 9.22126344 8.07865165 13.57432556 12.45407104 C14.50822163 13.38668548 14.50822163 13.38668548 15.46098429 14.33814061 C17.52836988 16.40389055 19.59218165 18.47317293 21.65600586 20.54248047 C23.14448927 22.03124619 24.63319339 23.51979128 26.12210083 25.00813293 C30.15065925 29.0364051 34.17613256 33.06774742 38.20105052 37.09965658 C42.41264041 41.31750856 46.62707277 45.53251843 50.84120178 49.74783325 C58.81511035 57.72484672 66.78646691 65.70440532 74.75690514 73.6848861 C83.83351392 82.77268215 92.91297105 91.85763018 101.99266613 100.94234252 C120.66494392 119.62506565 139.33364976 138.31135464 158 157 C156.34099594 161.30658047 153.08610415 164.18572455 149.87509155 167.36541748 C149.24043209 168.0017858 148.60577262 168.63815411 147.95188105 169.29380631 C145.82079191 171.42819369 143.68262564 173.55534717 141.54443359 175.68261719 C140.01663491 177.20985183 138.48927628 178.7375268 136.96232605 180.26560974 C132.81208519 184.4164254 128.65569829 188.56103745 124.4982028 192.70458508 C120.15576799 197.03453364 115.8189807 201.37013098 111.4815979 205.70513916 C103.26561814 213.91489797 95.04455254 222.11954439 86.82165968 230.3223784 C77.46114404 239.66055421 68.10629379 249.00439668 58.75192142 258.3487258 C39.50759014 277.57214113 20.25613465 296.78840865 1 316 C-3.73867016 312.04321872 -8.22126344 307.92134835 -12.57432556 303.54592896 C-13.19692294 302.924186 -13.81952032 302.30244304 -14.46098429 301.66185939 C-16.52836988 299.59610945 -18.59218165 297.52682707 -20.65600586 295.45751953 C-22.14448927 293.96875381 -23.63319339 292.48020872 -25.12210083 290.99186707 C-29.15065925 286.9635949 -33.17613256 282.93225258 -37.20105052 278.90034342 C-41.41264041 274.68249144 -45.62707277 270.46748157 -49.84120178 266.25216675 C-57.81511035 258.27515328 -65.78646691 250.29559468 -73.75690514 242.3151139 C-82.83351392 233.22731785 -91.91297105 224.14236982 -100.99266613 215.05765748 C-119.66494392 196.37493435 -138.33364976 177.68864536 -157 159 C-155.34099594 154.69341953 -152.08610415 151.81427545 -148.87509155 148.63458252 C-148.24043209 147.9982142 -147.60577262 147.36184589 -146.95188105 146.70619369 C-144.82079191 144.57180631 -142.68262564 142.44465283 -140.54443359 140.31738281 C-139.01663491 138.79014817 -137.48927628 137.2624732 -135.96232605 135.73439026 C-131.81208519 131.5835746 -127.65569829 127.43896255 -123.4982028 123.29541492 C-119.15576799 118.96546636 -114.8189807 114.62986902 -110.4815979 110.29486084 C-102.26561814 102.08510203 -94.04455254 93.88045561 -85.82165968 85.6776216 C-76.46114404 76.33944579 -67.10629379 66.99560332 -57.75192142 57.6512742 C-38.50759014 38.42785887 -19.25613465 19.21159135 0 0 Z " fill="#1FBBFC" transform="translate(489,590)"/>
</svg>
