<?xml version="1.0" encoding="UTF-8"?>
<svg version="1.1" xmlns="http://www.w3.org/2000/svg" width="512" height="512">
<path d="M0 0 C88.44 0 176.88 0 268 0 C266.27245758 6.33432221 264.61895517 12.38931359 262.48828125 18.546875 C262.24744812 19.24708267 262.00661499 19.94729034 261.75848389 20.66871643 C261.22828657 22.20961925 260.69660487 23.75001194 260.16360474 25.28994751 C258.61638828 29.76205716 257.08222542 34.23864927 255.546875 38.71484375 C255.2008876 39.72286545 254.85490021 40.73088715 254.49842834 41.76945496 C249.56565957 56.15861544 244.71259661 70.57486331 239.84756088 84.98702621 C237.51536108 91.89536877 235.18181162 98.80325546 232.84765625 105.7109375 C232.59606562 106.45550138 232.34447498 107.20006527 232.08526039 107.9671917 C225.43061557 127.65857263 218.72655404 147.33307275 212 167 C212.92286804 167.19521744 212.92286804 167.19521744 213.86437988 167.39437866 C214.67290405 167.56893585 215.48142822 167.74349304 216.31445312 167.92333984 C217.11532349 168.0947348 217.91619385 168.26612976 218.74133301 168.44271851 C229.52360246 171.10303065 238.76602011 179.30054908 244.8125 188.3125 C253.37334833 202.61368515 254.87697639 217.08657315 250.87109375 233.1484375 C249.90851965 236.29946482 248.46990622 239.06018756 247 242 C247.43393081 245.68535605 248.64164474 248.52769167 250.3125 251.8125 C259.16835296 271.24903774 260.443259 294.85681837 253 315 C244.07560241 336.96774793 227.74406703 352.9161613 205.9375 362.1875 C189.04374699 368.68642556 171.35957652 371.21710799 153.5234375 373.68164062 C138.66047979 375.78216128 124.05441227 379.13739758 109.9375 384.3125 C109.05723145 384.63460449 108.17696289 384.95670898 107.27001953 385.28857422 C87.47104352 392.80890812 68.49558688 402.68541926 49.625 412.25 C12.6218927 430.93264337 -29.48599817 449.84024042 -71.4375 436.875 C-83.53646012 432.58628337 -94.43967725 426.63566287 -104 418 C-104.75667969 417.33613281 -105.51335937 416.67226563 -106.29296875 415.98828125 C-121.75902844 401.58701052 -130.10659398 380.66338157 -131.1640625 359.75634766 C-131.64749453 344.98548497 -131.58727493 330.39496443 -128 316 C-127.81195801 315.23526367 -127.62391602 314.47052734 -127.43017578 313.68261719 C-122.82460824 295.60475699 -115.20922613 278.33535344 -106.33642578 261.95800781 C-104.51910757 258.51257682 -103.34622235 255.90918596 -104 252 C-105.10271532 250.30272417 -105.10271532 250.30272417 -106.6875 248.875 C-115.69041466 239.10587983 -117.61364327 226.07974649 -117.3125 213.328125 C-116.60346455 199.91553778 -109.81695053 187.06324991 -100 178 C-87.50561209 168.46839986 -74.5237944 165.09840687 -59 166 C-44.29797458 168.25774756 -33.05242286 175.31591951 -23.6875 186.8125 C-15.15264572 199.02241901 -12.60727967 213.4677427 -15 228 C-17.96691615 240.80288815 -24.84225764 252.71709272 -36.00390625 259.9453125 C-43.87730415 264.62576805 -43.87730415 264.62576805 -48 266 C-53.07417647 274.50361988 -54.10802298 284.86035196 -51.859375 294.38671875 C-49.34334056 302.03775075 -45.63651236 309.21896168 -40 315 C-39.21625 315.804375 -38.4325 316.60875 -37.625 317.4375 C-34.71589717 319.16910883 -33.37000618 319.15197724 -30.10058594 318.58618164 C-25.72308496 317.36461262 -21.79838409 315.14222005 -17.8125 313 C-16.87849365 312.50234131 -15.9444873 312.00468262 -14.98217773 311.49194336 C-7.75246289 307.56336492 -1.314351 303.29844987 5 298 C6.1364889 297.07653997 7.2732203 296.15337833 8.41015625 295.23046875 C20.00674376 285.68257473 31.0426106 274.84884347 39 262 C39 261.34 39 260.68 39 260 C37.44616853 258.46762449 37.44616853 258.46762449 35.4375 256.875 C25.15978363 248.04996439 18.22209993 237.70785234 16.77905273 223.88330078 C15.90653251 207.60737147 19.34654952 194.59720609 29.80859375 181.78515625 C37.06740671 173.9226998 45.73600599 169.45403245 56 167 C55.60022949 165.82574463 55.20045898 164.65148926 54.78857422 163.44165039 C47.70119534 142.6210057 40.62029759 121.79818222 33.5703125 100.96484375 C33.34216858 100.29067036 33.11402466 99.61649696 32.87896729 98.92189407 C30.55293278 92.04804086 28.227751 85.17389968 25.90358734 78.29941368 C21.22642424 64.4658138 16.54015933 50.6355104 11.8203125 36.81640625 C11.0169267 34.46223972 10.21354127 32.10807305 9.41015625 29.75390625 C7.91874022 25.3842526 6.42336047 21.01598215 4.92578125 16.6484375 C4.26548699 14.71489087 3.60532245 12.78129994 2.9453125 10.84765625 C2.64335968 9.9708168 2.34140686 9.09397736 2.03030396 8.19056702 C0 2.22726323 0 2.22726323 0 0 Z M133 116 C132.73074707 116.56879883 132.46149414 117.13759766 132.18408203 117.72363281 C130.8349051 120.56760145 129.48050194 123.40904034 128.125 126.25 C127.60848877 127.33434326 127.09197754 128.41868652 126.55981445 129.53588867 C123.18178654 136.58252229 119.71080159 143.57386107 116.16015625 150.53515625 C115.32982863 152.16955229 114.4995877 153.80399238 113.66943359 155.43847656 C112.43159436 157.87472138 111.18962671 160.30838745 109.93438721 162.73571777 C108.75172658 165.02302913 107.58368976 167.31730199 106.41796875 169.61328125 C106.05711685 170.30084 105.69626495 170.98839874 105.32447815 171.6967926 C103.46543389 175.3456144 103.46543389 175.3456144 103.19555664 179.35205078 C104.23670342 181.48490079 105.57799552 182.87959114 107.25 184.5625 C112.13223375 189.90683818 114.73078388 196.19235164 117 203 C128.55 203 140.1 203 152 203 C154.41697632 198.00914406 154.41697632 198.00914406 156.81518555 193.00927734 C158.52379231 189.53741661 160.19450682 186.63733343 162.83203125 183.7890625 C165.30472452 181.26905631 165.30472452 181.26905631 164.76087952 178.60446167 C164.02592421 176.08873758 163.14693866 173.89030211 161.99389648 171.53955078 C161.57933701 170.68740997 161.16477753 169.83526917 160.73765564 168.95730591 C160.28669022 168.04584808 159.83572479 167.13439026 159.37109375 166.1953125 C158.9031691 165.23914032 158.43524445 164.28296814 157.95314026 163.29782104 C156.95971056 161.27076477 155.96345778 159.24508996 154.96459961 157.22070312 C153.4615134 154.17367944 151.96728604 151.12244672 150.47460938 148.0703125 C145.17889955 137.27104923 139.76499477 126.55680079 134 116 C133.67 116 133.34 116 133 116 Z " fill="#FEFDFD" transform="translate(188,25)"/>
<path d="M0 0 C10.56 0 21.12 0 32 0 C33.65 4.95 35.3 9.9 37 15 C44.67792546 28.64964526 54.31129971 37.66675614 69.54296875 42.30078125 C84.91747614 45.41042738 98.23367725 42.11260009 112 35 C118.86785456 48.20228352 120.15824776 63.97268751 116.3125 78.3125 C110.49110046 96.30224162 99.84770117 108.41494971 83.125 117.25 C72.25284071 122.34404559 61.05981203 124.74333283 49.25 126.5625 C47.91168309 126.77694252 46.57354942 126.99253152 45.2355957 127.20922852 C41.49167806 127.81431735 37.74602721 128.40810104 34 129 C28.31283829 129.90191942 22.64697923 130.86937655 17 132 C16.11699219 132.17547363 15.23398437 132.35094727 14.32421875 132.53173828 C-16.86563166 138.91480171 -44.4948408 152.8332495 -72.7756958 166.89477539 C-146.31079218 203.433302 -146.31079218 203.433302 -182.765625 194.1015625 C-193.03873925 190.60274823 -202.02957821 185.38854041 -210 178 C-210.76957031 177.29617188 -211.53914063 176.59234375 -212.33203125 175.8671875 C-225.64985481 162.4813001 -230.20495476 144.17136673 -230.375 125.8125 C-230.11845135 95.14621812 -219.0563211 67.41650561 -204 41 C-197.565 42.485 -197.565 42.485 -191 44 C-191.15855469 44.9796875 -191.31710938 45.959375 -191.48046875 46.96875 C-194.08465352 65.39694202 -190.88061786 82.17669404 -180.1875 97.6171875 C-175.54262479 103.77913889 -170.29330372 108.55939784 -164 113 C-163.23429687 113.55300781 -162.46859375 114.10601562 -161.6796875 114.67578125 C-160.93976563 115.15402344 -160.19984375 115.63226563 -159.4375 116.125 C-158.79683594 116.54007812 -158.15617187 116.95515625 -157.49609375 117.3828125 C-149.43508556 119.37598823 -140.66986982 113.79886468 -133.6875 110.375 C-132.57536133 109.83375488 -131.46322266 109.29250977 -130.31738281 108.73486328 C-122.75314312 104.99722588 -115.73358695 101.10823838 -109 96 C-107.44732422 94.86691406 -107.44732422 94.86691406 -105.86328125 93.7109375 C-92.26544322 83.65913098 -77.97343072 71.70577879 -68.98828125 57.27734375 C-61.20020256 44.95106249 -61.20020256 44.95106249 -57.07177734 43.16650391 C-53.65711935 42.48791262 -50.38836723 42.62198491 -46.9296875 42.83203125 C-37.0185407 43.25566874 -27.93553836 38.57594465 -20 33 C-19.36449219 32.56042969 -18.72898437 32.12085938 -18.07421875 31.66796875 C-7.91788165 23.85366947 -4.07088591 11.61691832 0 0 Z " fill="#C21325" transform="translate(307,249)"/>
<path d="M0 0 C69.63 0 139.26 0 211 0 C208.75018461 10.12416924 208.75018461 10.12416924 207.56152344 13.58007812 C207.29149002 14.37311844 207.0214566 15.16615875 206.74324036 15.98323059 C206.30572701 17.2445002 206.30572701 17.2445002 205.859375 18.53125 C205.54461716 19.45181686 205.22985931 20.37238373 204.90556335 21.32084656 C203.8579862 24.38204859 202.80389564 27.44096814 201.75 30.5 C200.61367751 33.81584016 199.47915385 37.13229248 198.3447113 40.44877625 C197.53401881 42.81851736 196.72277653 45.18807045 195.911026 47.55744934 C192.67278694 57.01403332 189.46181605 66.47966555 186.26171875 75.94921875 C186.01979168 76.66498707 185.77786461 77.38075539 185.52860641 78.11821365 C183.36375039 84.52343664 181.19996295 90.9290203 179.03723145 97.33496094 C176.43490995 105.04174393 173.82396393 112.74549013 171.20379639 120.44622803 C170.01744193 123.94850903 168.84590111 127.45548316 167.67626953 130.96337891 C166.96296247 133.07598056 166.24928065 135.18845574 165.53515625 137.30078125 C165.21880722 138.26275925 164.90245819 139.22473724 164.57652283 140.21586609 C164.27935867 141.0873378 163.98219452 141.95880951 163.67602539 142.85668945 C163.42301163 143.6136763 163.16999786 144.37066315 162.90931702 145.15058899 C162 147 162 147 159 149 C156.53540039 149.02954102 156.53540039 149.02954102 154 148 C152.53598166 145.80949088 151.49541933 143.90460175 150.43359375 141.52734375 C150.11811584 140.86145737 149.80263794 140.19557098 149.4776001 139.50950623 C148.44739303 137.3263034 147.44284862 135.13224547 146.4375 132.9375 C145.72642052 131.4210723 145.01326899 129.90561457 144.2980957 128.39111328 C143.21739421 126.10145808 142.13819714 123.81121276 141.06596375 121.51757812 C138.05520337 115.07736338 134.90129372 108.71630751 131.6875 102.375 C127.30622302 93.67808039 123.06064756 84.92369383 118.88623047 76.12573242 C115.78374059 69.59726761 112.59708579 63.11781736 109.28417969 56.69335938 C107 52.21220092 107 52.21220092 107 50 C106.34 50 105.68 50 105 50 C104.7743335 50.77802979 104.54866699 51.55605957 104.31616211 52.35766602 C102.56589922 57.2013262 100.26853474 61.68832241 97.94140625 66.27734375 C97.43761948 67.27971573 96.9338327 68.28208771 96.41477966 69.31483459 C94.80115673 72.52432137 93.18224756 75.73110039 91.5625 78.9375 C89.45673012 83.11182392 87.35370565 87.28751324 85.25390625 91.46484375 C84.47224342 93.01985344 84.47224342 93.01985344 83.67478943 94.60627747 C79.13287668 103.67305741 74.75394031 112.81346194 70.3996582 121.97143555 C67.61116411 127.83129472 64.73737101 133.64442463 61.8125 139.4375 C61.33748047 140.38302734 60.86246094 141.32855469 60.37304688 142.30273438 C59.25066678 144.53615739 58.12639974 146.76860245 57 149 C54.01861685 148.71914507 52.49752935 148.53044092 50 147 C47.89441183 143.54908046 46.90604826 139.72903316 45.75 135.875 C45.12186617 133.92740901 44.49353758 131.97987842 43.86172485 130.03347778 C43.38482638 128.55801512 42.91183887 127.08128413 42.44223022 125.60348511 C39.2285339 115.49080504 35.76161948 105.46345916 32.33404541 95.42178345 C30.28215345 89.40247567 28.2430649 83.37883534 26.203125 77.35546875 C25.35094922 74.84031923 24.49873874 72.32518149 23.64648438 69.81005859 C23.43173147 69.17624551 23.21697857 68.54243242 22.995718 67.88941288 C20.68697457 61.07563856 18.37681991 54.26234285 16.06660843 47.44906616 C12.3121535 36.37636353 8.55799008 25.30356205 4.8046875 14.23046875 C4.43269226 13.13317947 4.06069702 12.0358902 3.6774292 10.90534973 C3.33770081 9.90299789 2.99797241 8.90064606 2.64794922 7.86791992 C2.35217987 6.99536057 2.05641052 6.12280121 1.75167847 5.22380066 C1.16358212 3.48394897 0.58077028 1.74231084 0 0 Z " fill="#C21426" transform="translate(216,45)"/>
<path d="M0 0 C7.43947401 5.24243636 12.60598495 11.10966271 15 20 C16.34537494 29.24793764 14.54050025 37.7545123 9.3046875 45.51171875 C3.77859269 52.27950692 -3.87248488 57.30349109 -12.71484375 58.30859375 C-22.55593617 58.70223745 -30.02712773 56.49964733 -37.421875 49.80859375 C-44.47510396 42.201918 -47.43829025 35.07107616 -47.26953125 24.74609375 C-46.35749312 15.4538792 -42.06720705 8.00591999 -35 2 C-23.95060522 -4.93490543 -11.65468412 -6.78024076 0 0 Z " fill="#C21526" transform="translate(272,215)"/>
<path d="M0 0 C6.63906182 4.70729467 11.01213102 10.87233055 13.5859375 18.59375 C14.65843504 30.30976748 13.54879827 39.29255825 5.828125 48.74609375 C-0.57075273 55.07803761 -9.1763706 57.7051454 -18.0390625 58.09375 C-26.38635907 57.72142454 -33.5660877 54.53346967 -39.5859375 48.74609375 C-46.34791124 40.78488108 -48.55794786 32.59376766 -47.94140625 22.37890625 C-47.19373474 17.01228633 -45.45208134 13.03663304 -42.4140625 8.59375 C-41.4859375 7.2015625 -41.4859375 7.2015625 -40.5390625 5.78125 C-29.53459288 -5.54688049 -13.8882627 -8.09025011 0 0 Z " fill="#C21527" transform="translate(406.4140625,215.40625)"/>
<path d="M0 0 C7.96772173 5.25430468 12.96007789 11.08061027 15.984375 20.30859375 C17.40163451 30.34653918 15.70049133 38.86361948 9.796875 47.05859375 C5.24922949 52.56768651 -0.25217719 56.06068398 -7.015625 58.30859375 C-16.32266923 59.1741039 -24.98342772 59.05470198 -32.64453125 53.3515625 C-40.19995913 46.89590578 -45.16867452 40.39177027 -46.23828125 30.18359375 C-46.61890972 20.65133291 -43.07758277 12.57202063 -37.015625 5.30859375 C-27.5255502 -3.71855057 -11.77092491 -6.39435582 0 0 Z " fill="#C21426" transform="translate(137.015625,214.69140625)"/>
</svg>
