<?xml version="1.0" encoding="UTF-8"?>
<svg version="1.1" xmlns="http://www.w3.org/2000/svg" width="1024" height="1024">
<path d="M0 0 C12.73837772 0.0563645 22.86363514 6.55578399 32 15 C36.6382973 19.7265694 40.30953888 24.46430832 44 30 C44.33 20.1 44.66 10.2 45 0 C49.12664116 0.82532823 51.17293772 1.4311114 54.66015625 3.40625 C55.53027344 3.89810791 56.40039062 4.38996582 57.296875 4.89672852 C58.66585937 5.6903479 58.66585937 5.6903479 60.0625 6.5 C61.00480469 7.04390381 61.94710937 7.58780762 62.91796875 8.14819336 C70.04024092 12.31818071 76.61990155 16.74847816 83 22 C84.01707031 22.81597656 85.03414062 23.63195312 86.08203125 24.47265625 C154.70641558 80.33505646 159.70763013 169.22175326 168.17170715 251.22161865 C170.8992995 277.95322571 173.32347939 304.70797646 175.375 331.5 C175.5033725 333.15378159 175.5033725 333.15378159 175.63433838 334.8409729 C175.87476646 337.96644955 176.10700877 341.09241212 176.3359375 344.21875 C176.40435852 345.10882248 176.47277954 345.99889496 176.54327393 346.91593933 C177.06384681 354.27950034 177.06420103 361.62049044 177 369 C178.12242096 368.96241577 179.24484192 368.92483154 180.40127563 368.8861084 C276.374877 365.68532571 276.374877 365.68532571 316.13835907 365.68814087 C318.2041732 365.68751391 320.26994763 365.68306217 322.33575439 365.67773438 C348.46258458 365.63903453 374.72696504 366.64704832 400.6875 369.75 C401.74117264 369.87355362 401.74117264 369.87355362 402.81613159 369.99960327 C449.49679917 375.52746646 492.70483189 389.67383214 535.43824768 408.89167786 C558.21350525 419.29843766 558.21350525 419.29843766 582 427 C582.67812744 427.185625 583.35625488 427.37125 584.05493164 427.5625 C601.24993078 431.92359253 620.0699347 429.30282391 637 425 C639.09632765 424.47775814 641.19268322 423.95562832 643.2890625 423.43359375 C646.45728863 422.64284483 649.62271035 421.84581385 652.78173828 421.01904297 C668.39026302 416.9712164 683.37031952 416.11720144 698 423.9375 C721.13101921 438.39060743 732.77355733 465.47676984 739 491 C742.20895885 505.30629508 744.1789849 519.14097774 744.1875 533.8125 C744.19974609 534.91142578 744.21199219 536.01035156 744.22460938 537.14257812 C744.25412587 553.83907489 740.65120823 569.56054568 729.0390625 582.12109375 C720.89512188 589.89752803 712.17658951 594.18193574 701 595 C700.17755754 598.93548914 699.36892111 602.87369939 698.5625 606.8125 C698.33240234 607.91271484 698.10230469 609.01292969 697.86523438 610.14648438 C692.42690388 636.86523856 694.11220689 664.53112076 700.75 690.875 C700.96543457 691.7407666 701.18086914 692.6065332 701.40283203 693.49853516 C702.53691818 697.70178603 703.81163937 701.70408337 705.6915741 705.63447571 C710.43214523 715.69629668 711.96845195 724.17241169 711.74191475 735.24630165 C711.68978341 737.81834885 711.68276393 740.38746311 711.68553162 742.96000671 C711.6834642 748.41142574 711.62567205 753.86149957 711.5625 759.3125 C711.49369398 765.65817682 711.4488463 772.00279553 711.45112419 778.34886742 C711.44165435 780.85999288 711.39566296 783.36859575 711.3473053 785.87922668 C711.27678634 794.57246607 711.97838582 800.86751168 716.54997253 808.55609131 C718.68890065 812.16108855 719.71642887 815.90359828 720.75 819.9375 C720.94464844 820.63294922 721.13929688 821.32839844 721.33984375 822.04492188 C724.27037233 832.97048314 725.36993364 843.89932777 725.3125 855.1875 C725.30404053 856.9506958 725.30404053 856.9506958 725.29541016 858.74951172 C725.0721282 874.89876631 723.10830369 893.55463925 713.76171875 907.2890625 C710.94758442 912.05624498 712.07824926 916.91246674 712.75 922.1875 C712.97330793 924.35357055 713.19068095 926.52026053 713.40234375 928.6875 C713.5091748 929.76 713.61600586 930.8325 713.72607422 931.9375 C716.4505727 962.3974901 710.58379114 993.24862657 701 1022 C682.52 1022 664.04 1022 645 1022 C648.6296358 1013.5308498 652.63005333 1006.42509475 661 1002 C662.98862116 1001.3001212 664.98737756 1000.62753115 667 1000 C667.48476521 996.89668176 667.96172504 993.7922082 668.4375 990.6875 C668.57220703 989.82576172 668.70691406 988.96402344 668.84570312 988.07617188 C670.84117491 974.98393015 671.23879097 962.09728837 671.25 948.875 C671.25200912 947.47704193 671.25200912 947.47704193 671.25405884 946.05084229 C671.24969753 932.03901827 670.7056794 918.37855397 668.41455078 904.52587891 C668.00418682 902.02551052 667.65220432 899.52202657 667.30859375 897.01171875 C666.53142146 891.41761111 666.53142146 891.41761111 665 886 C662.72339866 884.73559987 662.72339866 884.73559987 660 884 C639.52176578 870.56868756 621.99875052 850.88172472 611 829 C610.2577947 831.71307153 609.82961665 834.26606737 609.640625 837.0703125 C606.12092712 883.42856135 591.44879008 932.94241106 557 966 C556.34 966 555.68 966 555 966 C555 980.52 555 995.04 555 1010 C536.52 1010 518.04 1010 499 1010 C499 999.44951758 500.0056014 991.366019 507.44921875 983.4609375 C511.93371935 979.43548027 516.04909272 978 522 978 C522.25910156 977.2884375 522.51820313 976.576875 522.78515625 975.84375 C524.0780933 972.81719638 525.65086731 970.26352332 527.4375 967.5 C539.98674621 947.44598595 548.49012605 927.44281479 552 904 C552.19722656 902.68708984 552.19722656 902.68708984 552.3984375 901.34765625 C556.60917998 867.14959907 542.48727902 840.59218806 522.27734375 814.1015625 C505.22541201 791.74903028 491.40727123 772.03352287 495.29882812 742.75146484 C495.97229935 739.10290802 496.89643768 735.54059579 498 732 C496.86691406 732.52787109 496.86691406 732.52787109 495.7109375 733.06640625 C430.38640398 762.36300618 344.67047539 765.10368217 277 742 C277.01015137 743.17151611 277.02030273 744.34303223 277.03076172 745.55004883 C277.11443265 759.97980504 276.7456281 774.38231464 276.25537109 788.80297852 C276.12484849 792.69201438 276.0055801 796.58129551 275.88671875 800.47070312 C274.78392959 834.61692729 274.78392959 834.61692729 270.75 850.625 C270.53529053 851.49688965 270.32058105 852.3687793 270.09936523 853.26708984 C265.34676705 871.89264303 265.34676705 871.89264303 260.54508972 879.22027588 C255.40652836 887.28820807 255.16492433 894.69005907 255.265625 903.9453125 C255.25942619 905.48397208 255.25030898 907.02262231 255.23846436 908.56124878 C255.2138676 912.59929404 255.22286643 916.63650757 255.24102783 920.67456055 C255.26729346 927.84811424 255.23406638 935.02181714 255.203125 942.1953125 C255.19920211 943.35194901 255.19920211 943.35194901 255.19519997 944.5319519 C255.15466523 954.46936634 254.90252871 964.34517224 254.12109375 974.2578125 C254.04509949 975.23509308 253.96910522 976.21237366 253.89080811 977.2192688 C252.68941287 990.53451133 248.36124956 1002.77644949 241 1014 C240.5073616 1014.81553345 240.01472321 1015.63106689 239.50715637 1016.47131348 C234.75879644 1023.46915741 234.75879644 1023.46915741 230.08061218 1024.88113403 C226.59674233 1025.15597271 223.24151402 1025.12604798 219.75 1024.9765625 C218.49614502 1024.96241302 217.24229004 1024.94826355 215.95043945 1024.9336853 C212.64061816 1024.88737732 209.33580343 1024.79782883 206.02764893 1024.68664551 C202.64274934 1024.58373625 199.25711176 1024.53854908 195.87109375 1024.48828125 C189.24545954 1024.37831286 182.62313847 1024.21121168 176 1024 C176.61597548 1021.94026115 177.23669766 1019.88194149 177.859375 1017.82421875 C178.20452148 1016.67783936 178.54966797 1015.53145996 178.90527344 1014.3503418 C183.5020848 1000.28208971 194.0285599 986.41225149 207 979 C207.66 979 208.32 979 209 979 C210.99783851 925.04964308 210.99783851 925.04964308 199 873 C198.83650558 873.54281616 198.67301117 874.08563232 198.50456238 874.64489746 C175.5823639 950.6897399 175.5823639 950.6897399 164 974 C163.61521484 974.78584473 163.23042969 975.57168945 162.83398438 976.38134766 C149.41712714 1003.58287286 149.41712714 1003.58287286 141 1012 C137.89748799 1012.08874135 134.8173188 1012.11518455 131.71484375 1012.09765625 C130.78402481 1012.0962413 129.85320587 1012.09482635 128.8941803 1012.09336853 C125.90858809 1012.08775172 122.92306971 1012.0751964 119.9375 1012.0625 C117.91862087 1012.05748716 115.89974057 1012.05292388 113.88085938 1012.04882812 C108.92054428 1012.03777683 103.96028468 1012.02050095 99 1012 C98.82226972 1005.74699723 98.7993887 1000.14188564 100.75 994.125 C101.07484375 993.07570313 101.3996875 992.02640625 101.734375 990.9453125 C103.62820506 986.53806599 106.10617791 983.10724239 110.375 980.8125 C110.91898438 980.50957031 111.46296875 980.20664062 112.0234375 979.89453125 C114 979 114 979 116.984375 978.41015625 C120.84595446 976.60441767 121.42800032 974.98044461 122.96582031 971.13671875 C123.26584961 970.30785156 123.56587891 969.47898437 123.875 968.625 C124.2059668 967.75230469 124.53693359 966.87960937 124.87792969 965.98046875 C131.63959705 947.60096953 136.97874347 928.3657591 140 909 C140.1016748 908.35724121 140.20334961 907.71448242 140.30810547 907.05224609 C144.02546442 879.36090374 141.37077934 848.69504378 136.53515625 821.32543945 C132.05865563 795.67945451 131.0877535 770.60385963 131.12445068 744.60571289 C131.12538552 739.32037441 131.09220278 734.03523932 131.0625 728.75 C131.00961856 718.49993583 130.99233381 708.25018622 131 698 C130.24394974 697.58537254 130.24394974 697.58537254 129.47262573 697.16236877 C127.1442091 695.88327685 124.8181982 694.59986776 122.4921875 693.31640625 C121.30338989 692.66460388 121.30338989 692.66460388 120.09057617 691.99963379 C83.895 671.99291363 53.40803068 643.63808349 34 607 C33.61972656 606.28344238 33.23945313 605.56688477 32.84765625 604.82861328 C25.09131864 589.94734811 19.63995112 573.75516324 18 557 C17.91532471 556.15099121 17.83064941 555.30198242 17.7434082 554.42724609 C17.03881315 546.81761956 16.8082108 539.26513374 16.8125 531.625 C16.81185547 530.41634277 16.81121094 529.20768555 16.81054688 527.96240234 C16.86602332 518.37632488 17.5238189 508.93885141 18.5625 499.4140625 C18.70842235 497.94271716 18.8542672 496.47136413 19 495 C19.11472656 493.98808594 19.22945313 492.97617187 19.34765625 491.93359375 C18.82338103 487.50965339 16.64801976 484.24943789 14.4375 480.4375 C2.50276761 458.71933314 -3.13328084 433.5320764 -3.16796875 408.78515625 C-3.17296135 407.50323647 -3.17296135 407.50323647 -3.17805481 406.19541931 C-3.18308601 404.39452648 -3.18546432 402.59362446 -3.18530273 400.79272461 C-3.18746935 398.1005829 -3.20561118 395.4088653 -3.22460938 392.71679688 C-3.25049278 383.35956925 -3.01472306 374.26545822 -1.35038757 365.0315094 C-0.58688267 359.97625264 -1.51169985 357.06437683 -3.98574829 352.78768921 C-20.91774745 322.94386257 -15.03291978 264.03650918 -6.83203125 232.30859375 C-5.75094314 228.46020319 -4.43261976 224.73311641 -3 221 C-2.76522949 220.37818848 -2.53045898 219.75637695 -2.28857422 219.11572266 C-0.05177918 213.26713951 2.04290243 208.07683419 6.13671875 203.3125 C9.97147087 198.36014406 9.89095426 193.57857176 9.875 187.5 C9.895625 186.48679688 9.91625 185.47359375 9.9375 184.4296875 C9.98424329 181.95229287 10.00447477 179.47774176 10 177 C8.45505859 176.87044922 8.45505859 176.87044922 6.87890625 176.73828125 C-17.24461633 174.45945613 -40.44975861 165.83955471 -59 150 C-59.86238281 149.34 -60.72476563 148.68 -61.61328125 148 C-67.42755725 143.127808 -70.50831993 136.18898069 -71.21875 128.69140625 C-71.67299746 116.55921367 -66.74486978 106.03787268 -58.75 97.0625 C-51.99067484 90.88462217 -44.20217375 90.90817437 -35.5 90.6875 C-21.62565897 90.28871499 -5.68369822 86.33137633 4.63671875 76.4296875 C11.14118082 69.0119915 10.69961952 61.37102584 10.24707031 51.99121094 C8.9541108 36.33771302 4.92578598 20.77015906 0.91796875 5.62109375 C0 2 0 2 0 0 Z " fill="#9FC4EE" transform="translate(177,0)"/>
</svg>
