<?xml version="1.0" encoding="UTF-8"?>
<svg version="1.1" xmlns="http://www.w3.org/2000/svg" width="512" height="512">
<path d="M0 0 C1.24338135 0.31227539 2.4867627 0.62455078 3.76782227 0.94628906 C21.27801239 5.56240406 36.41528609 13.75108728 46.875 28.875 C53.50657471 40.39785546 57.11843707 51.24198502 58 64.5 C58.11021484 65.94826172 58.11021484 65.94826172 58.22265625 67.42578125 C58.37541776 69.47600147 58.51881136 71.52693483 58.65429688 73.57836914 C58.80215625 75.78693678 58.96506984 77.99454512 59.14257812 80.20092773 C60.07486371 92.7239041 60.0962328 105.25348177 60.11523438 117.80639648 C60.12488385 121.64133877 60.15597219 125.47573086 60.1875 129.31054688 C60.2807211 150.89179409 58.79584083 172.30975686 54.1875 193.4375 C53.93403809 194.62529053 53.68057617 195.81308105 53.41943359 197.03686523 C49.0965848 216.59081924 42.84710795 235.51487321 34.875 253.875 C34.41988037 254.93775146 34.41988037 254.93775146 33.95556641 256.02197266 C22.37734135 282.78373085 5.58079345 307.05259854 -14.0078125 328.5390625 C-15.91580203 330.64418748 -17.77547069 332.78113634 -19.625 334.9375 C-25.92638437 342.15571396 -32.83668855 348.67110859 -40.125 354.875 C-41.03507812 355.67421875 -41.94515625 356.4734375 -42.8828125 357.296875 C-66.50172182 377.89034704 -93.89792506 394.81755274 -122.375 407.8125 C-123.11234375 408.17311523 -123.8496875 408.53373047 -124.609375 408.90527344 C-129.86915122 411.18498623 -133.2461013 410.86066646 -138.60253906 408.91918945 C-139.43495117 408.57460693 -140.26736328 408.23002441 -141.125 407.875 C-141.91874023 407.54910889 -142.71248047 407.22321777 -143.53027344 406.88745117 C-146.00869214 405.81395887 -148.44250549 404.67374747 -150.875 403.5 C-151.77114014 403.06937256 -152.66728027 402.63874512 -153.59057617 402.19506836 C-195.81712014 381.49060593 -235.39548847 350.26243286 -263.78662109 312.64599609 C-265.12399764 310.87632636 -266.47778041 309.12005501 -267.83203125 307.36328125 C-275.43991221 297.36882779 -281.87639415 286.75922606 -288.125 275.875 C-288.50253418 275.22595703 -288.88006836 274.57691406 -289.26904297 273.90820312 C-312.32525667 234.01196486 -324.14567867 185.23772823 -324.328125 139.30859375 C-324.33504868 138.12780243 -324.34197235 136.94701111 -324.34910583 135.73043823 C-324.3663411 131.92442486 -324.37269669 128.1185506 -324.375 124.3125 C-324.37633942 123.016539 -324.37767883 121.720578 -324.37905884 120.38534546 C-324.37559537 104.94604867 -324.24688081 89.56824018 -322.8125 74.1875 C-322.69487305 72.91769287 -322.57724609 71.64788574 -322.45605469 70.33959961 C-320.12199528 48.32571834 -314.84988751 28.93653414 -297.15356445 14.10620117 C-286.35406069 6.15000086 -274.02437093 2.23222795 -261.125 -0.75 C-259.54967276 -1.12729791 -257.97448005 -1.50515788 -256.39941406 -1.88354492 C-171.28374741 -22.08709811 -84.82581323 -21.54133136 0 0 Z " fill="#5C4037" transform="translate(388.125,59.125)"/>
<path d="M0 0 C1.24338135 0.31227539 2.4867627 0.62455078 3.76782227 0.94628906 C21.27801239 5.56240406 36.41528609 13.75108728 46.875 28.875 C53.50657471 40.39785546 57.11843707 51.24198502 58 64.5 C58.11021484 65.94826172 58.11021484 65.94826172 58.22265625 67.42578125 C58.37541776 69.47600147 58.51881136 71.52693483 58.65429688 73.57836914 C58.80215625 75.78693678 58.96506984 77.99454512 59.14257812 80.20092773 C60.07486371 92.7239041 60.0962328 105.25348177 60.11523438 117.80639648 C60.12488385 121.64133877 60.15597219 125.47573086 60.1875 129.31054688 C60.2807211 150.89179409 58.79584083 172.30975686 54.1875 193.4375 C53.93403809 194.62529053 53.68057617 195.81308105 53.41943359 197.03686523 C49.0965848 216.59081924 42.84710795 235.51487321 34.875 253.875 C34.41988037 254.93775146 34.41988037 254.93775146 33.95556641 256.02197266 C22.37734135 282.78373085 5.58079345 307.05259854 -14.0078125 328.5390625 C-15.91580203 330.64418748 -17.77547069 332.78113634 -19.625 334.9375 C-25.92638437 342.15571396 -32.83668855 348.67110859 -40.125 354.875 C-41.03507812 355.67421875 -41.94515625 356.4734375 -42.8828125 357.296875 C-66.50172182 377.89034704 -93.89792506 394.81755274 -122.375 407.8125 C-123.11234375 408.17311523 -123.8496875 408.53373047 -124.609375 408.90527344 C-129.86915122 411.18498623 -133.2461013 410.86066646 -138.60253906 408.91918945 C-139.43495117 408.57460693 -140.26736328 408.23002441 -141.125 407.875 C-141.91874023 407.54910889 -142.71248047 407.22321777 -143.53027344 406.88745117 C-146.00869214 405.81395887 -148.44250549 404.67374747 -150.875 403.5 C-151.77114014 403.06937256 -152.66728027 402.63874512 -153.59057617 402.19506836 C-195.81712014 381.49060593 -235.39548847 350.26243286 -263.78662109 312.64599609 C-265.12399764 310.87632636 -266.47778041 309.12005501 -267.83203125 307.36328125 C-275.43991221 297.36882779 -281.87639415 286.75922606 -288.125 275.875 C-288.50253418 275.22595703 -288.88006836 274.57691406 -289.26904297 273.90820312 C-312.32525667 234.01196486 -324.14567867 185.23772823 -324.328125 139.30859375 C-324.33504868 138.12780243 -324.34197235 136.94701111 -324.34910583 135.73043823 C-324.3663411 131.92442486 -324.37269669 128.1185506 -324.375 124.3125 C-324.37633942 123.016539 -324.37767883 121.720578 -324.37905884 120.38534546 C-324.37559537 104.94604867 -324.24688081 89.56824018 -322.8125 74.1875 C-322.69487305 72.91769287 -322.57724609 71.64788574 -322.45605469 70.33959961 C-320.12199528 48.32571834 -314.84988751 28.93653414 -297.15356445 14.10620117 C-286.35406069 6.15000086 -274.02437093 2.23222795 -261.125 -0.75 C-259.54967276 -1.12729791 -257.97448005 -1.50515788 -256.39941406 -1.88354492 C-171.28374741 -22.08709811 -84.82581323 -21.54133136 0 0 Z M-255.4375 31.4375 C-257.15356445 31.84029175 -257.15356445 31.84029175 -258.90429688 32.2512207 C-269.89249905 34.98925108 -278.56347989 39.3148086 -285.375 48.57421875 C-289.18921953 55.03875994 -289.4830728 62.56616076 -290.125 69.875 C-290.21523438 70.84614746 -290.30546875 71.81729492 -290.3984375 72.81787109 C-297.60759993 153.25117823 -286.73475145 233.53216665 -233.73974609 297.54833984 C-231.2837158 300.40243942 -228.70975521 303.13820037 -226.125 305.875 C-225.03674193 307.14161866 -223.95331815 308.41240846 -222.875 309.6875 C-214.44227638 319.33047562 -205.19977161 327.97321834 -195.125 335.875 C-194.36316406 336.5040625 -193.60132813 337.133125 -192.81640625 337.78125 C-178.58907374 349.48940896 -163.28847113 359.08633603 -147.125 367.875 C-146.39458496 368.2771875 -145.66416992 368.679375 -144.91162109 369.09375 C-142.99210057 370.14399348 -141.06275601 371.17138212 -139.125 372.1875 C-138.073125 372.74050781 -137.02125 373.29351562 -135.9375 373.86328125 C-132.02296631 375.27142601 -129.51202482 374.47279659 -125.74755859 372.8503418 C-124.93109863 372.42922119 -124.11463867 372.00810059 -123.2734375 371.57421875 C-122.34942139 371.09807129 -121.42540527 370.62192383 -120.47338867 370.13134766 C-119.49217041 369.61362793 -118.51095215 369.0959082 -117.5 368.5625 C-116.47817627 368.02415527 -115.45635254 367.48581055 -114.40356445 366.93115234 C-93.36954795 355.70233166 -74.52876057 342.16538868 -57.125 325.875 C-55.71379439 324.63956733 -54.29751714 323.40989115 -52.875 322.1875 C-46.4181896 316.55916018 -40.64298747 310.41746676 -35.125 303.875 C-34.67382812 303.34825684 -34.22265625 302.82151367 -33.7578125 302.27880859 C-5.1314407 268.72996159 14.09162915 228.0382514 22.875 184.875 C23.02807617 184.13008301 23.18115234 183.38516602 23.33886719 182.61767578 C30.32390677 147.63753936 29.56271823 110.02172012 26.13964844 74.65576172 C25.89702587 72.10643423 25.69674207 69.55765762 25.5078125 67.00390625 C24.63801931 56.66057681 21.81667382 48.40898346 14.3125 41 C4.68323328 33.57401991 -8.23118291 31.3845206 -19.875 28.8125 C-20.63458008 28.64135681 -21.39416016 28.47021362 -22.17675781 28.29388428 C-34.87360383 25.43516573 -47.60228068 23.13132126 -60.48657227 21.27978516 C-63.17946341 20.86664427 -65.85030704 20.38026454 -68.52734375 19.875 C-130.03051401 8.56344885 -195.3052807 16.933666 -255.4375 31.4375 Z " fill="#4CAD4F" transform="translate(388.125,59.125)"/>
<path d="M0 0 C22.05432617 8.83230808 41.12592005 45.93896079 50.09765625 66.79296875 C54.49065709 77.32474979 58.07944256 87.97340557 61 99 C61.22300781 99.81082031 61.44601562 100.62164062 61.67578125 101.45703125 C70.11789274 135.16103362 65.56546113 173.11793942 47.79492188 203.02832031 C40.57655333 214.65791408 31.99977227 225.03442574 22.80859375 235.140625 C22.14911743 235.86644775 22.14911743 235.86644775 21.47631836 236.60693359 C20 238 20 238 18.13500977 239.10009766 C15.80032098 240.56771831 14.51788284 241.67301172 13 244 C11.97464495 249.62462885 12.01876253 255.17355082 12.0625 260.875 C12.04938175 262.4375297 12.03313724 264.00003648 12.01367188 265.5625 C11.96710485 269.37694647 11.98510776 273.18333261 12 277 C4.74 277 -2.52 277 -10 277 C-9.95617187 274.72222656 -9.91234375 272.44445312 -9.8671875 270.09765625 C-9.85877843 267.86329582 -9.86755604 265.62960683 -9.87792969 263.39526367 C-9.87599664 261.8560743 -9.85651076 260.31679387 -9.81835938 258.77807617 C-9.45841657 249.4411671 -9.45841657 249.4411671 -13.1105957 241.12304688 C-15.63499386 238.87035498 -18.22241191 236.92697187 -21 235 C-39.73915191 217.55292081 -53.63435822 193.70475261 -60 169 C-60.17499023 168.32565918 -60.34998047 167.65131836 -60.53027344 166.95654297 C-65.49071318 146.60891739 -64.88057883 123.3023165 -60 103 C-59.81195801 102.17193848 -59.62391602 101.34387695 -59.43017578 100.49072266 C-50.35109231 61.16247327 -28.71506981 27.81302573 0 0 Z " fill="#80C683" transform="translate(255,107)"/>
<path d="M0 0 C1.12116428 0.95895583 2.24203968 1.91824941 3.36279297 2.87768555 C3.98701141 3.41185593 4.61122986 3.94602631 5.25436401 4.49638367 C33.01224894 28.40584101 50.76660897 64.13923794 60 99 C60.22300781 99.81082031 60.44601562 100.62164062 60.67578125 101.45703125 C69.11789274 135.16103362 64.56546113 173.11793942 46.79492188 203.02832031 C37.53779357 217.94258258 26.02580727 233.25682848 12 244 C11.34 244 10.68 244 10 244 C-1.4731889 219.02464845 -1.35396278 194.80544933 -1.01393938 167.74535608 C-0.95052059 161.82790715 -0.94548202 155.91038163 -0.9336853 149.99264526 C-0.9028654 138.83713359 -0.82116686 127.6826268 -0.72019041 116.52755344 C-0.60759114 103.80656568 -0.55322865 91.08552451 -0.50323606 78.36416078 C-0.39930402 52.24222131 -0.22393325 26.12116748 0 0 Z " fill="#4CAE4F" transform="translate(256,107)"/>
<path d="M0 0 C0.66 0 1.32 0 2 0 C11.09486099 21.18667219 13.29968827 39.08216359 12 62 C5.07 62 -1.86 62 -9 62 C-10.07077886 39.30213212 -9.10617522 21.19661412 0 0 Z " fill="#D9EAC5" transform="translate(255,322)"/>
</svg>
