<?xml version="1.0" encoding="UTF-8"?>
<svg version="1.1" xmlns="http://www.w3.org/2000/svg" width="377" height="376">
<path d="M0 0 C124.41 0 248.82 0 377 0 C377 124.08 377 248.16 377 376 C252.59 376 128.18 376 0 376 C0 251.92 0 127.84 0 0 Z " fill="#010101" transform="translate(0,0)"/>
<path d="M0 0 C5.63589591 2.61390867 9.69940591 9.13223807 13.46875 13.86328125 C16.28198306 17.38545806 19.23551085 20.78160432 22.1875 24.1875 C26.3347763 28.98810096 30.29037428 33.84774206 34 39 C30.22660027 43.95258714 26.09210286 47.43679155 21 51 C15.89363192 47.20295707 12.17705836 42.70778174 8.24609375 37.71875 C5.97499565 34.96973387 3.55796648 32.48154217 1 30 C0.96132812 31.05960938 0.96132812 31.05960938 0.921875 32.140625 C0.3412583 42.64450892 -1.78733808 52.73626245 -4 63 C-8.54538955 62.46096342 -13.01614726 61.87163599 -17.5 60.9375 C-18.3559375 60.76089844 -19.211875 60.58429688 -20.09375 60.40234375 C-20.7228125 60.26957031 -21.351875 60.13679688 -22 60 C-20.91245596 48.83028301 -19.37960383 37.96992799 -17 27 C-17.68626465 27.39380859 -18.3725293 27.78761719 -19.07958984 28.19335938 C-22.17554477 29.96667367 -25.27520366 31.73340991 -28.375 33.5 C-29.99535156 34.43005859 -29.99535156 34.43005859 -31.6484375 35.37890625 C-33.1953125 36.25869141 -33.1953125 36.25869141 -34.7734375 37.15625 C-35.72653809 37.70087891 -36.67963867 38.24550781 -37.66162109 38.80664062 C-40 40 -40 40 -42 40 C-43.36680153 37.73595458 -44.71844445 35.46498979 -46.0625 33.1875 C-46.45244141 32.54490234 -46.84238281 31.90230469 -47.24414062 31.24023438 C-48.24130759 29.5371085 -49.12812687 27.77054142 -50 26 C-48.71930977 22.15792931 -47.49525063 21.87196705 -43.99609375 19.9609375 C-42.95251709 19.38424316 -41.90894043 18.80754883 -40.83374023 18.21337891 C-39.71298096 17.60671387 -38.59222168 17.00004883 -37.4375 16.375 C-35.14545946 15.12047451 -32.85379276 13.86526574 -30.5625 12.609375 C-28.87833984 11.68995117 -28.87833984 11.68995117 -27.16015625 10.75195312 C-24.43031596 9.23856206 -21.73925885 7.68282613 -19.0625 6.078125 C-18.35295166 5.65740723 -17.64340332 5.23668945 -16.91235352 4.80322266 C-15.6418693 4.04523566 -14.37858687 3.27497359 -13.12475586 2.48974609 C-8.47834913 -0.24343433 -5.24178595 -0.51443147 0 0 Z " fill="#F8F8F8" transform="translate(221,44)"/>
<path d="M0 0 C2.09375 1.2421875 2.09375 1.2421875 3.5 2.875 C4.06332031 3.51050781 4.62664062 4.14601562 5.20703125 4.80078125 C5.79871094 5.52652344 6.39039063 6.25226563 7 7 C7.66386719 7.79792969 8.32773438 8.59585938 9.01171875 9.41796875 C10.50478913 11.232706 11.98734891 13.05612674 13.4609375 14.88671875 C16.8283153 19.04935938 20.33799611 23.09031169 23.83862305 27.14086914 C24.79204113 28.24615913 25.74138975 29.35497649 26.68603516 30.46777344 C27.90458874 31.88874004 29.15990405 33.27795568 30.41796875 34.6640625 C32 37 32 37 32.09765625 39.015625 C30.44583716 42.00183174 28.11157928 43.65991505 25.4375 45.75 C24.42558594 46.54921875 23.41367188 47.3484375 22.37109375 48.171875 C21.58863281 48.77515625 20.80617188 49.3784375 20 50 C17.03408263 48.68650524 15.17278321 47.3614488 13.08984375 44.8828125 C12.57486328 44.27566406 12.05988281 43.66851562 11.52929688 43.04296875 C11.00400391 42.41003906 10.47871094 41.77710938 9.9375 41.125 C9.40833984 40.49980469 8.87917969 39.87460938 8.33398438 39.23046875 C5.79643509 36.21852192 3.31521254 33.18842419 1 30 C-0.50088022 31.50088022 -0.38906933 33.0006958 -0.68359375 35.0859375 C-0.80565186 35.92995117 -0.92770996 36.77396484 -1.0534668 37.64355469 C-1.18019775 38.54493164 -1.30692871 39.44630859 -1.4375 40.375 C-2.48533639 47.61272566 -3.60028485 54.82028465 -5 62 C-6.85437862 61.85688704 -8.70849429 61.71036549 -10.5625 61.5625 C-11.59503906 61.48128906 -12.62757813 61.40007812 -13.69140625 61.31640625 C-17.14789088 60.98585695 -20.56661429 60.51522434 -24 60 C-23.35506893 55.6248665 -22.70889626 51.24991725 -22.0625 46.875 C-21.88009766 45.6375 -21.69769531 44.4 -21.50976562 43.125 C-21.33251953 41.92617187 -21.15527344 40.72734375 -20.97265625 39.4921875 C-20.81031494 38.39245605 -20.64797363 37.29272461 -20.48071289 36.15966797 C-20.01539927 33.10121753 -19.51640404 30.05019972 -19 27 C-19.51385254 27.28721924 -20.02770508 27.57443848 -20.55712891 27.87036133 C-22.91232168 29.18578128 -25.26864987 30.49915446 -27.625 31.8125 C-28.43324219 32.26431641 -29.24148437 32.71613281 -30.07421875 33.18164062 C-34.33839435 35.55640509 -38.61175598 37.86268374 -43 40 C-44.34453118 37.92317952 -45.67555837 35.83957514 -47 33.75 C-47.3815625 33.16347656 -47.763125 32.57695312 -48.15625 31.97265625 C-50.27747611 28.6014219 -51 27.09419282 -51 23 C-49.9790625 22.44054687 -48.958125 21.88109375 -47.90625 21.3046875 C-46.43740692 20.49496049 -44.96866615 19.68504788 -43.5 18.875 C-42.31482788 18.22567505 -42.31482788 18.22567505 -41.10571289 17.56323242 C-36.25441804 14.88268329 -31.49255303 12.09753625 -26.77734375 9.18359375 C-25.72546875 8.54244629 -24.67359375 7.90129883 -23.58984375 7.24072266 C-21.5194622 5.97431362 -19.46032523 4.68929859 -17.4140625 3.38427734 C-11.38812907 -0.27302864 -6.93161958 -2.35825652 0 0 Z " fill="#F9F9F8" transform="translate(207,131)"/>
<path d="M0 0 C5.23779694 3.30208937 8.67501329 8.1680722 12.5078125 12.96875 C15.09030157 16.10983389 17.79061288 19.0902586 20.5625 22.0625 C24.03091649 25.81392859 27.46008412 29.58999527 30.75 33.5 C31.73226562 34.66015625 31.73226562 34.66015625 32.734375 35.84375 C34 38 34 38 34.05078125 39.984375 C32.46403061 43.02810485 30.12441288 44.64988418 27.4375 46.75 C26.42558594 47.54921875 25.41367188 48.3484375 24.37109375 49.171875 C23.58863281 49.77515625 22.80617188 50.3784375 22 51 C17.43610148 49.43554306 15.21579238 45.77063923 12.4375 42.0625 C11.47964546 40.80203011 10.52006394 39.54287035 9.55859375 38.28515625 C8.92908813 37.44803101 8.92908813 37.44803101 8.28686523 36.59399414 C7.00734202 34.93821851 7.00734202 34.93821851 5.34008789 33.41967773 C4 32 4 32 4 30 C3.34 30 2.68 30 2 30 C1.95174072 30.65846924 1.90348145 31.31693848 1.85375977 31.99536133 C1.28683934 38.98984215 0.25055676 45.79743185 -1.0625 52.6875 C-1.24876953 53.68716797 -1.43503906 54.68683594 -1.62695312 55.71679688 C-2.08013987 58.14541301 -2.53786592 60.57307351 -3 63 C-4.74644393 62.85976355 -6.49245997 62.71419232 -8.23828125 62.56640625 C-9.21063721 62.48592041 -10.18299316 62.40543457 -11.18481445 62.32250977 C-14.6512939 61.92538728 -17.69683101 61.10105633 -21 60 C-20.53040058 52.5026023 -19.41309284 45.21080238 -18.01635742 37.84008789 C-17.38748357 34.47120407 -17 31.44307415 -17 28 C-17.58491211 28.32274902 -18.16982422 28.64549805 -18.77246094 28.97802734 C-21.431194 30.44449633 -24.09058944 31.90976002 -26.75 33.375 C-27.67039063 33.88289063 -28.59078125 34.39078125 -29.5390625 34.9140625 C-30.87324219 35.64882812 -30.87324219 35.64882812 -32.234375 36.3984375 C-33.05131836 36.84880371 -33.86826172 37.29916992 -34.70996094 37.76318359 C-36.78768579 38.88533222 -38.88131979 39.95767741 -41 41 C-42.34130761 38.73354942 -43.67316234 36.46239903 -45 34.1875 C-45.3815625 33.54490234 -45.763125 32.90230469 -46.15625 32.24023438 C-49 27.33984375 -49 27.33984375 -49 24 C-46.75247969 22.40762731 -44.57488113 21.03881546 -42.1875 19.6875 C-41.49970459 19.28724609 -40.81190918 18.88699219 -40.10327148 18.47460938 C-35.43398917 15.77194195 -30.72257526 13.14642675 -25.95703125 10.6171875 C-23.6076663 9.33233005 -21.30984858 8.00487872 -19.01171875 6.6328125 C-18.30781006 6.21902344 -17.60390137 5.80523437 -16.87866211 5.37890625 C-15.49336723 4.5628867 -14.11480117 3.73529798 -12.74438477 2.89453125 C-8.35425859 0.33211086 -5.21556463 -0.60571961 0 0 Z " fill="#F9F9F9" transform="translate(190,211)"/>
<path d="M0 0 C1.34692383 1.86669922 1.34692383 1.86669922 2.70703125 4.3046875 C3.20847656 5.19333496 3.70992188 6.08198242 4.2265625 6.99755859 C5.01160156 8.42189209 5.01160156 8.42189209 5.8125 9.875 C6.35003906 10.8335791 6.88757813 11.7921582 7.44140625 12.77978516 C8.97133223 15.51424934 10.48859729 18.25526307 12 21 C12.35626465 21.64582031 12.7125293 22.29164063 13.07958984 22.95703125 C14.34170102 25.25003757 15.5919775 27.5480701 16.8203125 29.859375 C17.95829054 31.98975601 17.95829054 31.98975601 19.2421875 33.890625 C21.87588955 37.92291365 22.46358573 41.10331213 22.53125 45.7890625 C21.32180358 50.82249393 17.09320899 53.92822887 13.1875 57 C6.57182136 62.30142302 0.19598305 67.8607306 -6.19335938 73.43115234 C-9.11602373 75.96913088 -12.05713117 78.48550209 -15 81 C-18.78200079 79.25354101 -20.96862252 77.12677729 -23.75 74 C-24.94882812 72.6696875 -24.94882812 72.6696875 -26.171875 71.3125 C-28 69 -28 69 -28 67 C-26.38617052 65.54340023 -24.70636784 64.15951049 -23 62.8125 C-18.72424134 59.40292729 -14.58900781 55.91008824 -10.55859375 52.21484375 C-9 51 -9 51 -7 51 C-7 50.34 -7 49.68 -7 49 C-7.99257813 49.02835938 -8.98515625 49.05671875 -10.0078125 49.0859375 C-14.08510102 48.99816808 -17.89457256 48.42962594 -21.875 47.625 C-22.57173828 47.48924561 -23.26847656 47.35349121 -23.98632812 47.21362305 C-29.0106026 46.22571047 -34.01240692 45.15783411 -39 44 C-38.69095829 41.72869344 -38.37765093 39.45796695 -38.0625 37.1875 C-37.88847656 35.92292969 -37.71445312 34.65835938 -37.53515625 33.35546875 C-37 30 -37 30 -36 27 C-29.62589297 26.76282392 -23.96506777 27.63526702 -17.75 29 C-15.99554568 29.37851201 -14.24035794 29.75364409 -12.484375 30.125 C-11.71834961 30.29257813 -10.95232422 30.46015625 -10.16308594 30.6328125 C-7.70840748 31.11157171 -7.70840748 31.11157171 -4 31 C-4.55312866 30.07719238 -4.55312866 30.07719238 -5.11743164 29.13574219 C-6.77869492 26.34795365 -8.42071029 23.54929731 -10.0625 20.75 C-10.64322266 19.78191406 -11.22394531 18.81382812 -11.82226562 17.81640625 C-12.36689453 16.88183594 -12.91152344 15.94726562 -13.47265625 14.984375 C-13.98062744 14.12553711 -14.48859863 13.26669922 -15.01196289 12.38183594 C-16 10 -16 10 -15.8215332 7.81079102 C-14.45321771 4.79480408 -11.93887122 3.7901245 -9.125 2.1875 C-7.52011719 1.24970703 -7.52011719 1.24970703 -5.8828125 0.29296875 C-3 -1 -3 -1 0 0 Z " fill="#F8F8F8" transform="translate(298,182)"/>
<path d="M0 0 C4.93913096 0.6072584 9.22499582 2.13260348 13.77734375 4.0546875 C14.50691788 4.35690216 15.236492 4.65911682 15.98817444 4.9704895 C18.3071233 5.93275743 20.62229736 6.90375838 22.9375 7.875 C24.48869479 8.52010263 26.04012507 9.16463932 27.59179688 9.80859375 C31.09846447 11.26616629 34.60423577 12.72571042 38.10324097 14.20159912 C39.39348312 14.74469946 40.68583551 15.28280765 41.98001099 15.81646729 C48.43852287 18.50963936 48.43852287 18.50963936 50 22 C50.76966821 29.6966821 48.98924757 37.02987111 47.47949219 44.54589844 C46.36344829 50.25795201 45.37471934 55.99484808 44.35839844 61.7253418 C44.19629883 62.62679932 44.03419922 63.52825684 43.8671875 64.45703125 C43.72394043 65.26116455 43.58069336 66.06529785 43.43310547 66.89379883 C43 69 43 69 42 72 C39.72886197 71.85899143 37.45809275 71.71203245 35.1875 71.5625 C33.29064453 71.44068359 33.29064453 71.44068359 31.35546875 71.31640625 C28 71 28 71 25 70 C24.67664086 60.29922574 26.24763322 51.27478218 29 42 C28.23333008 42.41886475 27.46666016 42.83772949 26.67675781 43.26928711 C23.82356748 44.82531737 20.9682082 46.37726972 18.11132812 47.92651367 C16.87672257 48.59709363 15.64298744 49.26927876 14.41015625 49.94311523 C12.63512703 50.91293967 10.85666296 51.87646902 9.078125 52.83984375 C8.00981445 53.42113037 6.94150391 54.00241699 5.84082031 54.60131836 C3.49875607 55.75443679 1.54703184 56.52444659 -1 57 C-2.17441535 54.89983377 -3.33964012 52.79541245 -4.5 50.6875 C-4.83386719 50.09259766 -5.16773438 49.49769531 -5.51171875 48.88476562 C-7.06825114 46.04171156 -8 44.29339012 -8 41 C0.58 36.38 9.16 31.76 18 27 C15.62013243 25.41342162 13.73282522 24.3916953 11.12890625 23.34375 C10.38962891 23.04339844 9.65035156 22.74304688 8.88867188 22.43359375 C8.12103516 22.12550781 7.35339844 21.81742188 6.5625 21.5 C5.04239857 20.88682829 3.52284854 20.27228752 2.00390625 19.65625 C0.99565796 19.25116211 0.99565796 19.25116211 -0.03295898 18.83789062 C-2.06761668 17.97119766 -4.03214888 17.0082251 -6 16 C-4.43551329 10.3856009 -2.83604813 5.13189662 0 0 Z " fill="#F9F9F9" transform="translate(255,100)"/>
<path d="M0 0 C4.52615993 3.67832017 8.39424999 7.41086363 12 12 C10.46432511 15.93739898 8.028822 17.85296408 4.75 20.4375 C3.76773438 21.22125 2.78546875 22.005 1.7734375 22.8125 C0.85820313 23.534375 -0.05703125 24.25625 -1 25 C-5.05500899 28.02089565 -5.05500899 28.02089565 -8 32 C-7.2471875 32.03738281 -6.494375 32.07476562 -5.71875 32.11328125 C0.84488661 32.51952575 7.23203165 33.28153035 13.6875 34.5 C14.38230469 34.63059814 15.07710937 34.76119629 15.79296875 34.89575195 C20.72166575 35.86083288 20.72166575 35.86083288 23 37 C23.25706972 42.91260345 22.2982126 48.23918159 21 54 C11.97984204 53.54507029 3.32004579 52.28477149 -5.54296875 50.62109375 C-8.74268359 49.94105673 -8.74268359 49.94105673 -11 50 C-10.63124756 50.61520508 -10.26249512 51.23041016 -9.88256836 51.86425781 C-8.22130508 54.65204635 -6.57928971 57.45070269 -4.9375 60.25 C-4.35677734 61.21808594 -3.77605469 62.18617188 -3.17773438 63.18359375 C-2.63310547 64.11816406 -2.08847656 65.05273438 -1.52734375 66.015625 C-1.01937256 66.87446289 -0.51140137 67.73330078 0.01196289 68.61816406 C1 71 1 71 0.85546875 73.19140625 C-0.64832946 76.37066914 -4.00477008 77.35713378 -7.0625 78.75 C-7.72572266 79.06582031 -8.38894531 79.38164062 -9.07226562 79.70703125 C-10.70884642 80.48411278 -12.35368595 81.24375767 -14 82 C-18.28632315 74.61706151 -18.28632315 74.61706151 -20.22412109 71.25463867 C-22.90773948 66.59867612 -25.61424783 61.9591132 -28.3671875 57.34375 C-29.45323879 55.50006702 -30.53917917 53.65631871 -31.625 51.8125 C-32.14545898 50.95309814 -32.66591797 50.09369629 -33.20214844 49.20825195 C-36.22022801 44.04455368 -38.0129917 40.04114199 -38 34 C-36.953125 31.78515625 -36.953125 31.78515625 -35.25 30.0625 C-34.27546875 29.07056641 -34.27546875 29.07056641 -33.28125 28.05859375 C-29.92192241 25.02714574 -26.44078894 22.17384601 -22.8984375 19.359375 C-19.95347593 16.96212865 -17.16312623 14.45225954 -14.375 11.875 C-9.77552848 7.63951543 -5.01099193 3.73659152 0 0 Z " fill="#F8F8F8" transform="translate(97,147)"/>
<path d="M0 0 C0.78539109 6.18495487 1 11.64793666 1 18 C-8.57 18 -18.14 18 -28 18 C-28 18.66 -28 19.32 -28 20 C-27.42765625 20.23589844 -26.8553125 20.47179687 -26.265625 20.71484375 C-23.48872427 22.29001675 -21.84459674 24.15522065 -19.75 26.5625 C-17.4029794 29.25650538 -15.06533014 31.93137143 -12.6015625 34.51953125 C-11.86679688 35.29683594 -11.13203125 36.07414062 -10.375 36.875 C-9.70210937 37.57367188 -9.02921875 38.27234375 -8.3359375 38.9921875 C-7 41 -7 41 -7.05078125 43.03125 C-8.2529024 45.52453831 -9.69842398 46.84431259 -11.8125 48.625 C-12.49957031 49.21539062 -13.18664062 49.80578125 -13.89453125 50.4140625 C-15.86605423 51.89910579 -17.75823992 52.98239206 -20 54 C-27.46553904 46.6868189 -34.35372356 39.05609265 -41 31 C-43.11620945 39.62002651 -44.77696248 48.20851853 -46 57 C-49.97450493 58.51553092 -53.20481149 57.49888623 -57.25 56.5625 C-58.51328125 56.27503906 -59.7765625 55.98757812 -61.078125 55.69140625 C-62.04234375 55.46324219 -63.0065625 55.23507813 -64 55 C-63.44418895 46.85762308 -62.17191371 38.99545471 -60.5625 31 C-60.12577849 28.79177015 -59.68957553 26.58343769 -59.25390625 24.375 C-59.03750488 23.31023437 -58.82110352 22.24546875 -58.59814453 21.1484375 C-58.20503622 19.0792437 -57.86061472 17.00009654 -57.56982422 14.9140625 C-57.43205566 13.95242187 -57.29428711 12.99078125 -57.15234375 12 C-57.04784912 11.154375 -56.94335449 10.30875 -56.83569336 9.4375 C-55.63138591 5.92484864 -53.89553186 4.29057341 -51 2 C-47.90405273 1.2487793 -47.90405273 1.2487793 -44.43359375 1.07421875 C-43.15170166 0.99993652 -41.86980957 0.9256543 -40.54907227 0.84912109 C-39.17858263 0.79437789 -37.80805738 0.74052002 -36.4375 0.6875 C-35.0415092 0.6168856 -33.6455933 0.54477509 -32.24975586 0.47119141 C-21.50252231 -0.06477647 -10.75796964 -0.23025381 0 0 Z " fill="#F9F9F9" transform="translate(165,84)"/>
<path d="M0 0 C5.94 0.33 11.88 0.66 18 1 C17.73958333 4.22265625 17.47916667 7.4453125 17.21875 10.66796875 C16.84830878 16.43730135 16.96046541 22.22191012 17 28 C17.64549805 27.5560791 18.29099609 27.1121582 18.95605469 26.65478516 C21.8855864 24.64224638 24.81775713 22.63358637 27.75 20.625 C28.76578125 19.92632812 29.7815625 19.22765625 30.828125 18.5078125 C31.8078125 17.8375 32.7875 17.1671875 33.796875 16.4765625 C34.69760742 15.85861816 35.59833984 15.24067383 36.52636719 14.60400391 C38.64097736 13.23280485 40.72015113 12.06548039 43 11 C44.5337173 13.09578135 46.05180837 15.20022537 47.5625 17.3125 C48.21895508 18.20485352 48.21895508 18.20485352 48.88867188 19.11523438 C50.00575136 20.68970073 51.01102259 22.34206919 52 24 C50.74754635 27.75736095 49.40264319 28.37584903 46.16015625 30.57421875 C45.17982422 31.24130859 44.19949219 31.90839844 43.18945312 32.59570312 C42.15755859 33.28599609 41.12566406 33.97628906 40.0625 34.6875 C38.52045898 35.7403418 38.52045898 35.7403418 36.94726562 36.81445312 C29.2722531 42 29.2722531 42 27 42 C27 42.66 27 43.32 27 44 C28.7325 44.3403125 28.7325 44.3403125 30.5 44.6875 C37.80249325 46.29334523 44.8884805 48.71384281 52 51 C52.15205733 55.27027655 51.69886033 58.77889387 50.5 62.875 C50.2215625 63.84179688 49.943125 64.80859375 49.65625 65.8046875 C49.4396875 66.52914062 49.223125 67.25359375 49 68 C41.57700072 66.66449414 34.41072295 64.78262353 27.1875 62.625 C26.13594727 62.31264404 25.08439453 62.00028809 24.00097656 61.6784668 C21.93099696 61.06281253 19.86147921 60.44560274 17.79248047 59.82666016 C15.43059407 59.12746909 13.06484676 58.45151899 10.69140625 57.79296875 C9.55574219 57.46941406 8.42007813 57.14585937 7.25 56.8125 C6.30640625 56.55082031 5.3628125 56.28914063 4.390625 56.01953125 C0.90317479 54.53223631 -1.30743465 52.3851307 -3 49 C-3.79920005 38.85301365 -2.3416572 28.42462523 -1.5 18.3125 C-1.35506455 16.5319339 -1.21053008 14.75133511 -1.06640625 12.97070312 C-0.71629803 8.64666543 -0.35797677 4.32342186 0 0 Z " fill="#F8F8F8" transform="translate(82,237)"/>
<path d="M0 0 C1.24926758 1.44946289 1.24926758 1.44946289 2.64453125 3.47265625 C3.15693359 4.20806641 3.66933594 4.94347656 4.19726562 5.70117188 C4.99680664 6.8700293 4.99680664 6.8700293 5.8125 8.0625 C6.86053692 9.57431593 7.90871257 11.08603569 8.95703125 12.59765625 C9.71814209 13.70197998 9.71814209 13.70197998 10.49462891 14.82861328 C12.63052115 17.90948023 14.81265087 20.95550112 17 24 C18.87333849 21.18999226 19.61679646 19.30931704 20.5078125 16.11328125 C20.90419922 14.7065918 20.90419922 14.7065918 21.30859375 13.27148438 C21.57800781 12.29501953 21.84742188 11.31855469 22.125 10.3125 C22.40214844 9.32443359 22.67929687 8.33636719 22.96484375 7.31835938 C23.64800077 4.88019553 24.32618448 2.44075886 25 0 C31.06533091 0.66178928 36.26634636 1.93946822 42 4 C40.61485354 11.60345711 38.72471968 19.00250124 36.625 26.4375 C36.33367187 27.49259766 36.04234375 28.54769531 35.7421875 29.63476562 C34.29032889 34.80860387 32.75202067 39.94656562 31.0234375 45.03515625 C30.73130371 45.89633057 30.43916992 46.75750488 30.13818359 47.64477539 C28.73944595 50.53916021 27.61497943 52.09792509 25 54 C22.30475852 54.33030013 20.05777095 54.42508635 17.37890625 54.3125 C16.63347061 54.29630615 15.88803497 54.2801123 15.12001038 54.26342773 C12.74489912 54.20217494 10.37347985 54.10670322 8 54 C7.23983582 53.96712891 6.47967163 53.93425781 5.69647217 53.90039062 C0.43936146 53.66078245 -4.81101589 53.33906235 -10.0625 53 C-11.62301732 52.90316832 -13.18356423 52.80681243 -14.74414062 52.7109375 C-18.49653963 52.48026538 -22.24813975 52.23998192 -26 52 C-25.505 43.09 -25.505 43.09 -25 34 C-11.635 34.495 -11.635 34.495 2 35 C-3.90656955 25.68805627 -3.90656955 25.68805627 -10.4375 16.9375 C-15 11.26573806 -15 11.26573806 -15 9 C-12.9055032 7.36570249 -10.82217909 5.85832766 -8.625 4.375 C-8.02171875 3.95476562 -7.4184375 3.53453125 -6.796875 3.1015625 C-2.26537135 0 -2.26537135 0 0 0 Z " fill="#F8F8F8" transform="translate(237,268)"/>
<path d="M0 0 C3.87289575 2.93976735 6.19209432 6.68400651 7.30859375 11.40625 C7.73143713 17.0589983 5.30029045 21.08759855 1.83203125 25.390625 C-0.23046875 27.265625 -0.23046875 27.265625 -2.16796875 28.390625 C-2.74546875 28.7825 -3.32296875 29.174375 -3.91796875 29.578125 C-8.19432041 31.1223631 -12.09498586 31.21141933 -16.2890625 29.55078125 C-21.48494725 26.633621 -24.91385093 22.92813818 -27.16796875 17.390625 C-28.11073339 11.99115479 -27.42126166 9.25597451 -24.60546875 4.578125 C-18.47072117 -3.7547874 -8.74274598 -4.89731727 0 0 Z " fill="#F8F8F7" transform="translate(180.16796875,300.609375)"/>
<path d="M0 0 C0 3.10551666 -0.5393715 4.35261084 -2 7 C-3.32 7 -4.64 7 -6 7 C-4.60667426 3.63279613 -3.0210714 2.0140476 0 0 Z " fill="#232323" transform="translate(95,172)"/>
<path d="M0 0 C0 3 0 3 -2.5 5.6875 C-3.325 6.450625 -4.15 7.21375 -5 8 C-5.66 7.34 -6.32 6.68 -7 6 C-4.69 4.02 -2.38 2.04 0 0 Z " fill="#262626" transform="translate(219,255)"/>
</svg>
