<?xml version="1.0" encoding="UTF-8"?>
<svg version="1.1" xmlns="http://www.w3.org/2000/svg" width="1000" height="1000">
<path d="M0 0 C0.87785156 0.39082764 1.75570312 0.78165527 2.66015625 1.18432617 C3.60632813 1.62752197 4.5525 2.07071777 5.52734375 2.52734375 C7.02201172 3.20277222 7.02201172 3.20277222 8.546875 3.8918457 C11.86197808 5.39706377 15.16364889 6.92938247 18.46484375 8.46484375 C20.26125054 9.29199102 22.05766181 10.11912893 23.85447693 10.94538879 C32.97514877 15.1417503 42.07020163 19.39278881 51.15234375 23.671875 C57.45303434 26.63713364 63.77986664 29.45827132 70.22607422 32.09375 C73.60925306 33.52597768 76.92964839 35.05706144 80.25390625 36.62109375 C81.58868915 37.24712453 82.92365747 37.87276008 84.25878906 38.49804688 C84.94976685 38.82168213 85.64074463 39.14531738 86.35266113 39.47875977 C92.83417734 42.50469099 99.33931956 45.480035 105.83984375 48.46484375 C107.02939667 49.01109909 107.02939667 49.01109909 108.24298096 49.56838989 C140.95515173 64.6269536 140.95515173 64.6269536 173.89599609 79.17480469 C180.86735445 82.18565648 187.75355286 85.34157614 194.61657715 88.59107971 C205.99576485 93.97056608 217.43952145 99.20419035 228.90234375 104.40234375 C230.42386077 105.09302705 231.94534529 105.78378194 233.46679688 106.47460938 C237.13244049 108.1388418 240.79851528 109.80212066 244.46484375 111.46484375 C243.46484375 114.46484375 243.46484375 114.46484375 241.64355469 115.54541016 C240.83692383 115.88233887 240.03029297 116.21926758 239.19921875 116.56640625 C238.2659375 116.96504883 237.33265625 117.36369141 236.37109375 117.77441406 C235.32953125 118.20850586 234.28796875 118.64259766 233.21484375 119.08984375 C230.9166413 120.07372796 228.61985126 121.06091559 226.32421875 122.05078125 C225.70478394 122.31713379 225.08534912 122.58348633 224.44714355 122.85791016 C216.38937969 126.33669524 208.432198 130.03503531 200.46484375 133.71484375 C197.28547007 135.1803689 194.10560882 136.64483498 190.92578125 138.109375 C190.13676422 138.47292587 189.34774719 138.83647675 188.53482056 139.21104431 C180.39512186 142.96041253 172.24639203 146.68977808 164.08984375 150.40234375 C163.40922882 150.71221222 162.72861389 151.02208069 162.02737427 151.34133911 C152.28463259 155.77283053 142.50758282 160.11674535 132.66455078 164.32202148 C128.15353525 166.25586972 123.73962107 168.29374572 119.3659668 170.52026367 C115.67375958 172.3547506 111.86959637 173.93604279 108.08007812 175.55664062 C102.86740779 177.80720709 97.72292514 180.19665661 92.58174133 182.60481262 C84.76892656 186.26357089 76.92984564 189.86479542 69.08984375 193.46484375 C68.29913483 193.82801697 67.5084259 194.19119019 66.6937561 194.56536865 C55.71432751 199.60726076 44.72954573 204.63737717 33.7333374 209.64257812 C32.37611801 210.26038264 31.01905482 210.87853043 29.66217041 211.49707031 C22.3387317 214.83436861 15.0002543 218.13776141 7.640625 221.39453125 C6.9528447 221.70190216 6.26506439 222.00927307 5.55644226 222.32595825 C0.69555195 224.46484375 0.69555195 224.46484375 -1.53515625 224.46484375 C-1.53515625 225.12484375 -1.53515625 225.78484375 -1.53515625 226.46484375 C-0.37628906 226.81160156 0.78257812 227.15835938 1.9765625 227.515625 C8.54810016 229.71125259 14.76808884 232.69699469 21.04159546 235.61331177 C24.93047321 237.42061198 28.82658507 239.21217801 32.72265625 241.00390625 C33.93060097 241.55985222 33.93060097 241.55985222 35.16294861 242.12702942 C42.8774362 245.66983641 50.63637124 249.10884409 58.40316772 252.5350647 C71.15447965 258.16061804 83.82294994 263.9289283 96.42062378 269.89035034 C107.87873774 275.3080465 119.43092226 280.49134164 131.02539062 285.60986328 C142.01812546 290.4641317 152.94089758 295.43919063 163.82275391 300.53833008 C170.18990424 303.51072885 176.57801371 306.42284239 183.00390625 309.265625 C183.75460388 309.59783051 184.50530151 309.93003601 185.27874756 310.27230835 C188.88337093 311.86551444 192.49042124 313.45287627 196.1015625 315.03125 C212.38126429 322.19860695 228.34967174 329.88123339 244.46484375 337.46484375 C244.46484375 412.37484375 244.46484375 487.28484375 244.46484375 564.46484375 C230.46484375 571.46484375 230.46484375 571.46484375 228.46484375 571.46484375 C228.13484375 572.12484375 227.80484375 572.78484375 227.46484375 573.46484375 C225.58225353 574.39170182 223.65737301 575.23374948 221.71484375 576.02734375 C220.668125 576.46175781 219.62140625 576.89617188 218.54296875 577.34375 C215.46484375 578.46484375 215.46484375 578.46484375 212.63671875 578.9921875 C211.56164062 579.22615234 211.56164062 579.22615234 210.46484375 579.46484375 C210.13484375 580.12484375 209.80484375 580.78484375 209.46484375 581.46484375 C207.68994141 582.4387207 207.68994141 582.4387207 205.37890625 583.453125 C204.11445679 584.01422974 204.11445679 584.01422974 202.82446289 584.58666992 C201.92203857 584.97959229 201.01961426 585.37251465 200.08984375 585.77734375 C198.2473552 586.59235606 196.40490692 587.40745943 194.5625 588.22265625 C193.2324292 588.80708496 193.2324292 588.80708496 191.87548828 589.40332031 C189.0834317 590.63279793 186.30309093 591.88650376 183.52734375 593.15234375 C182.70621094 593.52617188 181.88507813 593.9 181.0390625 594.28515625 C177.96927546 595.69194788 174.904584 597.1095928 171.83984375 598.52734375 C164.88691114 601.7376495 157.92574079 604.87127679 150.83984375 607.77734375 C146.42980479 609.60656358 142.09042215 611.54364944 137.76953125 613.57421875 C136.442953 614.1958942 135.11628854 614.81738573 133.78955078 615.4387207 C133.08944885 615.76691803 132.38934692 616.09511536 131.66802979 616.43325806 C125.35002603 619.39150225 119.02216675 622.32844284 112.68994141 625.25610352 C111.01740563 626.03067004 109.34587971 626.80742034 107.67529297 627.58618164 C105.22738193 628.72688453 102.77620792 629.86028264 100.32421875 630.9921875 C99.57742859 631.34208237 98.83063843 631.69197723 98.06121826 632.05247498 C92.80672317 634.46484375 92.80672317 634.46484375 89.46484375 634.46484375 C89.13484375 635.12484375 88.80484375 635.78484375 88.46484375 636.46484375 C86.70852552 637.40879329 84.90894028 638.27339885 83.08984375 639.08984375 C81.62417969 639.75886719 81.62417969 639.75886719 80.12890625 640.44140625 C77.46484375 641.46484375 77.46484375 641.46484375 74.46484375 641.46484375 C74.13484375 642.12484375 73.80484375 642.78484375 73.46484375 643.46484375 C71.02042224 644.64542202 68.59123516 645.73148751 66.08984375 646.77734375 C64.61953013 647.40563832 63.14947864 648.03454665 61.6796875 648.6640625 C60.95765137 648.97134277 60.23561523 649.27862305 59.49169922 649.59521484 C55.11431861 651.47334418 50.79478978 653.48055892 46.46484375 655.46484375 C44.63177994 656.29876978 42.79844269 657.13209501 40.96484375 657.96484375 C38.29580037 659.17736275 35.62715414 660.39065195 32.9609375 661.609375 C24.90049711 665.28887374 16.81364812 668.91350619 8.69433594 672.46142578 C7.15423931 673.15457045 5.62925533 673.8819425 4.11816406 674.63623047 C3.34827148 675.01150879 2.57837891 675.38678711 1.78515625 675.7734375 C1.09953613 676.12075928 0.41391602 676.46808105 -0.29248047 676.82592773 C-6.02778377 678.45985858 -11.32294028 675.41390716 -16.40625 673 C-17.15712387 672.65097122 -17.90799774 672.30194244 -18.68162537 671.94233704 C-20.28518812 671.19624546 -21.88726961 670.44696326 -23.48797607 669.69476318 C-27.66481867 667.73228638 -31.85236568 665.79290449 -36.0390625 663.8515625 C-36.86353882 663.46856995 -37.68801514 663.08557739 -38.53747559 662.690979 C-45.94333427 659.25782525 -53.40431404 655.96987522 -60.91577148 652.77368164 C-67.83640171 649.81765457 -74.64503064 646.63640932 -81.45617676 643.43896484 C-101.45696734 634.06744768 -121.52872962 624.85018827 -141.72265625 615.90234375 C-142.47208496 615.57007782 -143.22151367 615.23781189 -143.99365234 614.89547729 C-149.99760424 612.23434455 -156.0034681 609.57760735 -162.015625 606.93505859 C-164.92019319 605.65828116 -167.82168967 604.37477619 -170.72265625 603.08984375 C-171.93441528 602.5628186 -171.93441528 602.5628186 -173.1706543 602.02514648 C-178.42174997 599.6916563 -178.42174997 599.6916563 -179.53515625 597.46484375 C-181.19876112 597.11655116 -182.86624453 596.78674833 -184.53515625 596.46484375 C-186.70447269 595.59323411 -188.85146801 594.6651344 -190.98046875 593.69921875 C-191.59099091 593.42394348 -192.20151306 593.14866821 -192.83053589 592.86505127 C-194.77598256 591.98650244 -196.71807965 591.10081349 -198.66015625 590.21484375 C-199.94119145 589.63494193 -201.2224398 589.05551073 -202.50390625 588.4765625 C-205.01967867 587.33886988 -207.53390544 586.19787333 -210.04663086 585.0534668 C-212.16371669 584.08937711 -214.28152046 583.12685911 -216.40063477 582.16723633 C-224.03085896 578.71149589 -231.62749319 575.18422669 -239.22265625 571.65234375 C-240.52146498 571.04878638 -241.82029299 570.44527051 -243.11914062 569.84179688 C-246.25803425 568.38328929 -249.39666912 566.92422588 -252.53515625 565.46484375 C-252.53515625 564.47484375 -252.53515625 563.48484375 -252.53515625 562.46484375 C-251.64376953 562.08730957 -251.64376953 562.08730957 -250.734375 561.70214844 C-248.0001767 560.54234659 -245.26766421 559.37862217 -242.53515625 558.21484375 C-241.13330078 557.62123047 -241.13330078 557.62123047 -239.703125 557.015625 C-234.85374124 554.94700675 -230.09419352 552.79119491 -225.39892578 550.39404297 C-221.72143533 548.56059672 -217.92731256 546.98825786 -214.15039062 545.37304688 C-208.93772029 543.12248041 -203.79323764 540.73303089 -198.65205383 538.32487488 C-190.83924074 534.6661174 -183.0002325 531.06472701 -175.16015625 527.46484375 C-174.36712097 527.10067352 -173.57408569 526.7365033 -172.75701904 526.36129761 C-124.2314788 504.08281181 -124.2314788 504.08281181 -106.73486328 496.60766602 C-103.05431907 495.0298364 -99.40864251 493.43522778 -95.83984375 491.6171875 C-89.57325006 488.42886576 -83.12808708 485.61036931 -76.72265625 482.71484375 C-73.76916473 481.37711021 -70.81619475 480.03822764 -67.86328125 478.69921875 C-67.10305161 478.35463623 -66.34282196 478.01005371 -65.55955505 477.6550293 C-60.08250212 475.17103275 -54.6118412 472.67333027 -49.14453125 470.16796875 C-48.3740596 469.81502747 -47.60358795 469.46208618 -46.80976868 469.09844971 C-43.81204871 467.72502094 -40.81439953 466.35144599 -37.81796265 464.97521973 C-27.77073108 460.36096798 -17.67813784 455.86474018 -7.53515625 451.46484375 C-8.84383667 450.78893188 -8.84383667 450.78893188 -10.17895508 450.09936523 C-12.25992839 449.02457682 -14.34090169 447.94978841 -16.421875 446.875 C-19.19749672 445.61778615 -21.53787751 444.90414806 -24.53515625 444.46484375 C-24.53515625 443.80484375 -24.53515625 443.14484375 -24.53515625 442.46484375 C-26.51515625 442.13484375 -28.49515625 441.80484375 -30.53515625 441.46484375 C-30.53515625 440.80484375 -30.53515625 440.14484375 -30.53515625 439.46484375 C-31.23640625 439.34109375 -31.93765625 439.21734375 -32.66015625 439.08984375 C-35.71172012 438.4264603 -38.58856563 437.4927242 -41.53515625 436.46484375 C-41.53515625 435.80484375 -41.53515625 435.14484375 -41.53515625 434.46484375 C-42.61216797 434.28888672 -42.61216797 434.28888672 -43.7109375 434.109375 C-46.63957037 433.4410148 -49.01515334 432.44410659 -51.72265625 431.15234375 C-56.92214824 428.72214641 -62.18599994 426.54184804 -67.53515625 424.46484375 C-67.53515625 423.80484375 -67.53515625 423.14484375 -67.53515625 422.46484375 C-68.82099609 422.30628906 -68.82099609 422.30628906 -70.1328125 422.14453125 C-73.77873802 421.41618333 -76.6292073 420.20336893 -79.97265625 418.58984375 C-83.55105787 416.88039018 -87.10505055 415.19298144 -90.78515625 413.71484375 C-93.53515625 412.46484375 -93.53515625 412.46484375 -94.53515625 410.46484375 C-95.38078125 410.34109375 -96.22640625 410.21734375 -97.09765625 410.08984375 C-100.55401606 409.46141469 -103.11183698 408.24484769 -106.21411133 406.65039062 C-110.46526244 404.47898116 -114.78787306 402.454182 -119.09765625 400.40234375 C-120.00451172 399.96857422 -120.91136719 399.53480469 -121.84570312 399.08789062 C-125.61719709 397.29102947 -129.38377659 395.50196184 -133.23046875 393.87109375 C-136.81400432 392.346185 -140.33005466 390.69647299 -143.84765625 389.02734375 C-148.09695434 387.02352906 -152.33601299 385.09169827 -156.72265625 383.40234375 C-161.51711752 381.54975755 -166.02523555 379.2342301 -170.6015625 376.90234375 C-173.98444216 375.24468767 -177.42335295 373.87124058 -180.93359375 372.51171875 C-189.96399597 368.8778632 -198.70233367 364.44552256 -207.50463867 360.29272461 C-211.79499745 358.27215437 -216.0979872 356.29114095 -220.44140625 354.38671875 C-225.77347716 352.03901589 -231.06204224 349.59209185 -236.36328125 347.17578125 C-237.74773437 346.54542969 -237.74773437 346.54542969 -239.16015625 345.90234375 C-239.97742188 345.52980469 -240.7946875 345.15726562 -241.63671875 344.7734375 C-245.59498488 342.98634969 -249.56648273 341.22869865 -253.53515625 339.46484375 C-253.53515625 264.22484375 -253.53515625 188.98484375 -253.53515625 111.46484375 C-244.51759686 107.25664937 -235.51489821 103.09250532 -226.41015625 99.08984375 C-215.36497868 94.20723528 -204.37829863 89.20529581 -193.41015625 84.15234375 C-192.63050507 83.79319885 -191.85085388 83.43405396 -191.0475769 83.06402588 C-190.26609283 82.70403503 -189.48460876 82.34404419 -188.67944336 81.97314453 C-187.09881281 81.24507975 -185.51816503 80.51705241 -183.9375 79.7890625 C-183.15543686 79.42887024 -182.37337372 79.06867798 -181.56761169 78.6975708 C-173.38027207 74.92917756 -165.17865289 71.19240509 -156.97265625 67.46484375 C-155.94072144 66.99599258 -155.94072144 66.99599258 -154.88793945 66.51766968 C-145.93647453 62.45171172 -136.97508671 58.40827188 -128.00390625 54.38598633 C-123.4728236 52.35038777 -118.96610698 50.27017936 -114.47265625 48.15234375 C-107.83234663 45.02394706 -101.12416345 42.05616688 -94.41015625 39.08984375 C-83.36583534 34.20523152 -72.37838342 29.2052201 -61.41015625 24.15234375 C-58.27216943 22.70695737 -55.13417502 21.26158754 -51.99609375 19.81640625 C-51.21712738 19.45765915 -50.43816101 19.09891205 -49.6355896 18.72929382 C-41.83630907 15.13946936 -34.02661871 11.572658 -26.21148682 8.01748657 C-24.77390871 7.36344639 -23.33652691 6.70897457 -21.89935303 6.05404663 C-19.91391266 5.14941746 -17.92777805 4.24633177 -15.94140625 3.34375 C-14.82056641 2.83400635 -13.69972656 2.3242627 -12.54492188 1.79907227 C-11.55169922 1.35877686 -10.55847656 0.91848145 -9.53515625 0.46484375 C-8.23976929 -0.16671631 -8.23976929 -0.16671631 -6.91821289 -0.81103516 C-3.91868859 -1.72247754 -2.82258007 -1.28892731 0 0 Z " fill="#1CDFBA" transform="translate(504.53515625,161.53515625)"/>
<path d="M0 0 C0 74.91 0 149.82 0 227 C-14 234 -14 234 -16 234 C-16.33 234.66 -16.66 235.32 -17 236 C-18.88259022 236.92685807 -20.80747074 237.76890573 -22.75 238.5625 C-23.79671875 238.99691406 -24.8434375 239.43132812 -25.921875 239.87890625 C-29 241 -29 241 -31.828125 241.52734375 C-32.54484375 241.68332031 -33.2615625 241.83929687 -34 242 C-34.33 242.66 -34.66 243.32 -35 244 C-36.77490234 244.97387695 -36.77490234 244.97387695 -39.0859375 245.98828125 C-39.92890381 246.36235107 -40.77187012 246.7364209 -41.64038086 247.12182617 C-42.54280518 247.51474854 -43.44522949 247.9076709 -44.375 248.3125 C-46.21748855 249.12751231 -48.05993683 249.94261568 -49.90234375 250.7578125 C-50.78905762 251.14743164 -51.67577148 251.53705078 -52.58935547 251.93847656 C-55.38141205 253.16795418 -58.16175282 254.42166001 -60.9375 255.6875 C-61.75863281 256.06132813 -62.57976562 256.43515625 -63.42578125 256.8203125 C-66.49556829 258.22710413 -69.56025975 259.64474905 -72.625 261.0625 C-79.57793261 264.27280575 -86.53910296 267.40643304 -93.625 270.3125 C-98.03503896 272.14171983 -102.3744216 274.07880569 -106.6953125 276.109375 C-108.02189075 276.73105045 -109.34855521 277.35254198 -110.67529297 277.97387695 C-111.3753949 278.30207428 -112.07549683 278.63027161 -112.79681396 278.96841431 C-119.11481772 281.9266585 -125.442677 284.86359909 -131.77490234 287.79125977 C-133.44743812 288.56582629 -135.11896404 289.34257659 -136.78955078 290.12133789 C-139.23746182 291.26204078 -141.68863583 292.39543889 -144.140625 293.52734375 C-144.88741516 293.87723862 -145.63420532 294.22713348 -146.40362549 294.58763123 C-151.65812058 297 -151.65812058 297 -155 297 C-155.33 297.66 -155.66 298.32 -156 299 C-157.75631823 299.94394954 -159.55590347 300.8085551 -161.375 301.625 C-162.35210938 302.07101562 -163.32921875 302.51703125 -164.3359375 302.9765625 C-167 304 -167 304 -170 304 C-170.33 304.66 -170.66 305.32 -171 306 C-173.44442151 307.18057827 -175.87360859 308.26664376 -178.375 309.3125 C-179.84531362 309.94079457 -181.31536511 310.5697029 -182.78515625 311.19921875 C-183.50719238 311.50649902 -184.22922852 311.8137793 -184.97314453 312.13037109 C-189.35052514 314.00850043 -193.67005397 316.01571517 -198 318 C-199.83306381 318.83392603 -201.66640106 319.66725126 -203.5 320.5 C-206.16904338 321.712519 -208.83768961 322.9258082 -211.50390625 324.14453125 C-219.56434664 327.82402999 -227.65119563 331.44866244 -235.77050781 334.99658203 C-237.31060444 335.6897267 -238.83558842 336.41709875 -240.34667969 337.17138672 C-241.11657227 337.54666504 -241.88646484 337.92194336 -242.6796875 338.30859375 C-243.36530762 338.65591553 -244.05092773 339.0032373 -244.75732422 339.36108398 C-250.49262752 340.99501483 -255.78778403 337.94906341 -260.87109375 335.53515625 C-261.62196762 335.18612747 -262.37284149 334.83709869 -263.14646912 334.47749329 C-264.75003187 333.73140171 -266.35211336 332.98211951 -267.95281982 332.22991943 C-272.12966242 330.26744263 -276.31720943 328.32806074 -280.50390625 326.38671875 C-281.74062073 325.81222992 -281.74062073 325.81222992 -283.00231934 325.22613525 C-290.40817802 321.7929815 -297.86915779 318.50503147 -305.38061523 315.30883789 C-312.30124546 312.35281082 -319.10987439 309.17156557 -325.92102051 305.97412109 C-345.92181109 296.60260393 -365.99357337 287.38534452 -386.1875 278.4375 C-386.93692871 278.10523407 -387.68635742 277.77296814 -388.45849609 277.43063354 C-394.46244799 274.7695008 -400.46831185 272.1127636 -406.48046875 269.47021484 C-409.38503694 268.19343741 -412.28653342 266.90993244 -415.1875 265.625 C-415.99533936 265.2736499 -416.80317871 264.9222998 -417.63549805 264.56030273 C-422.88659372 262.22681255 -422.88659372 262.22681255 -424 260 C-425.66360487 259.65170741 -427.33108828 259.32190458 -429 259 C-431.16931644 258.12839036 -433.31631176 257.20029065 -435.4453125 256.234375 C-436.05583466 255.95909973 -436.66635681 255.68382446 -437.29537964 255.40020752 C-439.24082631 254.52165869 -441.1829234 253.63596974 -443.125 252.75 C-444.4060352 252.17009818 -445.68728355 251.59066698 -446.96875 251.01171875 C-449.48452242 249.87402613 -451.99874919 248.73302958 -454.51147461 247.58862305 C-456.62856044 246.62453336 -458.74636421 245.66201536 -460.86547852 244.70239258 C-468.49570271 241.24665214 -476.09233694 237.71938294 -483.6875 234.1875 C-484.98630873 233.58394263 -486.28513674 232.98042676 -487.58398438 232.37695312 C-490.722878 230.91844554 -493.86151287 229.45938213 -497 228 C-497 227.01 -497 226.02 -497 225 C-496.40574219 224.74831055 -495.81148437 224.49662109 -495.19921875 224.23730469 C-492.46502045 223.07750284 -489.73250796 221.91377842 -487 220.75 C-486.06542969 220.35425781 -485.13085938 219.95851563 -484.16796875 219.55078125 C-479.31858499 217.482163 -474.55903727 215.32635116 -469.86376953 212.92919922 C-466.18627908 211.09575297 -462.39215631 209.52341411 -458.61523438 207.90820312 C-453.40256404 205.65763666 -448.25808139 203.26818714 -443.11689758 200.86003113 C-435.30408449 197.20127365 -427.46507625 193.59988326 -419.625 190 C-418.83196472 189.63582977 -418.03892944 189.27165955 -417.22186279 188.89645386 C-368.69632255 166.61796806 -368.69632255 166.61796806 -351.19970703 159.14282227 C-347.51916282 157.56499265 -343.87348626 155.97038403 -340.3046875 154.15234375 C-334.03809381 150.96402201 -327.59293083 148.14552556 -321.1875 145.25 C-318.23400848 143.91226646 -315.2810385 142.57338389 -312.328125 141.234375 C-311.56789536 140.88979248 -310.80766571 140.54520996 -310.0243988 140.19018555 C-304.54734587 137.706189 -299.07668495 135.20848652 -293.609375 132.703125 C-292.83890335 132.35018372 -292.0684317 131.99724243 -291.27461243 131.63360596 C-288.27689246 130.26017719 -285.27924328 128.88660224 -282.2828064 127.51037598 C-270.27007748 121.99345771 -258.22810922 116.54516338 -246 111.51953125 C-239.31927764 108.75575327 -232.76298814 105.7297491 -226.19940186 102.70175171 C-213.30483241 96.75543541 -200.36520349 90.92153009 -187.375 85.1875 C-173.4695868 79.04655299 -159.66573577 72.70404114 -145.88787842 66.28256226 C-133.25035689 60.39542901 -120.55808784 54.65418707 -107.80126953 49.03076172 C-94.7627913 43.27857688 -81.82886137 37.31656874 -68.91342163 31.29382324 C-54.99671042 24.80710463 -41.01150537 18.49384714 -26.9453125 12.33789062 C-19.03801062 8.86639785 -11.27365675 5.21406786 -3.58666992 1.27636719 C-1 0 -1 0 0 0 Z " fill="#FE5C82" transform="translate(749,499)"/>
<path d="M0 0 C1.10585449 0.47800049 2.21170898 0.95600098 3.35107422 1.44848633 C6.64992387 2.9198987 9.90569045 4.47188252 13.15579224 6.04760742 C16.71296603 7.77148093 20.28455889 9.46496679 23.85546875 11.16015625 C24.55965439 11.49520172 25.26384003 11.83024719 25.98936462 12.17544556 C32.53137742 15.2769555 39.15283834 18.16831621 45.83886719 20.94555664 C51.94650526 23.49397599 57.9344394 26.27812677 63.92358398 29.09033203 C68.04929467 31.02682036 72.18694696 32.93669401 76.328125 34.83984375 C77.04176712 35.16785477 77.75540924 35.49586578 78.49067688 35.83381653 C80.74357589 36.86883281 82.99675737 37.90323202 85.25 38.9375 C86.04247131 39.30138824 86.83494263 39.66527649 87.65142822 40.04019165 C93.43351218 42.69514804 99.21647305 45.34818859 105 48 C105.77154419 48.35376709 106.54308838 48.70753418 107.3380127 49.07202148 C143.50044701 65.65281008 143.50044701 65.65281008 179.8125 81.90234375 C182.854276 83.24714874 185.89597764 84.59212143 188.9375 85.9375 C189.68325287 86.26733887 190.42900574 86.59717773 191.19735718 86.93701172 C207.24806398 94.04425224 223.14221203 101.47360455 239 109 C239 109.99 239 110.98 239 112 C221.50552148 120.04551988 203.99025915 128.034512 186.375 135.8125 C172.46977146 141.95388041 158.66574652 148.29595385 144.88787842 154.71743774 C132.25035689 160.60457099 119.55808784 166.34581293 106.80126953 171.96923828 C94.63331877 177.33737255 82.5543275 182.88173599 70.5 188.5 C55.84059864 195.33183519 41.1347645 202.04117953 26.32104492 208.5324707 C19.88561439 211.35614835 13.49074056 214.20818149 7.1875 217.3203125 C6.17840576 217.81072021 5.16931152 218.30112793 4.12963867 218.80639648 C2.33339606 219.68700524 0.5481052 220.59057667 -1.22143555 221.52368164 C-5.59972738 223.65308434 -8.15605266 224.35855035 -12.87890625 222.83984375 C-16.34260027 221.41283466 -19.65034586 219.67482707 -23 218 C-25.73572585 217.30092586 -25.73572585 217.30092586 -28 217 C-28 216.34 -28 215.68 -28 215 C-29.98 214.67 -31.96 214.34 -34 214 C-34 213.34 -34 212.68 -34 212 C-34.70125 211.87625 -35.4025 211.7525 -36.125 211.625 C-39.17656387 210.96161655 -42.05340938 210.02788045 -45 209 C-45 208.34 -45 207.68 -45 207 C-46.07701172 206.82404297 -46.07701172 206.82404297 -47.17578125 206.64453125 C-50.10441412 205.97617105 -52.47999709 204.97926284 -55.1875 203.6875 C-60.38699199 201.25730266 -65.65084369 199.07700429 -71 197 C-71 196.34 -71 195.68 -71 195 C-71.85722656 194.89429688 -72.71445312 194.78859375 -73.59765625 194.6796875 C-77.24358177 193.95133958 -80.09405105 192.73852518 -83.4375 191.125 C-87.01590162 189.41554643 -90.5698943 187.72813769 -94.25 186.25 C-97 185 -97 185 -98 183 C-98.845625 182.87625 -99.69125 182.7525 -100.5625 182.625 C-104.01885981 181.99657094 -106.57668073 180.78000394 -109.67895508 179.18554688 C-113.93010619 177.01413741 -118.25271681 174.98933825 -122.5625 172.9375 C-123.46935547 172.50373047 -124.37621094 172.06996094 -125.31054688 171.62304688 C-129.08204084 169.82618572 -132.84862034 168.03711809 -136.6953125 166.40625 C-140.27884807 164.88134125 -143.79489841 163.23162924 -147.3125 161.5625 C-151.56179809 159.55868531 -155.80085674 157.62685452 -160.1875 155.9375 C-164.98196127 154.0849138 -169.4900793 151.76938635 -174.06640625 149.4375 C-177.44928591 147.77984392 -180.8881967 146.40639683 -184.3984375 145.046875 C-193.42883972 141.41301945 -202.16717742 136.98067881 -210.96948242 132.82788086 C-215.2598412 130.80731062 -219.56283095 128.8262972 -223.90625 126.921875 C-229.23832091 124.57417214 -234.52688599 122.1272481 -239.828125 119.7109375 C-245.53905009 117.11071183 -251.26055891 114.53669125 -257 112 C-254.81869147 109.57861035 -252.87330111 108.31447878 -249.875 107.0625 C-249.07578125 106.7221875 -248.2765625 106.381875 -247.453125 106.03125 C-246.64359375 105.6909375 -245.8340625 105.350625 -245 105 C-243.53997388 104.3580027 -242.08160995 103.71221091 -240.625 103.0625 C-239.51125 102.5675 -239.51125 102.5675 -238.375 102.0625 C-232.99479624 99.65556674 -227.63091719 97.21165627 -222.27734375 94.74609375 C-216.48198759 92.08606697 -210.64420829 89.58756613 -204.7265625 87.2109375 C-201.99526399 85.99789661 -199.54403705 84.56197948 -197 83 C-193.96623997 81.63183371 -190.92879135 80.35453863 -187.8203125 79.16796875 C-182.24687209 77.02082367 -176.97486181 74.50261638 -171.66137695 71.77612305 C-167.07208254 69.4566705 -162.3987413 67.46927954 -157.625 65.5625 C-151.24769261 63.01172079 -145.14267077 60.13557284 -139.03979492 56.98950195 C-133.43692015 54.1357304 -127.70160566 51.71909072 -121.84570312 49.43359375 C-117.29851505 47.6359712 -113.21578539 45.47927111 -109 43 C-106.68020619 41.96898053 -104.34570085 40.97063483 -102 40 C-95.30153661 37.07101411 -88.65252174 34.03141226 -82 31 C-80.1667556 30.16647103 -78.33342277 29.33313656 -76.5 28.5 C-75.58476562 28.08363281 -74.66953125 27.66726563 -73.7265625 27.23828125 C-71.97243135 26.4416343 -70.21730045 25.64718312 -68.4609375 24.85546875 C-61.9738518 21.92550104 -55.53051015 18.90826664 -49.10107422 15.85424805 C-45.46394371 14.13276377 -41.81219701 12.49192647 -38.10351562 10.92871094 C-35.28196815 9.68298594 -32.50886901 8.34270524 -29.7265625 7.01171875 C-27.35946149 5.90346108 -24.99227154 4.79539335 -22.625 3.6875 C-21.44421875 3.11193359 -20.2634375 2.53636719 -19.046875 1.94335938 C-11.89903391 -1.35595035 -7.34509992 -3.21846814 0 0 Z " fill="#0D7ACC" transform="translate(508,389)"/>
<path d="M0 0 C6.3360091 1.90080273 11.93742118 3.66274139 17.8046875 6.44921875 C18.51358627 6.77864975 19.22248505 7.10808075 19.9528656 7.44749451 C21.47230555 8.15416646 22.99040135 8.86373475 24.50723267 9.57598877 C28.61401935 11.50385535 32.73118108 13.4093367 36.84765625 15.31640625 C37.69247055 15.70834167 38.53728485 16.1002771 39.40769958 16.50408936 C47.99762463 20.48026781 56.65110442 24.30775187 65.3125 28.125 C77.27104288 33.401874 89.14162828 38.83478567 100.95632935 44.42578125 C112.41426123 49.84338161 123.96626666 55.02658095 135.56054688 60.14501953 C146.55178542 64.99862721 157.47297203 69.97321258 168.35351562 75.07128906 C177.76487096 79.46451189 187.24874914 83.68067692 196.75 87.875 C213.62379206 95.32419055 230.33711347 103.09149009 247 111 C247 111.99 247 112.98 247 114 C229.50552148 122.04551988 211.99025915 130.034512 194.375 137.8125 C180.46977146 143.95388041 166.66574652 150.29595385 152.88787842 156.71743774 C140.25035689 162.60457099 127.55808784 168.34581293 114.80126953 173.96923828 C101.7611184 179.72216115 88.8261086 185.68604555 75.90838623 191.70819092 C62.04793215 198.1665762 48.11535107 204.44185624 34.12329102 210.609375 C25.40135003 214.45834926 16.72957225 218.38464028 8.18408203 222.61572266 C3.30720521 225 3.30720521 225 0 225 C0 150.75 0 76.5 0 0 Z " fill="#0098FE" transform="translate(500,387)"/>
<path d="" fill="#7D98B0" transform="translate(0,0)"/>
</svg>
