<?xml version="1.0" encoding="UTF-8"?>
<svg version="1.1" xmlns="http://www.w3.org/2000/svg" width="293" height="227">
<path d="M0 0 C96.69 0 193.38 0 293 0 C293 74.91 293 149.82 293 227 C196.31 227 99.62 227 0 227 C0 152.09 0 77.18 0 0 Z " fill="#FBFBFB" transform="translate(0,0)"/>
<path d="M0 0 C4.95 0 9.9 0 15 0 C15 72.93 15 145.86 15 221 C-81.69 221 -178.38 221 -278 221 C-278 211.43 -278 201.86 -278 192 C-276.68 192 -275.36 192 -274 192 C-274 200.91 -274 209.82 -274 219 C-265.09 219 -256.18 219 -247 219 C-247 210.09 -247 201.18 -247 192 C-238.09 192 -229.18 192 -220 192 C-220 183.09 -220 174.18 -220 165 C-228.91 165 -237.82 165 -247 165 C-247.0309375 158.3484375 -247.0309375 158.3484375 -247.0625 151.5625 C-247.071604 150.16201416 -247.08070801 148.76152832 -247.09008789 147.31860352 C-247.09258545 146.22475342 -247.09508301 145.13090332 -247.09765625 144.00390625 C-247.10551147 142.31503296 -247.10551147 142.31503296 -247.11352539 140.59204102 C-247 138 -247 138 -246 137 C-242.7400116 136.63918575 -239.46475746 136.62854619 -236.1875 136.5625 C-235.27162109 136.51673828 -234.35574219 136.47097656 -233.41210938 136.42382812 C-230.81583806 136.38033633 -228.53494995 136.43229163 -226 137 C-222.73759391 140.49360022 -221.22118176 144.51243473 -219.5 148.9375 C-216.67582519 157.10782003 -216.67582519 157.10782003 -211 163 C-210.67 163.99 -210.34 164.98 -210 166 C-208.515 166.99 -208.515 166.99 -207 168 C-206.566875 168.7425 -206.13375 169.485 -205.6875 170.25 C-204.18913652 172.69177753 -202.85021706 174.23110029 -200.8125 176.1875 C-198 179 -198 179 -198 181 C-197.443125 181.2475 -196.88625 181.495 -196.3125 181.75 C-192.6491177 183.73020665 -189.63334073 186.47479061 -186.4375 189.125 C-184.33263654 190.74412574 -182.41516586 191.92659295 -180 193 C-180 193.66 -180 194.32 -180 195 C-179.05125 195.144375 -178.1025 195.28875 -177.125 195.4375 C-174 196 -174 196 -172 197 C-172 197.66 -172 198.32 -172 199 C-168.7 199.66 -165.4 200.32 -162 201 C-162 201.66 -162 202.32 -162 203 C-160.2365625 203.185625 -160.2365625 203.185625 -158.4375 203.375 C-155.65499684 203.71671091 -153.27890212 204.20977393 -150.5625 205 C-143.13001338 207.08631203 -135.55234973 207.16497504 -127.875 207.125 C-126.96790283 207.12306641 -126.06080566 207.12113281 -125.1262207 207.11914062 C-117.38640071 207.07003788 -109.71087136 206.66330076 -102 206 C-102 205.34 -102 204.68 -102 204 C-101.43152344 203.89042969 -100.86304688 203.78085938 -100.27734375 203.66796875 C-96.3857432 202.86885879 -92.75484317 202.01503621 -89.125 200.375 C-86 199 -86 199 -83 199 C-83 198.34 -83 197.68 -83 197 C-82.18015625 196.60167969 -81.3603125 196.20335937 -80.515625 195.79296875 C-79.43796875 195.26316406 -78.3603125 194.73335937 -77.25 194.1875 C-76.18265625 193.66542969 -75.1153125 193.14335937 -74.015625 192.60546875 C-71.03887543 191.11982421 -71.03887543 191.11982421 -68.734375 189.30078125 C-67 188 -67 188 -65 188 C-64.67 187.01 -64.34 186.02 -64 185 C-61.9375 184.3125 -61.9375 184.3125 -60 184 C-60 183.34 -60 182.68 -60 182 C-58.52295788 180.74772516 -57.04172601 179.49833478 -55.5078125 178.31640625 C-53.73237056 176.88235909 -53.73237056 176.88235909 -52 174 C-51.34 174 -50.68 174 -50 174 C-49.79375 173.34 -49.5875 172.68 -49.375 172 C-47.50875748 167.92819814 -45.02438473 164.31203002 -42 161 C-41.34 161 -40.68 161 -40 161 C-39.69255859 159.96939453 -39.69255859 159.96939453 -39.37890625 158.91796875 C-38.97478516 157.56638672 -38.97478516 157.56638672 -38.5625 156.1875 C-38.29566406 155.29417969 -38.02882812 154.40085938 -37.75390625 153.48046875 C-37.19612127 151.64526945 -36.60655425 149.81966274 -36 148 C-35.34 148 -34.68 148 -34 148 C-33.67 145.69 -33.34 143.38 -33 141 C-32.34 141 -31.68 141 -31 141 C-30.67 138.36 -30.34 135.72 -30 133 C-29.34 133 -28.68 133 -28 133 C-27.17801452 123.98250101 -26.84502349 115.05290496 -26.875 106 C-26.87113281 104.83210938 -26.86726562 103.66421875 -26.86328125 102.4609375 C-26.87199857 94.59791286 -27.28626779 86.82991873 -28 79 C-28.66 79 -29.32 79 -30 79 C-32.10396411 73.06682122 -33.75971762 67.17222879 -35 61 C-35.66 61 -36.32 61 -37 61 C-37.66 58.69 -38.32 56.38 -39 54 C-35.37 54.33 -31.74 54.66 -28 55 C-28 46.09 -28 37.18 -28 28 C-19.09 28 -10.18 28 -1 28 C-1.03959401 19.15927137 -1.03959401 19.15927137 -1.09008789 10.31860352 C-1.09383423 8.67782837 -1.09383423 8.67782837 -1.09765625 7.00390625 C-1.10551147 5.31503296 -1.10551147 5.31503296 -1.11352539 3.59204102 C-1 1 -1 1 0 0 Z " fill="#F4F4F4" transform="translate(278,6)"/>
<path d="M0 0 C0 0.66 0 1.32 0 2 C1.6396875 2.2165625 1.6396875 2.2165625 3.3125 2.4375 C9.05175479 3.31297954 11.00130126 4.90133379 15 9 C15.99 9.66 16.98 10.32 18 11 C18 11.66 18 12.32 18 13 C18.99 13.33 19.98 13.66 21 14 C21.33 14.99 21.66 15.98 22 17 C22.66 17.33 23.32 17.66 24 18 C25.44512404 21.6128101 26 24.06687842 26 28 C26.66 28 27.32 28 28 28 C28.33 32.29 28.66 36.58 29 41 C28.34 41 27.68 41 27 41 C27.0309375 42.85625 27.0309375 42.85625 27.0625 44.75 C27.06766681 47.6640825 26.93015558 50.20953327 26 53 C25.34 53 24.68 53 24 53 C23.7834375 54.175625 23.7834375 54.175625 23.5625 55.375 C23 58 23 58 22 60 C21.34 60 20.68 60 20 60 C19.731875 60.7425 19.46375 61.485 19.1875 62.25 C17.67310174 65.75702755 16.27667266 68.20207959 13 70.25 C11 71 11 71 8 71 C8 71.66 8 72.32 8 73 C3.09714609 75.60274961 -1.10509318 77.20176183 -6.6875 77.5 C-11.69537023 77.7879701 -14.21817905 78.71578707 -18 82 C-18.33 82.66 -18.66 83.32 -19 84 C-21.64 85.32 -24.28 86.64 -27 88 C-27.33 81.73 -27.66 75.46 -28 69 C-36.58 69.33 -45.16 69.66 -54 70 C-54 78.58 -54 87.16 -54 96 C-49.71 96 -45.42 96 -41 96 C-41.495 97.98 -41.495 97.98 -42 100 C-43.65 100.33 -45.3 100.66 -47 101 C-46.97679687 101.64066406 -46.95359375 102.28132813 -46.9296875 102.94140625 C-46.81612266 108.384407 -47.04447758 112.89391368 -49 118 C-49.99 118.495 -49.99 118.495 -51 119 C-52.01866229 120.65532623 -53.01810813 122.32260138 -54 124 C-54.66 124.66 -55.32 125.32 -56 126 C-56.99 126 -57.98 126 -59 126 C-59.33 126.99 -59.66 127.98 -60 129 C-66.48194105 132.83023789 -72.60312833 133.49409359 -80 133 C-80.66 132.67 -81.32 132.34 -82 132 C-82 129.36 -82 126.72 -82 124 C-80.80503906 124.01740234 -80.80503906 124.01740234 -79.5859375 124.03515625 C-71.74521011 124.11851557 -71.74521011 124.11851557 -64 123 C-64 122.34 -64 121.68 -64 121 C-63.01 120.67 -62.02 120.34 -61 120 C-59.29144978 116.99992729 -59.29144978 116.99992729 -58 114 C-57.34 114 -56.68 114 -56 114 C-55.89123018 111.14479219 -55.81233534 108.29379439 -55.75 105.4375 C-55.71648437 104.63763672 -55.68296875 103.83777344 -55.6484375 103.01367188 C-55.53874154 96.29479405 -57.23592416 92.4851391 -61.4375 87.1875 C-65.29781549 84.25366023 -69.07104941 83.76074818 -73.8125 83.875 C-75.27623047 83.90207031 -75.27623047 83.90207031 -76.76953125 83.9296875 C-77.50558594 83.95289063 -78.24164063 83.97609375 -79 84 C-77.68 84.33 -76.36 84.66 -75 85 C-75 85.66 -75 86.32 -75 87 C-74.278125 87.103125 -73.55625 87.20625 -72.8125 87.3125 C-67.95178323 88.50067521 -64.10040915 91.06486531 -61 95 C-61.25 97.25 -61.25 97.25 -62 99 C-62.33 98.34 -62.66 97.68 -63 97 C-63.61746094 97.01160156 -64.23492187 97.02320313 -64.87109375 97.03515625 C-70.67525544 97.09699663 -76.24338088 96.74278956 -82 96 C-82.495 91.545 -82.495 91.545 -83 87 C-84.11375 87.185625 -85.2275 87.37125 -86.375 87.5625 C-90 88 -90 88 -92 87 C-92 86.34 -92 85.68 -92 85 C-92.9590625 84.814375 -92.9590625 84.814375 -93.9375 84.625 C-94.618125 84.41875 -95.29875 84.2125 -96 84 C-96.495 83.01 -96.495 83.01 -97 82 C-98.97888961 81.27306096 -100.97954558 80.60183749 -103 80 C-103 79.34 -103 78.68 -103 78 C-104.32 78 -105.64 78 -107 78 C-106.67 78.66 -106.34 79.32 -106 80 C-109.36397083 79.39929092 -111.56714867 78.43285133 -114 76 C-114.75 72.8125 -114.75 72.8125 -115 70 C-114.01 70 -113.02 70 -112 70 C-112 70.66 -112 71.32 -112 72 C-110.72125 72.2475 -109.4425 72.495 -108.125 72.75 C-104.48034924 73.53508986 -101.28039068 74.67805536 -97.875 76.1875 C-93.37449662 78.0931819 -90.70060121 78.22624379 -86 77 C-86 76.34 -86 75.68 -86 75 C-85.15695313 74.90203125 -84.31390625 74.8040625 -83.4453125 74.703125 C-82.34960938 74.55359375 -81.25390625 74.4040625 -80.125 74.25 C-78.48917969 74.04117188 -78.48917969 74.04117188 -76.8203125 73.828125 C-73.87941421 73.30405084 -73.87941421 73.30405084 -72.7421875 70.984375 C-72.49726562 70.32953125 -72.25234375 69.6746875 -72 69 C-71.34 68.67 -70.68 68.34 -70 68 C-69.505 66.515 -69.505 66.515 -69 65 C-68.34 65 -67.68 65 -67 65 C-66.731875 64.278125 -66.46375 63.55625 -66.1875 62.8125 C-63.12676056 55.56338028 -63.12676056 55.56338028 -60 54 C-58.86649466 51.98330173 -58.86649466 51.98330173 -58 50 C-57.34 50 -56.68 50 -56 50 C-55.855625 49.401875 -55.71125 48.80375 -55.5625 48.1875 C-55.1127561 46.43849596 -54.57107659 44.71322977 -54 43 C-53.34 43 -52.68 43 -52 43 C-51.67 41.68 -51.34 40.36 -51 39 C-50.34 39 -49.68 39 -49 39 C-49.01160156 38.32453125 -49.02320313 37.6490625 -49.03515625 36.953125 C-49.04417969 36.06109375 -49.05320312 35.1690625 -49.0625 34.25 C-49.07410156 33.36828125 -49.08570313 32.4865625 -49.09765625 31.578125 C-49.00826198 29.2181162 -48.66912821 27.25501476 -48 25 C-47.34 25 -46.68 25 -46 25 C-45.88011719 24.27167969 -45.76023437 23.54335937 -45.63671875 22.79296875 C-44.6316005 18.38401448 -42.72509654 14.60695802 -40 11 C-36.75 9.625 -36.75 9.625 -34 9 C-33.67 8.01 -33.34 7.02 -33 6 C-32.01 6 -31.02 6 -30 6 C-29.67 5.01 -29.34 4.02 -29 3 C-19.20210428 -1.46921559 -10.5351512 -1.04387931 0 0 Z " fill="#E7E7E7" transform="translate(195,47)"/>
<path d="M0 0 C27.06 0 54.12 0 82 0 C82 1.98 82 3.96 82 6 C73.42 6.33 64.84 6.66 56 7 C55.67 15.91 55.34 24.82 55 34 C41.635 34.495 41.635 34.495 28 35 C27.67 43.58 27.34 52.16 27 61 C18.42 61.33 9.84 61.66 1 62 C0.67 70.91 0.34 79.82 0 89 C-8.91 89 -17.82 89 -27 89 C-27.020625 84.565625 -27.04125 80.13125 -27.0625 75.5625 C-27.071604 74.16201416 -27.08070801 72.76152832 -27.09008789 71.31860352 C-27.09258545 70.22475342 -27.09508301 69.13090332 -27.09765625 68.00390625 C-27.10289307 66.87799072 -27.10812988 65.7520752 -27.11352539 64.59204102 C-27 62 -27 62 -26 61 C-24.07332493 60.91251793 -22.14348139 60.89302666 -20.21484375 60.90234375 C-19.16159912 60.90484131 -18.10835449 60.90733887 -17.02319336 60.90991211 C-15.67491455 60.91901611 -14.32663574 60.92812012 -12.9375 60.9375 C-8.668125 60.958125 -4.39875 60.97875 0 61 C0 52.09 0 43.18 0 34 C-8.91 34 -17.82 34 -27 34 C-27.020625 29.565625 -27.04125 25.13125 -27.0625 20.5625 C-27.071604 19.16201416 -27.08070801 17.76152832 -27.09008789 16.31860352 C-27.09258545 15.22475342 -27.09508301 14.13090332 -27.09765625 13.00390625 C-27.10289307 11.87799072 -27.10812988 10.7520752 -27.11352539 9.59204102 C-27 7 -27 7 -26 6 C-24.07332493 5.91251793 -22.14348139 5.89302666 -20.21484375 5.90234375 C-18.46010742 5.90717773 -18.46010742 5.90717773 -16.66992188 5.91210938 C-14.82237305 5.92467773 -14.82237305 5.92467773 -12.9375 5.9375 C-11.08415039 5.94426758 -11.08415039 5.94426758 -9.19335938 5.95117188 C-6.12885883 5.96300392 -3.06445279 5.97948827 0 6 C0 4.02 0 2.04 0 0 Z " fill="#F4F4F4" transform="translate(31,0)"/>
<path d="M0 0 C1.47968324 0.14049518 2.95874516 0.28754826 4.4375 0.4375 C5.26121094 0.51871094 6.08492187 0.59992187 6.93359375 0.68359375 C9 1 9 1 10 2 C11.81728833 10.23458775 12.4851788 18.60028573 13 27 C13.99 26.505 13.99 26.505 15 26 C15 26.66 15 27.32 15 28 C15.57105469 27.98839844 16.14210937 27.97679688 16.73046875 27.96484375 C23.94400901 27.88456588 30.72281775 28.44021675 38 29 C38 37.91 38 46.82 38 56 C30.08 56.495 30.08 56.495 22 57 C21.71125 59.083125 21.4225 61.16625 21.125 63.3125 C20.23295832 69.57590692 19.17597453 75.7841346 18 82 C24.93 82.33 31.86 82.66 39 83 C38.67 92.24 38.34 101.48 38 111 C29.42 111 20.84 111 12 111 C11.67 119.91 11.34 128.82 11 138 C6.771875 137.979375 2.54375 137.95875 -1.8125 137.9375 C-13.24987963 138.01092591 -13.24987963 138.01092591 -22.875 143.4375 C-23.59429687 144.24058594 -24.31359375 145.04367188 -25.0546875 145.87109375 C-27.25227061 148.27607928 -28.94071252 148.9884218 -32 150 C-34.93106258 151.37580488 -37.52101846 152.59585932 -40 154.6875 C-42.72112962 156.47324131 -44.79612943 156.0667473 -48 156 C-49.3458537 156.64101485 -50.67813877 157.31086641 -52 158 C-57.59386383 159.93225003 -63.27986175 161.3654909 -69.08984375 162.47265625 C-71.30445583 162.97671717 -71.30445583 162.97671717 -74 165 C-78.15254338 165.44071805 -82.32663217 165.32415745 -86.5 165.3125 C-87.65371094 165.32861328 -88.80742187 165.34472656 -89.99609375 165.36132812 C-91.10082031 165.36197266 -92.20554688 165.36261719 -93.34375 165.36328125 C-94.35630859 165.36626221 -95.36886719 165.36924316 -96.41210938 165.37231445 C-99.40256986 164.94208311 -100.09451122 164.24356515 -102 162 C-104.45249158 161.1353859 -104.45249158 161.1353859 -107.1875 160.5625 C-112.26885549 159.28035187 -116.45441861 157.60950043 -121 155 C-121.495 154.01 -121.495 154.01 -122 153 C-122.7425 153.061875 -123.485 153.12375 -124.25 153.1875 C-127.59487906 152.95944006 -128.34932156 151.98800883 -131 150 C-133.95786741 148.8599886 -136.96555653 147.91422335 -140 147 C-140 146.34 -140 145.68 -140 145 C-140.99 145 -141.98 145 -143 145 C-143.33 143.35 -143.66 141.7 -144 140 C-145.65 140 -147.3 140 -149 140 C-149.103125 139.360625 -149.20625 138.72125 -149.3125 138.0625 C-149.539375 137.381875 -149.76625 136.70125 -150 136 C-150.99 135.67 -151.98 135.34 -153 135 C-153 134.01 -153 133.02 -153 132 C-150.16661778 133.37840216 -147.44311194 134.86418386 -144.75 136.5 C-144.04359375 136.9228125 -143.3371875 137.345625 -142.609375 137.78125 C-142.07828125 138.1834375 -141.5471875 138.585625 -141 139 C-141 139.66 -141 140.32 -141 141 C-140.05125 141.144375 -139.1025 141.28875 -138.125 141.4375 C-135 142 -135 142 -133 143 C-133 143.66 -133 144.32 -133 145 C-129.7 145.66 -126.4 146.32 -123 147 C-123 147.66 -123 148.32 -123 149 C-121.2365625 149.185625 -121.2365625 149.185625 -119.4375 149.375 C-116.65499684 149.71671091 -114.27890212 150.20977393 -111.5625 151 C-104.13001338 153.08631203 -96.55234973 153.16497504 -88.875 153.125 C-87.96790283 153.12306641 -87.06080566 153.12113281 -86.1262207 153.11914062 C-78.38640071 153.07003788 -70.71087136 152.66330076 -63 152 C-63 151.34 -63 150.68 -63 150 C-62.43152344 149.89042969 -61.86304688 149.78085938 -61.27734375 149.66796875 C-57.3857432 148.86885879 -53.75484317 148.01503621 -50.125 146.375 C-47 145 -47 145 -44 145 C-44 144.34 -44 143.68 -44 143 C-42.77023438 142.40251953 -42.77023438 142.40251953 -41.515625 141.79296875 C-40.43796875 141.26316406 -39.3603125 140.73335937 -38.25 140.1875 C-36.64898437 139.40439453 -36.64898437 139.40439453 -35.015625 138.60546875 C-32.03887543 137.11982421 -32.03887543 137.11982421 -29.734375 135.30078125 C-28 134 -28 134 -26 134 C-25.67 133.01 -25.34 132.02 -25 131 C-22.9375 130.3125 -22.9375 130.3125 -21 130 C-21 129.34 -21 128.68 -21 128 C-19.52295788 126.74772516 -18.04172601 125.49833478 -16.5078125 124.31640625 C-14.73237056 122.88235909 -14.73237056 122.88235909 -13 120 C-12.34 120 -11.68 120 -11 120 C-10.79375 119.34 -10.5875 118.68 -10.375 118 C-8.50875748 113.92819814 -6.02438473 110.31203002 -3 107 C-2.34 107 -1.68 107 -1 107 C-0.69255859 105.96939453 -0.69255859 105.96939453 -0.37890625 104.91796875 C-0.10949219 104.01691406 0.15992188 103.11585938 0.4375 102.1875 C0.70433594 101.29417969 0.97117188 100.40085937 1.24609375 99.48046875 C1.80387873 97.64526945 2.39344575 95.81966274 3 94 C3.66 94 4.32 94 5 94 C5.33 91.69 5.66 89.38 6 87 C6.66 87 7.32 87 8 87 C8.33 84.36 8.66 81.72 9 79 C9.66 79 10.32 79 11 79 C11.82198548 69.98250101 12.15497651 61.05290496 12.125 52 C12.12886719 50.83210938 12.13273438 49.66421875 12.13671875 48.4609375 C12.12800143 40.59791286 11.71373221 32.82991873 11 25 C10.34 25 9.68 25 9 25 C6.89603589 19.06682122 5.24028238 13.17222879 4 7 C3.34 7 2.68 7 2 7 C1.34 4.69 0.68 2.38 0 0 Z " fill="#E8E8E8" transform="translate(239,60)"/>
<path d="M0 0 C0.91587891 -0.04576172 1.83175781 -0.09152344 2.77539062 -0.13867188 C5.37166194 -0.18216367 7.65255005 -0.13020837 10.1875 0.4375 C13.44990609 3.93110022 14.96631824 7.94993473 16.6875 12.375 C19.51167481 20.54532003 19.51167481 20.54532003 25.1875 26.4375 C25.6825 27.9225 25.6825 27.9225 26.1875 29.4375 C27.1775 30.0975 28.1675 30.7575 29.1875 31.4375 C29.620625 32.18 30.05375 32.9225 30.5 33.6875 C31.99836348 36.12927753 33.33728294 37.66860029 35.375 39.625 C38.1875 42.4375 38.1875 42.4375 38.1875 44.4375 C38.785625 44.705625 39.38375 44.97375 40 45.25 C42.20569033 46.44737475 43.62333187 47.48228984 45.1875 49.4375 C45.1875 50.4275 45.1875 51.4175 45.1875 52.4375 C45.8475 52.7675 46.5075 53.0975 47.1875 53.4375 C47.5175 54.4275 47.8475 55.4175 48.1875 56.4375 C49.8375 56.7675 51.4875 57.0975 53.1875 57.4375 C53.6825 59.9125 53.6825 59.9125 54.1875 62.4375 C55.1775 62.4375 56.1675 62.4375 57.1875 62.4375 C57.5175 63.0975 57.8475 63.7575 58.1875 64.4375 C60.36912943 65.16486913 60.36912943 65.16486913 62.9375 65.75 C67.74655535 67.08661424 70.06807845 68.59021342 73.1875 72.4375 C72.8575 72.7675 72.5275 73.0975 72.1875 73.4375 C71.8575 76.4075 71.5275 79.3775 71.1875 82.4375 C62.2775 82.4375 53.3675 82.4375 44.1875 82.4375 C43.8575 73.5275 43.5275 64.6175 43.1875 55.4375 C34.6075 55.7675 26.0275 56.0975 17.1875 56.4375 C16.8575 65.0175 16.5275 73.5975 16.1875 82.4375 C3.25 82.875 3.25 82.875 -0.83569336 83.00561523 C-1.88893799 83.04372314 -2.94218262 83.08183105 -4.02734375 83.12109375 C-5.11136475 83.15775146 -6.19538574 83.19440918 -7.31225586 83.23217773 C-9.751763 83.16114265 -9.751763 83.16114265 -10.8125 84.4375 C-13.10401417 84.52540975 -15.39822524 84.54444038 -17.69140625 84.53515625 C-18.72139992 84.53303383 -18.72139992 84.53303383 -19.77220154 84.53086853 C-21.97317801 84.52525479 -24.17405409 84.51270007 -26.375 84.5 C-27.86393083 84.49498676 -29.35286324 84.49042355 -30.84179688 84.48632812 C-34.49876805 84.47613021 -38.15552117 84.45655779 -41.8125 84.4375 C-41.8125 74.8675 -41.8125 65.2975 -41.8125 55.4375 C-40.4925 55.4375 -39.1725 55.4375 -37.8125 55.4375 C-37.8125 64.3475 -37.8125 73.2575 -37.8125 82.4375 C-28.9025 82.4375 -19.9925 82.4375 -10.8125 82.4375 C-10.8125 73.5275 -10.8125 64.6175 -10.8125 55.4375 C-1.9025 55.4375 7.0075 55.4375 16.1875 55.4375 C16.1875 46.5275 16.1875 37.6175 16.1875 28.4375 C7.2775 28.4375 -1.6325 28.4375 -10.8125 28.4375 C-10.8434375 21.7859375 -10.8434375 21.7859375 -10.875 15 C-10.884104 13.59951416 -10.89320801 12.19902832 -10.90258789 10.75610352 C-10.90508545 9.66225342 -10.90758301 8.56840332 -10.91015625 7.44140625 C-10.91801147 5.75253296 -10.91801147 5.75253296 -10.92602539 4.02954102 C-10.67715171 -1.65280718 -4.5186765 0.09106436 0 0 Z " fill="#E9E9E9" transform="translate(41.8125,142.5625)"/>
<path d="M0 0 C1.00023193 0.00523682 2.00046387 0.01047363 3.03100586 0.01586914 C4.00303955 0.0183667 4.97507324 0.02086426 5.9765625 0.0234375 C7.84235962 0.03709351 7.84235962 0.03709351 9.74584961 0.05102539 C13.68522461 0.07165039 17.62459961 0.09227539 21.68334961 0.11352539 C21.68334961 9.02352539 21.68334961 17.93352539 21.68334961 27.11352539 C30.59334961 27.11352539 39.50334961 27.11352539 48.68334961 27.11352539 C48.64375685 18.60189714 48.64375685 18.60189714 48.59326172 10.09033203 C48.59076416 9.0370874 48.5882666 7.98384277 48.58569336 6.89868164 C48.58045654 5.81466064 48.57521973 4.73063965 48.56982422 3.61376953 C48.68334961 1.11352539 48.68334961 1.11352539 49.68334961 0.11352539 C52.21612611 0.04032376 54.71438879 0.0212497 57.24584961 0.05102539 C59.70022461 0.07165039 62.15459961 0.09227539 64.68334961 0.11352539 C64.68334961 9.68352539 64.68334961 19.25352539 64.68334961 29.11352539 C32.34334961 29.11352539 0.00334961 29.11352539 -33.31665039 29.11352539 C-32.98665039 28.45352539 -32.65665039 27.79352539 -32.31665039 27.11352539 C-23.73665039 27.11352539 -15.15665039 27.11352539 -6.31665039 27.11352539 C-6.43488484 20.42723722 -6.43488484 20.42723722 -6.58691406 13.74169922 C-6.63166632 8.72319106 -6.6500492 5.16902067 -3.31665039 1.11352539 C-2.31665039 0.11352539 -2.31665039 0.11352539 0 0 Z " fill="#FDFDFD" transform="translate(228.316650390625,197.886474609375)"/>
<path d="M0 0 C0.33 0 0.66 0 1 0 C2.23076923 6.4 2.23076923 6.4 1.0625 9.4375 C0.5365625 10.2109375 0.5365625 10.2109375 0 11 C0.99 11 1.98 11 3 11 C3.33 19.91 3.66 28.82 4 38 C8.29 38 12.58 38 17 38 C16.67 39.32 16.34 40.64 16 42 C14.35 42.33 12.7 42.66 11 43 C11.02320313 43.64066406 11.04640625 44.28132813 11.0703125 44.94140625 C11.18387734 50.384407 10.95552242 54.89391368 9 60 C8.01 60.495 8.01 60.495 7 61 C5.98133771 62.65532623 4.98189187 64.32260138 4 66 C3.34 66.66 2.68 67.32 2 68 C1.01 68 0.02 68 -1 68 C-1.495 69.485 -1.495 69.485 -2 71 C-8.48194105 74.83023789 -14.60312833 75.49409359 -22 75 C-22.99 74.505 -22.99 74.505 -24 74 C-24 71.36 -24 68.72 -24 66 C-22.80503906 66.01740234 -22.80503906 66.01740234 -21.5859375 66.03515625 C-13.74521011 66.11851557 -13.74521011 66.11851557 -6 65 C-6 64.34 -6 63.68 -6 63 C-5.01 62.67 -4.02 62.34 -3 62 C-1.29144978 58.99992729 -1.29144978 58.99992729 0 56 C0.66 56 1.32 56 2 56 C2.10876982 53.14479219 2.18766466 50.29379439 2.25 47.4375 C2.30027344 46.23770508 2.30027344 46.23770508 2.3515625 45.01367188 C2.46125846 38.29479405 0.76407584 34.4851391 -3.4375 29.1875 C-7.29781549 26.25366023 -11.07104941 25.76074818 -15.8125 25.875 C-16.78832031 25.89304688 -17.76414063 25.91109375 -18.76953125 25.9296875 C-19.50558594 25.95289063 -20.24164063 25.97609375 -21 26 C-19.68 26.33 -18.36 26.66 -17 27 C-17 27.66 -17 28.32 -17 29 C-16.278125 29.103125 -15.55625 29.20625 -14.8125 29.3125 C-9.95178323 30.50067521 -6.10040915 33.06486531 -3 37 C-3.25 39.25 -3.25 39.25 -4 41 C-4.33 40.34 -4.66 39.68 -5 39 C-5.61746094 39.01160156 -6.23492187 39.02320313 -6.87109375 39.03515625 C-12.67525544 39.09699663 -18.24338088 38.74278956 -24 38 C-24.495 33.545 -24.495 33.545 -25 29 C-26.11375 29.185625 -27.2275 29.37125 -28.375 29.5625 C-32 30 -32 30 -34 29 C-34 28.34 -34 27.68 -34 27 C-34.639375 26.87625 -35.27875 26.7525 -35.9375 26.625 C-36.9584375 26.315625 -36.9584375 26.315625 -38 26 C-38.33 25.34 -38.66 24.68 -39 24 C-40.97888961 23.27306096 -42.97954558 22.60183749 -45 22 C-45 21.34 -45 20.68 -45 20 C-46.32 20 -47.64 20 -49 20 C-48.67 20.66 -48.34 21.32 -48 22 C-51.36397083 21.39929092 -53.56714867 20.43285133 -56 18 C-56.75 14.8125 -56.75 14.8125 -57 12 C-56.01 12 -55.02 12 -54 12 C-54 12.66 -54 13.32 -54 14 C-52.72125 14.2475 -51.4425 14.495 -50.125 14.75 C-46.48034924 15.53508986 -43.28039068 16.67805536 -39.875 18.1875 C-35.37449662 20.0931819 -32.70060121 20.22624379 -28 19 C-28.33 20.32 -28.66 21.64 -29 23 C-28.236875 22.814375 -27.47375 22.62875 -26.6875 22.4375 C-24 22 -24 22 -21 23 C-18.54172479 21.47993143 -18.54172479 21.47993143 -16.0625 19.3125 C-15.20785156 18.60738281 -14.35320312 17.90226562 -13.47265625 17.17578125 C-9.01214834 13.46162698 -9.01214834 13.46162698 -6.0625 8.625 C-4.62517092 5.0739517 -2.57182582 2.83560282 0 0 Z " fill="#D9D9D9" transform="translate(137,105)"/>
<path d="M0 0 C0.33 0.99 0.66 1.98 1 3 C-0.375 5 -0.375 5 -2 7 C-2.33 7.99 -2.66 8.98 -3 10 C-3.66 10 -4.32 10 -5 10 C-5.165 11.27875 -5.33 12.5575 -5.5 13.875 C-6.90880978 20.21464401 -10.82737376 24.20947615 -15 29 C-16.50809065 30.86849875 -18.00843035 32.74328669 -19.5 34.625 C-20.66666667 36.08333333 -21.83333333 37.54166667 -23 39 C-23.99 38.67 -24.98 38.34 -26 38 C-26.49306641 38.77923828 -26.49306641 38.77923828 -26.99609375 39.57421875 C-30.87378091 45.25939152 -34.78681018 48.15319003 -41 51 C-41.65742188 51.30808594 -42.31484375 51.61617187 -42.9921875 51.93359375 C-47.08388952 53.76871333 -50.52233899 55 -55 55 C-55.9590625 55.7734375 -55.9590625 55.7734375 -56.9375 56.5625 C-57.618125 57.036875 -58.29875 57.51125 -59 58 C-60.34262065 57.70630173 -61.67696283 57.3721042 -63 57 C-64.34136367 57.65035814 -65.67532254 58.3162955 -67 59 C-68.485 58.505 -68.485 58.505 -70 58 C-70 58.66 -70 59.32 -70 60 C-71.56159059 60.48212214 -73.12431928 60.96055873 -74.6875 61.4375 C-75.55761719 61.70433594 -76.42773438 61.97117188 -77.32421875 62.24609375 C-90.07219105 65.83785821 -105.41836884 64.9471784 -118 61 C-119.216875 60.835 -120.43375 60.67 -121.6875 60.5 C-124.63895244 60.05449774 -126.52719987 59.61683085 -129 58 C-129.33 57.34 -129.66 56.68 -130 56 C-130.7425 56.061875 -131.485 56.12375 -132.25 56.1875 C-135.59487906 55.95944006 -136.34932156 54.98800883 -139 53 C-141.95786741 51.8599886 -144.96555653 50.91422335 -148 50 C-148 49.34 -148 48.68 -148 48 C-148.99 48 -149.98 48 -151 48 C-151.33 46.35 -151.66 44.7 -152 43 C-153.65 43 -155.3 43 -157 43 C-157.103125 42.360625 -157.20625 41.72125 -157.3125 41.0625 C-157.539375 40.381875 -157.76625 39.70125 -158 39 C-158.99 38.67 -159.98 38.34 -161 38 C-161 37.01 -161 36.02 -161 35 C-158.16661778 36.37840216 -155.44311194 37.86418386 -152.75 39.5 C-152.04359375 39.9228125 -151.3371875 40.345625 -150.609375 40.78125 C-150.07828125 41.1834375 -149.5471875 41.585625 -149 42 C-149 42.66 -149 43.32 -149 44 C-148.05125 44.144375 -147.1025 44.28875 -146.125 44.4375 C-143 45 -143 45 -141 46 C-141 46.66 -141 47.32 -141 48 C-137.7 48.66 -134.4 49.32 -131 50 C-131 50.66 -131 51.32 -131 52 C-129.2365625 52.185625 -129.2365625 52.185625 -127.4375 52.375 C-124.65499684 52.71671091 -122.27890212 53.20977393 -119.5625 54 C-112.13001338 56.08631203 -104.55234973 56.16497504 -96.875 56.125 C-95.96790283 56.12306641 -95.06080566 56.12113281 -94.1262207 56.11914062 C-86.38640071 56.07003788 -78.71087136 55.66330076 -71 55 C-71 54.34 -71 53.68 -71 53 C-70.43152344 52.89042969 -69.86304688 52.78085938 -69.27734375 52.66796875 C-65.3857432 51.86885879 -61.75484317 51.01503621 -58.125 49.375 C-55 48 -55 48 -52 48 C-52 47.34 -52 46.68 -52 46 C-51.18015625 45.60167969 -50.3603125 45.20335937 -49.515625 44.79296875 C-48.43796875 44.26316406 -47.3603125 43.73335937 -46.25 43.1875 C-45.18265625 42.66542969 -44.1153125 42.14335937 -43.015625 41.60546875 C-40.03887543 40.11982421 -40.03887543 40.11982421 -37.734375 38.30078125 C-36 37 -36 37 -34 37 C-33.67 36.01 -33.34 35.02 -33 34 C-30.9375 33.3125 -30.9375 33.3125 -29 33 C-29 32.34 -29 31.68 -29 31 C-27.52295788 29.74772516 -26.04172601 28.49833478 -24.5078125 27.31640625 C-22.73237056 25.88235909 -22.73237056 25.88235909 -21 23 C-20.34 23 -19.68 23 -19 23 C-18.79375 22.34 -18.5875 21.68 -18.375 21 C-16.50875748 16.92819814 -14.02438473 13.31203002 -11 10 C-10.34 10 -9.68 10 -9 10 C-8.79375 8.88625 -8.5875 7.7725 -8.375 6.625 C-7.92125 5.42875 -7.4675 4.2325 -7 3 C-3.9375 1.625 -3.9375 1.625 -1 1 C-0.67 0.67 -0.34 0.34 0 0 Z " fill="#B7B7B7" transform="translate(247,157)"/>
<path d="M0 0 C8.91 0 17.82 0 27 0 C27 1.98 27 3.96 27 6 C18.42 6.33 9.84 6.66 1 7 C0.67 15.91 0.34 24.82 0 34 C-8.91 34 -17.82 34 -27 34 C-27.020625 29.565625 -27.04125 25.13125 -27.0625 20.5625 C-27.071604 19.16201416 -27.08070801 17.76152832 -27.09008789 16.31860352 C-27.09258545 15.22475342 -27.09508301 14.13090332 -27.09765625 13.00390625 C-27.10289307 11.87799072 -27.10812988 10.7520752 -27.11352539 9.59204102 C-27 7 -27 7 -26 6 C-24.07332493 5.91251793 -22.14348139 5.89302666 -20.21484375 5.90234375 C-18.46010742 5.90717773 -18.46010742 5.90717773 -16.66992188 5.91210938 C-14.82237305 5.92467773 -14.82237305 5.92467773 -12.9375 5.9375 C-11.08415039 5.94426758 -11.08415039 5.94426758 -9.19335938 5.95117188 C-6.12885883 5.96300392 -3.06445279 5.97948827 0 6 C0 4.02 0 2.04 0 0 Z " fill="#F0F0F0" transform="translate(31,0)"/>
<path d="M0 0 C1.084021 0.00523682 2.16804199 0.01047363 3.28491211 0.01586914 C4.45473633 0.0190918 5.62456055 0.02231445 6.82983398 0.02563477 C8.0615332 0.03401367 9.29323242 0.04239258 10.56225586 0.05102539 C12.41560547 0.05779297 12.41560547 0.05779297 14.30639648 0.06469727 C17.37089703 0.07652931 20.43530307 0.09301366 23.49975586 0.11352539 C24.51861583 5.96194206 24.6172911 11.62426603 24.56225586 17.55102539 C24.54163086 20.70665039 24.52100586 23.86227539 24.49975586 27.11352539 C33.73975586 27.11352539 42.97975586 27.11352539 52.49975586 27.11352539 C52.16975586 27.77352539 51.83975586 28.43352539 51.49975586 29.11352539 C24.43975586 29.11352539 -2.62024414 29.11352539 -30.50024414 29.11352539 C-30.17024414 28.45352539 -29.84024414 27.79352539 -29.50024414 27.11352539 C-20.92024414 27.11352539 -12.34024414 27.11352539 -3.50024414 27.11352539 C-3.5398369 18.60189714 -3.5398369 18.60189714 -3.59033203 10.09033203 C-3.59407837 8.51046509 -3.59407837 8.51046509 -3.59790039 6.89868164 C-3.60575562 5.27265015 -3.60575562 5.27265015 -3.61376953 3.61376953 C-3.46077579 0.24428809 -3.36948144 0.15299374 0 0 Z " fill="#FDFDFD" transform="translate(61.500244140625,197.886474609375)"/>
<path d="M0 0 C1.32 0 2.64 0 4 0 C4 8.91 4 17.82 4 27 C12.91 27 21.82 27 31 27 C31 18.09 31 9.18 31 0 C39.91 0 48.82 0 58 0 C58 8.91 58 17.82 58 27 C45.0625 27.4375 45.0625 27.4375 40.97680664 27.56811523 C39.3969397 27.6252771 39.3969397 27.6252771 37.78515625 27.68359375 C36.15912476 27.73858032 36.15912476 27.73858032 34.50024414 27.79467773 C32.060737 27.72364265 32.060737 27.72364265 31 29 C28.70848583 29.08790975 26.41427476 29.10694038 24.12109375 29.09765625 C23.09110008 29.09553383 23.09110008 29.09553383 22.04029846 29.09336853 C19.83932199 29.08775479 17.63844591 29.07520007 15.4375 29.0625 C13.94856917 29.05748676 12.45963676 29.05292355 10.97070312 29.04882812 C7.31373195 29.03863021 3.65697883 29.01905779 0 29 C0 19.43 0 9.86 0 0 Z " fill="#F0F0F0" transform="translate(0,198)"/>
<path d="M0 0 C0 0.66 0 1.32 0 2 C1.6396875 2.2165625 1.6396875 2.2165625 3.3125 2.4375 C9.04683275 3.31222872 11.04172711 4.84864063 15 9 C15.7425 9.680625 16.485 10.36125 17.25 11.0625 C19.0851527 13.0942762 19.61776714 14.32437 20 17 C19.175 16.690625 18.35 16.38125 17.5 16.0625 C14.70571465 15.2142348 12.76895045 14.87017422 9.9375 14.6875 C5.32319607 13.88182789 3.9275898 12.5485937 1 9 C-1.14447308 6.85552692 -5.78886033 7.76844947 -8.75 7.75 C-9.96816406 7.7190625 -9.96816406 7.7190625 -11.2109375 7.6875 C-15.99767973 7.65631601 -19.09433046 7.92913006 -23 11 C-23.66 11.66 -24.32 12.32 -25 13 C-27 15 -27 15 -29.375 16.3125 C-37.58485726 21.59026538 -40.6305947 29.86086528 -43 39 C-43.165 39.9075 -43.33 40.815 -43.5 41.75 C-44 44 -44 44 -46 47 C-45.67 47.99 -45.34 48.98 -45 50 C-46.14453125 52.0078125 -46.14453125 52.0078125 -47.8125 54.125 C-48.35519531 54.82882813 -48.89789063 55.53265625 -49.45703125 56.2578125 C-51 58 -51 58 -53 59 C-53.6319296 52.99666876 -51.37544123 48.36595205 -49 43 C-50.32 43.66 -51.64 44.32 -53 45 C-52.01 42.03 -52.01 42.03 -51 39 C-50.34 39 -49.68 39 -49 39 C-49.01160156 38.32453125 -49.02320313 37.6490625 -49.03515625 36.953125 C-49.04869141 35.61507812 -49.04869141 35.61507812 -49.0625 34.25 C-49.07410156 33.36828125 -49.08570313 32.4865625 -49.09765625 31.578125 C-49.00826198 29.2181162 -48.66912821 27.25501476 -48 25 C-47.34 25 -46.68 25 -46 25 C-45.88011719 24.27167969 -45.76023438 23.54335937 -45.63671875 22.79296875 C-44.6316005 18.38401448 -42.72509654 14.60695802 -40 11 C-36.75 9.625 -36.75 9.625 -34 9 C-33.67 8.01 -33.34 7.02 -33 6 C-32.01 6 -31.02 6 -30 6 C-29.67 5.01 -29.34 4.02 -29 3 C-19.20210428 -1.46921559 -10.5351512 -1.04387931 0 0 Z M-47 39 C-47.33 40.32 -47.66 41.64 -48 43 C-47.34 43 -46.68 43 -46 43 C-46.33 41.68 -46.66 40.36 -47 39 Z " fill="#BCBCBC" transform="translate(195,47)"/>
<path d="M0 0 C8.91 0 17.82 0 27 0 C27 8.91 27 17.82 27 27 C18.42 27.33 9.84 27.66 1 28 C0.67 30.64 0.34 33.28 0 36 C-0.33 36 -0.66 36 -1 36 C-1.33 33.03 -1.66 30.06 -2 27 C-1.34 27 -0.68 27 0 27 C0 18.09 0 9.18 0 0 Z " fill="#F0F0F0" transform="translate(250,34)"/>
<path d="M0 0 C1.084021 0.04713135 2.16804199 0.0942627 3.28491211 0.14282227 C4.33815674 0.18592529 5.39140137 0.22902832 6.4765625 0.2734375 C7.82484131 0.33474854 9.17312012 0.39605957 10.56225586 0.45922852 C16.96631836 0.73766602 16.96631836 0.73766602 23.49975586 1.02172852 C23.49975586 9.93172852 23.49975586 18.84172852 23.49975586 28.02172852 C14.58975586 28.02172852 5.67975586 28.02172852 -3.50024414 28.02172852 C-3.52086914 23.58735352 -3.54149414 19.15297852 -3.56274414 14.58422852 C-3.57184814 13.18374268 -3.58095215 11.78325684 -3.59033203 10.34033203 C-3.59282959 9.24648193 -3.59532715 8.15263184 -3.59790039 7.02563477 C-3.60313721 5.89971924 -3.60837402 4.77380371 -3.61376953 3.61376953 C-3.46342734 0.18111782 -3.43558966 0.02985719 0 0 Z " fill="#FEFEFE" transform="translate(253.500244140625,169.978271484375)"/>
<path d="M0 0 C8.91 0 17.82 0 27 0 C27 8.91 27 17.82 27 27 C18.09 27 9.18 27 0 27 C0 18.09 0 9.18 0 0 Z " fill="#F0F0F0" transform="translate(4,171)"/>
<path d="M0 0 C8.91 0 17.82 0 27 0 C27 8.91 27 17.82 27 27 C18.09 27 9.18 27 0 27 C0 18.09 0 9.18 0 0 Z " fill="#F0F0F0" transform="translate(4,116)"/>
<path d="M0 0 C1.12591553 0.00523682 2.25183105 0.01047363 3.41186523 0.01586914 C4.62680664 0.0190918 5.84174805 0.02231445 7.09350586 0.02563477 C8.37290039 0.03401367 9.65229492 0.04239258 10.97045898 0.05102539 C12.2537207 0.05553711 13.53698242 0.06004883 14.85913086 0.06469727 C18.04209319 0.07652984 21.22503173 0.09446595 24.40795898 0.11352539 C24.07795898 7.37352539 23.74795898 14.63352539 23.40795898 22.11352539 C19.54367703 21.340669 16.10538917 20.40332662 12.40795898 19.11352539 C13.65313863 20.24385837 14.90432551 21.36757575 16.15795898 22.48852539 C17.20209961 23.42825195 17.20209961 23.42825195 18.26733398 24.38696289 C20.25304587 25.98857722 22.08749991 27.07872607 24.40795898 28.11352539 C24.07795898 30.75352539 23.74795898 33.39352539 23.40795898 36.11352539 C19.94295898 35.61852539 19.94295898 35.61852539 16.40795898 35.11352539 C16.40795898 34.45352539 16.40795898 33.79352539 16.40795898 33.11352539 C15.72733398 32.94852539 15.04670898 32.78352539 14.34545898 32.61352539 C10.05686696 30.42360606 7.21286843 26.9935154 4.40795898 23.11352539 C4.40795898 22.45352539 4.40795898 21.79352539 4.40795898 21.11352539 C3.74795898 21.11352539 3.08795898 21.11352539 2.40795898 21.11352539 C2.13983398 19.97915039 1.87170898 18.84477539 1.59545898 17.67602539 C1.00764648 15.91258789 1.00764648 15.91258789 0.40795898 14.11352539 C-0.58204102 13.78352539 -1.57204102 13.45352539 -2.59204102 13.11352539 C-2.59204102 12.45352539 -2.59204102 11.79352539 -2.59204102 11.11352539 C-3.25204102 11.11352539 -3.91204102 11.11352539 -4.59204102 11.11352539 C-4.45161224 9.46722211 -4.30454772 7.8214836 -4.15454102 6.17602539 C-4.07333008 5.25950195 -3.99211914 4.34297852 -3.90844727 3.39868164 C-3.45991629 0.15929123 -3.30893542 0.1449237 0 0 Z " fill="#EBEBEB" transform="translate(89.592041015625,142.886474609375)"/>
<path d="M0 0 C0.33 0.66 0.66 1.32 1 2 C1.85658203 1.98259766 1.85658203 1.98259766 2.73046875 1.96484375 C9.94400901 1.88456588 16.72281775 2.44021675 24 3 C24 11.91 24 20.82 24 30 C18.72 30.33 13.44 30.66 8 31 C7.71125 33.083125 7.4225 35.16625 7.125 37.3125 C6.23329959 43.5735107 5.19139172 49.7895538 4 56 C2.515 56.495 2.515 56.495 1 57 C1.52799742 50.44171625 2.21066682 43.90640257 3 37.375 C3.1244751 36.30862305 3.1244751 36.30862305 3.25146484 35.22070312 C3.88255259 30.11744741 3.88255259 30.11744741 5 29 C4.56033799 26.22921339 3.96101546 23.50500361 3.375 20.76171875 C3.01315446 18.09687708 3.14013482 16.51391138 4 14 C3.34 14 2.68 14 2 14 C2 10.37 2 6.74 2 3 C1.01 2.67 0.02 2.34 -1 2 C-0.67 1.34 -0.34 0.68 0 0 Z " fill="#EAEAEA" transform="translate(253,86)"/>
<path d="M0 0 C0 4.62 0 9.24 0 14 C3.465 15.485 3.465 15.485 7 17 C7 17.66 7 18.32 7 19 C8.98 19.33 10.96 19.66 13 20 C12.67 20.66 12.34 21.32 12 22 C10.35 22 8.7 22 7 22 C6.67 20.68 6.34 19.36 6 18 C5.34 18 4.68 18 4 18 C4 20.64 4 23.28 4 26 C4.66 26.33 5.32 26.66 6 27 C-2.25 27 -10.5 27 -19 27 C-19 18.09 -19 9.18 -19 0 C-16.793125 -0.185625 -14.58625 -0.37125 -12.3125 -0.5625 C-10.45044922 -0.71912109 -10.45044922 -0.71912109 -8.55078125 -0.87890625 C-5 -1 -5 -1 0 0 Z " fill="#EDEDED" transform="translate(50,89)"/>
<path d="M0 0 C0.33 0.99 0.66 1.98 1 3 C0.67 3.66 0.34 4.32 0 5 C-0.66 5 -1.32 5 -2 5 C-1.896875 6.03125 -1.79375 7.0625 -1.6875 8.125 C-2.0805898 12.99931357 -3.71416769 14.48492358 -7 18 C-7.4228125 18.75410156 -7.845625 19.50820312 -8.28125 20.28515625 C-10.4963481 23.78400439 -13.22599069 26.44168473 -16.1875 29.3125 C-17.02571289 30.13717773 -17.02571289 30.13717773 -17.88085938 30.97851562 C-19.24937412 32.32363696 -20.62406833 33.66246643 -22 35 C-22 31.35957693 -21.35247019 30.95450662 -18.9375 28.375 C-12.59543882 21.33827087 -7.32488822 15.36597826 -5 6 C-4.34 6 -3.68 6 -3 6 C-2.87625 5.38125 -2.7525 4.7625 -2.625 4.125 C-2 2 -2 2 0 0 Z M-26 33 C-24.68 34.32 -23.36 35.64 -22 37 C-22.845625 37.53625 -23.69125 38.0725 -24.5625 38.625 C-27.08134098 40.28838555 -29.31385839 42.11305751 -31.5625 44.125 C-34.26666494 46.49114433 -36.56092394 47.85364131 -40 49 C-42.93106258 50.37580488 -45.52101846 51.59585932 -48 53.6875 C-50.72112962 55.47324131 -52.79612943 55.0667473 -56 55 C-57.3458537 55.64101485 -58.67813877 56.31086641 -60 57 C-65.59386383 58.93225003 -71.27986175 60.3654909 -77.08984375 61.47265625 C-79.30445583 61.97671717 -79.30445583 61.97671717 -82 64 C-86.15254338 64.44071805 -90.32663217 64.32415745 -94.5 64.3125 C-95.65371094 64.32861328 -96.80742187 64.34472656 -97.99609375 64.36132812 C-99.10082031 64.36197266 -100.20554688 64.36261719 -101.34375 64.36328125 C-102.35630859 64.36626221 -103.36886719 64.36924316 -104.41210938 64.37231445 C-107.40960288 63.94107128 -108.08256297 63.24027264 -110 61 C-112.72023023 59.99496449 -112.72023023 59.99496449 -115.6875 59.3125 C-116.68136719 59.06113281 -117.67523438 58.80976563 -118.69921875 58.55078125 C-119.45847656 58.36902344 -120.21773438 58.18726563 -121 58 C-120.01 57.34 -119.02 56.68 -118 56 C-116.39057788 56.44515931 -114.78374037 56.90289277 -113.1953125 57.41796875 C-101.27560276 60.57817649 -87.14665747 60.08210827 -75.42578125 56.65625 C-73 56 -73 56 -70 56 C-70 55.34 -70 54.68 -70 54 C-69.21625 54.04125 -68.4325 54.0825 -67.625 54.125 C-64.83883881 54.28728734 -64.83883881 54.28728734 -63 52 C-61.8553125 52.309375 -61.8553125 52.309375 -60.6875 52.625 C-57.80868649 53.33523003 -57.80868649 53.33523003 -55.1875 51.0625 C-54.465625 50.381875 -53.74375 49.70125 -53 49 C-52.505 49.99 -52.505 49.99 -52 51 C-51.05125 50.4225 -50.1025 49.845 -49.125 49.25 C-46.12567936 47.51258865 -43.12711809 46.25526786 -39.875 45.0625 C-33.48052249 42.58221782 -30.12167444 38.34291131 -26 33 Z " fill="#CECECE" transform="translate(247,161)"/>
<path d="M0 0 C1.39456867 0.00574201 2.78910972 0.01875397 4.18359375 0.03515625 C6.63796875 0.05578125 9.09234375 0.07640625 11.62109375 0.09765625 C11.62109375 9.33765625 11.62109375 18.57765625 11.62109375 28.09765625 C6.34109375 28.09765625 1.06109375 28.09765625 -4.37890625 28.09765625 C-4.40572784 23.61845028 -4.42565802 19.13940274 -4.44140625 14.66015625 C-4.44978516 13.38076172 -4.45816406 12.10136719 -4.46679688 10.78320312 C-4.47001953 9.56826172 -4.47324219 8.35332031 -4.4765625 7.1015625 C-4.48179932 5.97564697 -4.48703613 4.84973145 -4.49243164 3.68969727 C-4.32061796 -0.23319692 -4.03888491 0.11673078 0 0 Z " fill="#FEFEFE" transform="translate(281.37890625,142.90234375)"/>
<path d="M0 0 C1.39456867 0.00574201 2.78910972 0.01875397 4.18359375 0.03515625 C6.63796875 0.05578125 9.09234375 0.07640625 11.62109375 0.09765625 C11.62109375 9.33765625 11.62109375 18.57765625 11.62109375 28.09765625 C6.34109375 28.09765625 1.06109375 28.09765625 -4.37890625 28.09765625 C-4.40572784 23.61845028 -4.42565802 19.13940274 -4.44140625 14.66015625 C-4.44978516 13.38076172 -4.45816406 12.10136719 -4.46679688 10.78320312 C-4.47001953 9.56826172 -4.47324219 8.35332031 -4.4765625 7.1015625 C-4.48179932 5.97564697 -4.48703613 4.84973145 -4.49243164 3.68969727 C-4.32061796 -0.23319692 -4.03888491 0.11673078 0 0 Z " fill="#F0F0F0" transform="translate(281.37890625,5.90234375)"/>
<path d="M0 0 C1.47968324 0.14049518 2.95874516 0.28754826 4.4375 0.4375 C5.67306641 0.55931641 5.67306641 0.55931641 6.93359375 0.68359375 C9 1 9 1 10 2 C12.02414604 10.8872662 12.52906025 19.92821325 13 29 C13.99 29 14.98 29 16 29 C16.19491452 30.45736087 16.38069358 31.91594593 16.5625 33.375 C16.66691406 34.18710938 16.77132812 34.99921875 16.87890625 35.8359375 C17 38 17 38 16 40 C16.66 40 17.32 40 18 40 C18.09087891 40.85271484 18.09087891 40.85271484 18.18359375 41.72265625 C18.70176573 46.49781037 19.29243859 51.2492305 20 56 C19.34 56 18.68 56 18 56 C18.05220703 57.03833984 18.05220703 57.03833984 18.10546875 58.09765625 C18.34626254 66.80063166 16.93764195 74.55741721 15 83 C15.66 83 16.32 83 17 83 C16.1875 85.9375 16.1875 85.9375 15 89 C13.515 89.495 13.515 89.495 12 90 C12.33 87.69 12.66 85.38 13 83 C11.35 84.32 9.7 85.64 8 87 C8.33 84.36 8.66 81.72 9 79 C9.66 79 10.32 79 11 79 C11.82198548 69.98250101 12.15497651 61.05290496 12.125 52 C12.12886719 50.83210938 12.13273438 49.66421875 12.13671875 48.4609375 C12.12800143 40.59791286 11.71373221 32.82991873 11 25 C10.34 25 9.68 25 9 25 C6.89603589 19.06682122 5.24028238 13.17222879 4 7 C3.34 7 2.68 7 2 7 C1.34 4.69 0.68 2.38 0 0 Z " fill="#CBCBCB" transform="translate(239,60)"/>
<path d="M0 0 C5.28 0 10.56 0 16 0 C16 8.91 16 17.82 16 27 C10.72 27 5.44 27 0 27 C0 18.09 0 9.18 0 0 Z " fill="#F0F0F0" transform="translate(277,116)"/>
<path d="M0 0 C5.28 0 10.56 0 16 0 C16 8.91 16 17.82 16 27 C10.72 27 5.44 27 0 27 C0 18.09 0 9.18 0 0 Z " fill="#FEFEFE" transform="translate(277,89)"/>
<path d="M0 0 C0.66 0.33 1.32 0.66 2 1 C1.67 1.66 1.34 2.32 1 3 C1.71027344 2.98839844 2.42054688 2.97679688 3.15234375 2.96484375 C4.07144531 2.95582031 4.99054688 2.94679688 5.9375 2.9375 C6.85402344 2.92589844 7.77054688 2.91429688 8.71484375 2.90234375 C11 3 11 3 12 4 C12.14475933 7.8361222 12.17661508 11.32307787 11 15 C10.34 15 9.68 15 9 15 C8.7834375 16.175625 8.7834375 16.175625 8.5625 17.375 C8 20 8 20 7 22 C6.34 22 5.68 22 5 22 C4.7525 22.763125 4.505 23.52625 4.25 24.3125 C2.82111695 27.38459855 1.865956 28.25613864 -1 30 C-3.9453125 30.6953125 -3.9453125 30.6953125 -7.125 31.125 C-11.20171922 31.61383281 -11.20171922 31.61383281 -15 33 C-15.50031082 29.87305737 -15.67117781 27.10996132 -15 24 C-13.19482549 22.14211966 -11.27839221 20.91546576 -9.10546875 19.51171875 C-3.13410806 15.22430393 -1.40339344 8.86103895 -0.26171875 1.90625 C-0.13216797 0.96265625 -0.13216797 0.96265625 0 0 Z " fill="#D3D3D3" transform="translate(210,85)"/>
<path d="M0 0 C8.91 0 17.82 0 27 0 C27 1.98 27 3.96 27 6 C18.42 6.33 9.84 6.66 1 7 C1 11.29 1 15.58 1 20 C-4.85646074 18.86649147 -10.00095463 17.25978708 -15.4921875 14.953125 C-19.26182094 13.52042943 -23.04523382 12.76543862 -27 12 C-27.042721 10.33388095 -27.04063832 8.66617115 -27 7 C-26 6 -26 6 -23.49975586 5.88647461 C-22.41573486 5.89171143 -21.33171387 5.89694824 -20.21484375 5.90234375 C-18.46010742 5.90717773 -18.46010742 5.90717773 -16.66992188 5.91210938 C-14.82237305 5.92467773 -14.82237305 5.92467773 -12.9375 5.9375 C-11.08415039 5.94426758 -11.08415039 5.94426758 -9.19335938 5.95117188 C-6.12885883 5.96300392 -3.06445279 5.97948827 0 6 C0 4.02 0 2.04 0 0 Z " fill="#EFEFEF" transform="translate(195,0)"/>
<path d="M0 0 C0.495 1.485 0.495 1.485 1 3 C-0.375 5 -0.375 5 -2 7 C-2.33 7.99 -2.66 8.98 -3 10 C-3.66 10 -4.32 10 -5 10 C-5.07476562 10.56847656 -5.14953125 11.13695312 -5.2265625 11.72265625 C-6.80717404 21.00487502 -12.19858272 25.53844853 -19.16796875 31.421875 C-21.01953493 32.95256921 -21.01953493 32.95256921 -22.55078125 34.703125 C-24 36 -24 36 -27 36 C-31.06805415 38.78340547 -33.87193569 42.23028147 -37 46 C-40.5991656 49.5991656 -45.13015097 50.2008935 -50 51 C-50.66 51 -51.32 51 -52 51 C-51.64263288 48.28166653 -51.27693694 47.23321006 -49.14453125 45.4375 C-48.37496094 44.963125 -47.60539063 44.48875 -46.8125 44 C-46.00296875 43.49210937 -45.1934375 42.98421875 -44.359375 42.4609375 C-43.19148437 41.73777344 -43.19148437 41.73777344 -42 41 C-40.85093312 40.21303403 -39.70452242 39.42215427 -38.5625 38.625 C-36 37 -36 37 -34 37 C-33.67 36.01 -33.34 35.02 -33 34 C-30.9375 33.3125 -30.9375 33.3125 -29 33 C-29 32.34 -29 31.68 -29 31 C-27.52295788 29.74772516 -26.04172601 28.49833478 -24.5078125 27.31640625 C-22.73237056 25.88235909 -22.73237056 25.88235909 -21 23 C-20.34 23 -19.68 23 -19 23 C-18.79375 22.34 -18.5875 21.68 -18.375 21 C-16.50875748 16.92819814 -14.02438473 13.31203002 -11 10 C-10.34 10 -9.68 10 -9 10 C-8.79375 8.88625 -8.5875 7.7725 -8.375 6.625 C-7.92125 5.42875 -7.4675 4.2325 -7 3 C-3.9375 1.625 -3.9375 1.625 -1 1 C-0.67 0.67 -0.34 0.34 0 0 Z " fill="#B0B0B0" transform="translate(247,157)"/>
<path d="M0 0 C2.83338222 1.37840216 5.55688806 2.86418386 8.25 4.5 C8.95640625 4.9228125 9.6628125 5.345625 10.390625 5.78125 C10.92171875 6.1834375 11.4528125 6.585625 12 7 C12 7.66 12 8.32 12 9 C13.423125 9.2165625 13.423125 9.2165625 14.875 9.4375 C18 10 18 10 20 11 C20 11.66 20 12.32 20 13 C23.3 13.66 26.6 14.32 30 15 C30 15.66 30 16.32 30 17 C31.175625 17.12375 32.35125 17.2475 33.5625 17.375 C36.34500316 17.71671091 38.72109788 18.20977393 41.4375 19 C48.94373663 21.10701379 56.80827884 21.21546589 64.5625 21.5625 C65.93245117 21.62727539 65.93245117 21.62727539 67.33007812 21.69335938 C69.55327991 21.79811757 71.77656707 21.90029017 74 22 C74 22.33 74 22.66 74 23 C67.73 23.33 61.46 23.66 55 24 C64.76865386 27.6632452 72.39828019 28.58281467 82.16015625 24.65625 C84 24 84 24 87 24 C87.66 24.33 88.32 24.66 89 25 C78.53939351 31.97373766 61.84482889 29.59109642 50 28 C47.65269935 27.38431458 45.31543043 26.72640955 43 26 C41.783125 25.835 40.56625 25.67 39.3125 25.5 C36.36104756 25.05449774 34.47280013 24.61683085 32 23 C31.67 22.34 31.34 21.68 31 21 C30.2575 21.061875 29.515 21.12375 28.75 21.1875 C25.40512094 20.95944006 24.65067844 19.98800883 22 18 C19.04213259 16.8599886 16.03444347 15.91422335 13 15 C13 14.34 13 13.68 13 13 C12.01 13 11.02 13 10 13 C9.67 11.35 9.34 9.7 9 8 C7.35 8 5.7 8 4 8 C3.896875 7.360625 3.79375 6.72125 3.6875 6.0625 C3.460625 5.381875 3.23375 4.70125 3 4 C2.01 3.67 1.02 3.34 0 3 C0 2.01 0 1.02 0 0 Z " fill="#C1C1C1" transform="translate(86,192)"/>
<path d="M0 0 C2.36715956 0.40813096 3.68772885 0.67353471 5.375 2.4375 C7.60958813 4.58614244 10.08644088 5.04992638 13 6 C13.33 6.66 13.66 7.32 14 8 C14.99 8.33 15.98 8.66 17 9 C17 9.66 17 10.32 17 11 C20.34252724 11.07427838 22.8035914 11.06546953 26 10 C27 11 27 11 27 20 C18.09 20 9.18 20 0 20 C-1 7 -1 7 0 4 C0.66 3.67 1.32 3.34 2 3 C1.34 2.01 0.68 1.02 0 0 Z " fill="#F3F3F3" transform="translate(86,123)"/>
<path d="M0 0 C0 0.66 0 1.32 0 2 C0.721875 2.103125 1.44375 2.20625 2.1875 2.3125 C7.04821677 3.50067521 10.89959085 6.06486531 14 10 C13.75 12.25 13.75 12.25 13 14 C12.67 13.34 12.34 12.68 12 12 C11.38253906 12.01160156 10.76507813 12.02320313 10.12890625 12.03515625 C4.32474456 12.09699663 -1.24338088 11.74278956 -7 11 C-7.33 8.03 -7.66 5.06 -8 2 C-9.670625 2.2784375 -9.670625 2.2784375 -11.375 2.5625 C-15 3 -15 3 -17 2 C-17 1.34 -17 0.68 -17 0 C-11.06390334 -0.89316269 -5.93024803 -0.97040422 0 0 Z " fill="#DEDEDE" transform="translate(120,132)"/>
<path d="M0 0 C0.66 0.33 1.32 0.66 2 1 C-2.38421053 6.63684211 -2.38421053 6.63684211 -5.4375 8.4375 C-13.68381169 13.46573883 -16.67383592 22.02765283 -19 31 C-19.165 31.9075 -19.33 32.815 -19.5 33.75 C-20 36 -20 36 -22 39 C-21.67 39.99 -21.34 40.98 -21 42 C-22.14453125 44.0078125 -22.14453125 44.0078125 -23.8125 46.125 C-24.35519531 46.82882813 -24.89789063 47.53265625 -25.45703125 48.2578125 C-27 50 -27 50 -29 51 C-29.57198641 45.42313253 -27.95596704 40.69593426 -25 36 C-23.515 35.505 -23.515 35.505 -22 35 C-22.061875 34.030625 -22.12375 33.06125 -22.1875 32.0625 C-22.1875 25.54814988 -19.67457577 19.30772056 -16 14 C-15.54367188 13.31421875 -15.08734375 12.6284375 -14.6171875 11.921875 C-14.10414063 11.18453125 -13.59109375 10.4471875 -13.0625 9.6875 C-12.57910156 8.99011719 -12.09570312 8.29273438 -11.59765625 7.57421875 C-10 6 -10 6 -6 6 C-5.7525 5.38125 -5.505 4.7625 -5.25 4.125 C-3.78043163 1.62673377 -2.71435596 0.93305986 0 0 Z " fill="#C9C9C9" transform="translate(171,55)"/>
<path d="M0 0 C0.99 0 1.98 0 3 0 C3 0.66 3 1.32 3 2 C4.27875 2.2475 5.5575 2.495 6.875 2.75 C10.51965076 3.53508986 13.71960932 4.67805536 17.125 6.1875 C21.62550338 8.0931819 24.29939879 8.22624379 29 7 C28.67 8.32 28.34 9.64 28 11 C29.175625 10.7215625 29.175625 10.7215625 30.375 10.4375 C33 10 33 10 35 11 C35 11.66 35 12.32 35 13 C31.54145992 15.30569339 30.02062492 15.29761619 25.9375 15.3125 C24.34228516 15.33763672 24.34228516 15.33763672 22.71484375 15.36328125 C21.81894531 15.24339844 20.92304687 15.12351563 20 15 C19.34 14.01 18.68 13.02 18 12 C14.94570927 10.78715124 14.94570927 10.78715124 12 10 C12 9.34 12 8.68 12 8 C10.68 8 9.36 8 8 8 C8.33 8.66 8.66 9.32 9 10 C5.63602917 9.39929092 3.43285133 8.43285133 1 6 C0.25 2.8125 0.25 2.8125 0 0 Z " fill="#C0C0C0" transform="translate(80,117)"/>
<path d="M0 0 C3.57378607 0.43760646 6.91814099 0.97574548 10.375 2 C17.91537314 4.08010293 25.78094997 4.21424281 33.5625 4.5625 C34.47580078 4.60568359 35.38910156 4.64886719 36.33007812 4.69335938 C38.55327991 4.79811757 40.77656707 4.90029017 43 5 C43 5.33 43 5.66 43 6 C36.73 6.33 30.46 6.66 24 7 C33.76865386 10.6632452 41.39828019 11.58281467 51.16015625 7.65625 C53 7 53 7 56 7 C56.66 7.33 57.32 7.66 58 8 C48.39669734 14.40220177 33.88989544 12.74238327 23 11 C23 10.34 23 9.68 23 9 C22.0925 9.04125 21.185 9.0825 20.25 9.125 C17 9 17 9 15.078125 8.015625 C12.7468657 6.87628775 11.07594691 6.73968257 8.5 6.625 C5.18657119 6.32477169 4.18293776 6.13831879 1.4375 4.0625 C0 2 0 2 0 0 Z " fill="#BEBEBE" transform="translate(117,209)"/>
<path d="M0 0 C8.91 0 17.82 0 27 0 C27 1.98 27 3.96 27 6 C18.09 6 9.18 6 0 6 C0 4.02 0 2.04 0 0 Z " fill="#F0F0F0" transform="translate(250,0)"/>
<path d="M0 0 C8.91 0 17.82 0 27 0 C27 1.98 27 3.96 27 6 C18.09 6 9.18 6 0 6 C0 4.02 0 2.04 0 0 Z " fill="#F0F0F0" transform="translate(86,0)"/>
<path d="M0 0 C8.91 0 17.82 0 27 0 C27 1.98 27 3.96 27 6 C18.09 6 9.18 6 0 6 C0 4.02 0 2.04 0 0 Z " fill="#FEFEFE" transform="translate(4,0)"/>
<path d="M0 0 C0.66 0.33 1.32 0.66 2 1 C1.67 1.66 1.34 2.32 1 3 C2.65 3 4.3 3 6 3 C4.34627709 6.90879961 1.69823646 9.76211625 -1 13 C-2.96219459 16.09820199 -3.58443917 19.35951891 -4.4453125 22.90234375 C-5.32418135 26.22595341 -6.35654657 28.95656772 -8 32 C-10.6875 33.4375 -10.6875 33.4375 -13 34 C-12.01 31.03 -12.01 31.03 -11 28 C-10.34 28 -9.68 28 -9 28 C-9.01160156 27.32453125 -9.02320313 26.6490625 -9.03515625 25.953125 C-9.04869141 24.61507812 -9.04869141 24.61507812 -9.0625 23.25 C-9.07410156 22.36828125 -9.08570313 21.4865625 -9.09765625 20.578125 C-9.00826198 18.2181162 -8.66912821 16.25501476 -8 14 C-7.34 14 -6.68 14 -6 14 C-5.88785156 13.27425781 -5.77570313 12.54851562 -5.66015625 11.80078125 C-4.97038613 8.87436007 -3.94489186 6.77712191 -2.4375 4.1875 C-1.98246094 3.39730469 -1.52742187 2.60710938 -1.05859375 1.79296875 C-0.70925781 1.20128906 -0.35992187 0.60960937 0 0 Z " fill="#B9B9B9" transform="translate(155,58)"/>
<path d="M0 0 C0.8125 3.125 0.8125 3.125 1 7 C-1.3125 10.1875 -1.3125 10.1875 -4 13 C-5.13350534 15.01669827 -5.13350534 15.01669827 -6 17 C-7.52603596 19.67056293 -8.82122921 21.82122921 -11 24 C-13.6015625 24.1953125 -13.6015625 24.1953125 -16.625 24.125 C-18.12933594 24.09792969 -18.12933594 24.09792969 -19.6640625 24.0703125 C-20.43492188 24.04710937 -21.20578125 24.02390625 -22 24 C-18.29487681 20.05583661 -14.32154005 16.95419367 -9.890625 13.84375 C-7.56693378 11.57767096 -7.52596513 10.14118065 -7 7 C-5.625 4.98046875 -5.625 4.98046875 -4 3.1875 C-3.46375 2.58292969 -2.9275 1.97835937 -2.375 1.35546875 C-1 0 -1 0 0 0 Z " fill="#C0C0C0" transform="translate(138,105)"/>
<path d="M0 0 C1.47968324 0.14049518 2.95874516 0.28754826 4.4375 0.4375 C5.67306641 0.55931641 5.67306641 0.55931641 6.93359375 0.68359375 C9 1 9 1 10 2 C11.6547456 9.33161007 12.29862397 16.50122022 12 24 C11.01 24.33 10.02 24.66 9 25 C6.89603589 19.06682122 5.24028238 13.17222879 4 7 C3.34 7 2.68 7 2 7 C1.34 4.69 0.68 2.38 0 0 Z " fill="#D8D8D8" transform="translate(239,60)"/>
<path d="M0 0 C1.134375 0.020625 2.26875 0.04125 3.4375 0.0625 C3.1075 1.7125 2.7775 3.3625 2.4375 5.0625 C-4.57829675 8.18063189 -13.03841599 8.24728748 -20.25 5.6875 C-23.5625 4.0625 -23.5625 4.0625 -24.5625 2.0625 C-23.96187744 2.03744385 -23.36125488 2.0123877 -22.74243164 1.98657227 C-20.03638563 1.8709472 -17.33071717 1.74807064 -14.625 1.625 C-13.67947266 1.58568359 -12.73394531 1.54636719 -11.75976562 1.50585938 C-10.86064453 1.46396484 -9.96152344 1.42207031 -9.03515625 1.37890625 C-8.20250244 1.34224854 -7.36984863 1.30559082 -6.51196289 1.26782227 C-3.34895611 0.93468655 -3.84337995 0.06742772 0 0 Z " fill="#AEAEAE" transform="translate(164.5625,212.9375)"/>
<path d="M0 0 C0.79470703 -0.03738281 1.58941406 -0.07476562 2.40820312 -0.11328125 C6.65283489 -0.17647676 9.37936173 0.06953858 12.76171875 2.7734375 C15.1875 5.375 15.1875 5.375 15.1875 7.375 C13.2075 7.375 11.2275 7.375 9.1875 7.375 C8.8575 6.055 8.5275 4.735 8.1875 3.375 C6.12566367 3.29349256 4.06288651 3.2355806 2 3.1875 C0.85144531 3.15269531 -0.29710937 3.11789063 -1.48046875 3.08203125 C-5.1169035 3.40176467 -6.9230914 4.19341727 -9.8125 6.375 C-10.1425 7.035 -10.4725 7.695 -10.8125 8.375 C-15.3125 11.375 -15.3125 11.375 -17.8125 11.375 C-17.39815093 6.54092748 -15.43456046 4.47962326 -11.8125 1.375 C-7.83584343 0.04944781 -4.16580334 0.07325953 0 0 Z " fill="#DEDEDE" transform="translate(185.8125,53.625)"/>
<path d="M0 0 C0 3.99282941 -1.47808076 5.15331592 -4 8.1875 C-4.7425 9.08855469 -5.485 9.98960937 -6.25 10.91796875 C-6.8275 11.60503906 -7.405 12.29210937 -8 13 C-8.99 12.67 -9.98 12.34 -11 12 C-11.32871094 12.51949219 -11.65742188 13.03898438 -11.99609375 13.57421875 C-15.87378091 19.25939152 -19.78681018 22.15319003 -26 25 C-26.65742188 25.30808594 -27.31484375 25.61617187 -27.9921875 25.93359375 C-30.93517068 27.25351539 -33.83307995 28.36661599 -37 29 C-33.30672615 24.8590566 -30.06219262 23.13144953 -25 21 C-21.88623745 18.63354046 -19.13892557 16.13892557 -16.375 13.375 C-14.33481806 11.33481806 -12.40952682 9.5786555 -10 8 C-9.34 8 -8.68 8 -8 8 C-6.57607884 6.71904281 -5.20766179 5.37565088 -3.875 4 C-3.15054688 3.2575 -2.42609375 2.515 -1.6796875 1.75 C-1.12539062 1.1725 -0.57109375 0.595 0 0 Z " fill="#BFBFBF" transform="translate(232,183)"/>
<path d="M0 0 C2 3 2 3 2 5 C2.99 5 3.98 5 5 5 C5.19491452 6.45736087 5.38069358 7.91594593 5.5625 9.375 C5.66691406 10.18710938 5.77132812 10.99921875 5.87890625 11.8359375 C6 14 6 14 5 16 C5.66 16 6.32 16 7 16 C7 20.95 7 25.9 7 31 C5.02 31.99 5.02 31.99 3 33 C3 26.73 3 20.46 3 14 C2.34 14 1.68 14 1 14 C0.67 9.38 0.34 4.76 0 0 Z " fill="#C7C7C7" transform="translate(250,84)"/>
<path d="M0 0 C1.35738281 0.41185547 1.35738281 0.41185547 2.7421875 0.83203125 C3.72316406 1.12078125 4.70414063 1.40953125 5.71484375 1.70703125 C8.23257041 2.52029424 10.69972098 3.41254277 13.1796875 4.33203125 C20.97018941 6.95196872 27.7028399 5.87955655 35.34375 3.3125 C38.15764553 2.48573688 40.7033497 2.41449142 43.6171875 2.64453125 C43.2871875 3.30453125 42.9571875 3.96453125 42.6171875 4.64453125 C40.61958445 4.99194048 38.61930979 5.32419168 36.6171875 5.64453125 C35.6271875 6.30453125 34.6371875 6.96453125 33.6171875 7.64453125 C29.46464412 8.0852493 25.29055533 7.9686887 21.1171875 7.95703125 C19.96347656 7.97314453 18.80976563 7.98925781 17.62109375 8.00585938 C16.51636719 8.00650391 15.41164062 8.00714844 14.2734375 8.0078125 C13.26087891 8.01079346 12.24832031 8.01377441 11.20507812 8.0168457 C8.20758462 7.58560253 7.53462453 6.88480389 5.6171875 4.64453125 C2.89695727 3.63949574 2.89695727 3.63949574 -0.0703125 2.95703125 C-1.06417969 2.70566406 -2.05804688 2.45429688 -3.08203125 2.1953125 C-4.22091797 1.92267578 -4.22091797 1.92267578 -5.3828125 1.64453125 C-2.3828125 -0.35546875 -2.3828125 -0.35546875 0 0 Z " fill="#DADADA" transform="translate(131.3828125,217.35546875)"/>
<path d="M0 0 C0.99 0 1.98 0 3 0 C3.08159574 4.16138263 2.98248524 7.9472484 2 12 C2.66 12 3.32 12 4 12 C3.1875 14.9375 3.1875 14.9375 2 18 C1.01 18.33 0.02 18.66 -1 19 C-0.67 16.69 -0.34 14.38 0 12 C-1.65 13.32 -3.3 14.64 -5 16 C-4.67 13.36 -4.34 10.72 -4 8 C-3.34 8 -2.68 8 -2 8 C-2 6.35 -2 4.7 -2 3 C-1.34 3 -0.68 3 0 3 C0 2.01 0 1.02 0 0 Z " fill="#BDBDBD" transform="translate(252,131)"/>
<path d="M0 0 C6.93286359 0.91566123 10.23110724 1.74199003 15 7 C15.69966432 8.31631762 16.37402472 9.64708568 17 11 C15.51882199 10.71872579 14.04006751 10.42466268 12.5625 10.125 C11.73878906 9.96257813 10.91507813 9.80015625 10.06640625 9.6328125 C9.38449219 9.42398438 8.70257813 9.21515625 8 9 C7.67 8.34 7.34 7.68 7 7 C5.515 6.319375 5.515 6.319375 4 5.625 C1 4 1 4 0.125 1.8125 C0.08375 1.214375 0.0425 0.61625 0 0 Z " fill="#BFBFBF" transform="translate(195,49)"/>
<path d="M0 0 C0.99 0 1.98 0 3 0 C3.57633756 9.26409268 1.93050394 18.20848819 -1 27 C-1.66 27 -2.32 27 -3 27 C-2.27247184 17.96333446 -1.16165032 8.9886923 0 0 Z " fill="#E1E1E1" transform="translate(257,116)"/>
<path d="M0 0 C2.37570543 -0.0816082 4.74855841 -0.14077222 7.125 -0.1875 C7.79015625 -0.21263672 8.4553125 -0.23777344 9.140625 -0.26367188 C13.86902292 -0.33320714 16.95121479 0.59721625 21 3 C21 3.66 21 4.32 21 5 C23.64 5.33 26.28 5.66 29 6 C29.33 5.34 29.66 4.68 30 4 C31.5625 6.375 31.5625 6.375 33 9 C32.67 9.66 32.34 10.32 32 11 C31.34 10.690625 30.68 10.38125 30 10.0625 C27.38815846 9.13747279 25.6954895 8.86107319 23 8.6875 C18.64897745 8.25157525 16.78198959 6.37210859 14 3 C12.12175109 1.12175109 8.96064724 1.60897603 6.4375 1.4375 C5.23996094 1.35371094 4.04242188 1.26992188 2.80859375 1.18359375 C1.88175781 1.12300781 0.95492187 1.06242187 0 1 C0 0.67 0 0.34 0 0 Z " fill="#CDCDCD" transform="translate(182,53)"/>
<path d="M0 0 C0.66 0 1.32 0 2 0 C3.67740512 5.75110327 3.67740512 5.75110327 1.80078125 9.2109375 C-2.22661871 14.61330935 -2.22661871 14.61330935 -5 16 C-5.59218637 10.2261829 -3.62299209 6.00369977 -1 1 C-0.67 0.67 -0.34 0.34 0 0 Z " fill="#C6C6C6" transform="translate(147,90)"/>
<path d="M0 0 C0.33 0.99 0.66 1.98 1 3 C-0.375 5 -0.375 5 -2 7 C-2.33 7.99 -2.66 8.98 -3 10 C-3.66 10 -4.32 10 -5 10 C-5.07476562 10.56847656 -5.14953125 11.13695312 -5.2265625 11.72265625 C-6.29380469 17.99008834 -8.47782467 21.57736941 -13 26 C-13.33 25.34 -13.66 24.68 -14 24 C-13.38125 23.154375 -12.7625 22.30875 -12.125 21.4375 C-10.53979458 19.07350028 -9.86236654 17.51369511 -9.0625 14.6875 C-7.39617535 8.90437326 -5.09214313 3.39476208 0 0 Z " fill="#BEBEBE" transform="translate(247,157)"/>
<path d="M0 0 C1.32 0 2.64 0 4 0 C4.61875 0.94875 5.2375 1.8975 5.875 2.875 C8.38139666 6.56087744 9.70950658 7.1243891 14 8 C14.845625 8 15.69125 8 16.5625 8 C19.46817026 8 21.35286845 8.84612215 24 10 C25.32676508 10.35858516 26.65835921 10.7018576 28 11 C28 11.66 28 12.32 28 13 C24.26609212 12.49735855 20.65077526 11.91269382 17 11 C15.845 10.855625 14.69 10.71125 13.5 10.5625 C10.47570781 10.07645304 8.53083314 9.65477551 6 8 C5.67 7.34 5.34 6.68 5 6 C3.68 6 2.36 6 1 6 C0.67 4.02 0.34 2.04 0 0 Z " fill="#CDCDCD" transform="translate(112,207)"/>
<path d="M0 0 C0.79470703 -0.03738281 1.58941406 -0.07476562 2.40820312 -0.11328125 C6.65283489 -0.17647676 9.37936173 0.06953858 12.76171875 2.7734375 C15.1875 5.375 15.1875 5.375 15.1875 7.375 C13.2075 7.375 11.2275 7.375 9.1875 7.375 C9.1875 5.725 9.1875 4.075 9.1875 2.375 C0.57011147 2.06845258 -6.74725404 1.97910697 -14.8125 5.375 C-10.90212224 -0.3974624 -6.44595081 0.11335805 0 0 Z " fill="#D3D3D3" transform="translate(185.8125,53.625)"/>
<path d="M0 0 C0.33 0.99 0.66 1.98 1 3 C-1.74326404 7.28635006 -2.77027261 8.71776748 -7.8125 9.875 C-8.864375 9.91625 -9.91625 9.9575 -11 10 C-10.67 8.68 -10.34 7.36 -10 6 C-9.360625 5.896875 -8.72125 5.79375 -8.0625 5.6875 C-7.381875 5.460625 -6.70125 5.23375 -6 5 C-5.67 4.01 -5.34 3.02 -5 2 C-2.4375 0.8125 -2.4375 0.8125 0 0 Z " fill="#A7A7A7" transform="translate(167,51)"/>
<path d="M0 0 C0 3.2255339 -0.90474624 5.19858357 -2.203125 8.1015625 C-3.79695305 11.89862344 -4.79590276 15.82644086 -5.5 19.875 C-5.665 20.57625 -5.83 21.2775 -6 22 C-6.66 22.33 -7.32 22.66 -8 23 C-8.83265903 14.67340975 -6.27493171 9.09904462 -2 2 C-1.34 1.34 -0.68 0.68 0 0 Z " fill="#D1D1D1" transform="translate(157,69)"/>
<path d="M0 0 C3.71571859 7.43143718 4.31647697 15.77159881 4 24 C3.01 24.33 2.02 24.66 1 25 C0.67 16.75 0.34 8.5 0 0 Z " fill="#B9B9B9" transform="translate(252,92)"/>
<path d="M0 0 C0.33 0.99 0.66 1.98 1 3 C-2.38232729 6.58128772 -5.67246241 9.60604303 -10 12 C-12.18359375 11.6015625 -12.18359375 11.6015625 -14 11 C-12.41728767 9.72839334 -10.83380365 8.45774715 -9.25 7.1875 C-8.36828125 6.47980469 -7.4865625 5.77210937 -6.578125 5.04296875 C-4.41007071 3.32494998 -2.22271099 1.64626024 0 0 Z " fill="#BBBBBB" transform="translate(130,117)"/>
<path d="M0 0 C0.66 0.66 1.32 1.32 2 2 C1.02180976 3.31322788 0.0424189 4.62556152 -0.9375 5.9375 C-1.75541016 7.03384766 -1.75541016 7.03384766 -2.58984375 8.15234375 C-4 10 -4 10 -5 11 C-7.33297433 11.04092937 -9.66705225 11.04241723 -12 11 C-9.31158141 8.74754119 -7.35358125 7.11786042 -4 6 C-2.90833725 4.06669397 -2.90833725 4.06669397 -2 2 C-1.34 1.34 -0.68 0.68 0 0 Z " fill="#CDCDCD" transform="translate(132,118)"/>
<path d="M0 0 C2.64 0.66 5.28 1.32 8 2 C8 2.66 8 3.32 8 4 C8.99 4.33 9.98 4.66 11 5 C10.01 6.32 9.02 7.64 8 9 C6.2925002 7.71937515 4.62626404 6.38232443 3 5 C3 4.34 3 3.68 3 3 C2.01 2.67 1.02 2.34 0 2 C0 1.34 0 0.68 0 0 Z " fill="#BABABA" transform="translate(104,204)"/>
<path d="M0 0 C0.33 0 0.66 0 1 0 C1.02709444 2.08326131 1.04643873 4.16662441 1.0625 6.25 C1.07410156 7.41015625 1.08570313 8.5703125 1.09765625 9.765625 C1.01648288 12.454087 0.68174973 14.44343852 0 17 C-0.06548492 18.58211573 -0.08578381 20.16670081 -0.0625 21.75 C-0.05347656 22.54921875 -0.04445313 23.3484375 -0.03515625 24.171875 C-0.02355469 24.77515625 -0.01195312 25.3784375 0 26 C-0.99 26.33 -1.98 26.66 -3 27 C-2.27247184 17.96333446 -1.16165032 8.9886923 0 0 Z " fill="#D7D7D7" transform="translate(257,116)"/>
<path d="M0 0 C2.31 0.33 4.62 0.66 7 1 C7.66 2.98 8.32 4.96 9 7 C2.25 5.25 2.25 5.25 0 3 C0 2.01 0 1.02 0 0 Z " fill="#B4B4B4" transform="translate(195,49)"/>
<path d="M0 0 C0.33 0 0.66 0 1 0 C0.67 3.3 0.34 6.6 0 10 C0.66 10 1.32 10 2 10 C1.1875 12.9375 1.1875 12.9375 0 16 C-0.99 16.33 -1.98 16.66 -3 17 C-2.814375 16.236875 -2.62875 15.47375 -2.4375 14.6875 C-1.77180827 11.91032625 -1.77180827 11.91032625 -3 9 C-2.44140625 6.73828125 -2.44140625 6.73828125 -1.5625 4.3125 C-1.13130859 3.10013672 -1.13130859 3.10013672 -0.69140625 1.86328125 C-0.46324219 1.24839844 -0.23507813 0.63351563 0 0 Z " fill="#C8C8C8" transform="translate(254,133)"/>
<path d="M0 0 C0.99 0.33 1.98 0.66 3 1 C2.67 1.99 2.34 2.98 2 4 C2.66 4.66 3.32 5.32 4 6 C1.6875 6.625 1.6875 6.625 -1 7 C-1.99 6.34 -2.98 5.68 -4 5 C-3.34 4.01 -2.68 3.02 -2 2 C-1.34 2 -0.68 2 0 2 C0 1.34 0 0.68 0 0 Z M5 3 C5.66 3 6.32 3 7 3 C7 3.66 7 4.32 7 5 C6.01 4.67 5.02 4.34 4 4 C4.33 3.67 4.66 3.34 5 3 Z " fill="#BFBFBF" transform="translate(106,124)"/>
<path d="M0 0 C0.33 0.66 0.66 1.32 1 2 C-2.52679099 4.35119399 -4.02879485 4.21443452 -8.1875 4.125 C-9.27417969 4.10695312 -10.36085938 4.08890625 -11.48046875 4.0703125 C-12.72763672 4.03550781 -12.72763672 4.03550781 -14 4 C-14.33 3.01 -14.66 2.02 -15 1 C-14.33613281 1.09539062 -13.67226562 1.19078125 -12.98828125 1.2890625 C-6.28354475 2.20315322 -6.28354475 2.20315322 0 0 Z " fill="#D1D1D1" transform="translate(114,128)"/>
<path d="M0 0 C0.33 0 0.66 0 1 0 C1.76173392 4.3164922 2.16063604 7.74433453 1 12 C0.34 12 -0.32 12 -1 12 C-2.17353189 8.47940432 -2.20146402 5.693507 -2 2 C-1.34 1.34 -0.68 0.68 0 0 Z " fill="#D1D1D1" transform="translate(167,82)"/>
<path d="M0 0 C0.66 0.33 1.32 0.66 2 1 C0.75160427 2.41808059 -0.49879221 3.83439995 -1.75 5.25 C-2.79414063 6.43335937 -2.79414063 6.43335937 -3.859375 7.640625 C-5.84586916 9.83011856 -7.89101308 11.92901285 -10 14 C-8.38798165 8.2683792 -4.12110332 4.12110332 0 0 Z " fill="#DDDDDD" transform="translate(165,62)"/>
<path d="M0 0 C0.99 0.33 1.98 0.66 3 1 C3 1.66 3 2.32 3 3 C3.99 3.33 4.98 3.66 6 4 C6 5.65 6 7.3 6 9 C0.42857143 3.85714286 0.42857143 3.85714286 0 0 Z " fill="#C9C9C9" transform="translate(77,184)"/>
<path d="M0 0 C2.125 0.375 2.125 0.375 4 1 C4 1.66 4 2.32 4 3 C1.59454362 4.20272819 0.05003047 4.10071472 -2.625 4.0625 C-3.85089844 4.04896484 -3.85089844 4.04896484 -5.1015625 4.03515625 C-6.04128906 4.01775391 -6.04128906 4.01775391 -7 4 C-7 3.34 -7 2.68 -7 2 C-6.21625 2.04125 -5.4325 2.0825 -4.625 2.125 C-1.83883881 2.28728734 -1.83883881 2.28728734 0 0 Z " fill="#C8C8C8" transform="translate(184,213)"/>
<path d="M0 0 C0.66 0.33 1.32 0.66 2 1 C0.55746343 4.36591866 -1.33264727 6.51047079 -4 9 C-4.25 6.75 -4.25 6.75 -4 4 C-2 1.6875 -2 1.6875 0 0 Z " fill="#D1D1D1" transform="translate(137,109)"/>
<path d="M0 0 C2.88437779 1.29299694 4.87219421 2.65941363 7 5 C6.01 5.99 5.02 6.98 4 8 C3.896875 7.360625 3.79375 6.72125 3.6875 6.0625 C3.460625 5.381875 3.23375 4.70125 3 4 C2.01 3.67 1.02 3.34 0 3 C0 2.01 0 1.02 0 0 Z " fill="#CDCDCD" transform="translate(86,192)"/>
<path d="M0 0 C2 1.375 2 1.375 4 3 C4 3.66 4 4.32 4 5 C2.02 5 0.04 5 -2 5 C-2 3.68 -2 2.36 -2 1 C-1.34 0.67 -0.68 0.34 0 0 Z " fill="#DDDDDD" transform="translate(197,56)"/>
<path d="M0 0 C1.32 0.33 2.64 0.66 4 1 C1.36 2.98 -1.28 4.96 -4 7 C-4.66 6.67 -5.32 6.34 -6 6 C-4 4 -2 2 0 0 Z " fill="#D6D6D6" transform="translate(213,203)"/>
<path d="M0 0 C0.33 0.66 0.66 1.32 1 2 C0.04663979 3.31611677 -0.91285774 4.62778961 -1.875 5.9375 C-2.40867188 6.66839844 -2.94234375 7.39929688 -3.4921875 8.15234375 C-5 10 -5 10 -7 11 C-5.5140084 6.40693504 -3.14985318 3.56430755 0 0 Z " fill="#D2D2D2" transform="translate(149,95)"/>
<path d="M0 0 C0.66 0 1.32 0 2 0 C1.40072174 3.35595828 0.15377564 5.37801226 -2 8 C-2.66 7.67 -3.32 7.34 -4 7 C-1.125 1.125 -1.125 1.125 0 0 Z " fill="#BABABA" transform="translate(147,90)"/>
<path d="M0 0 C1.65 0 3.3 0 5 0 C5.33 1.65 5.66 3.3 6 5 C3.5625 4.1875 3.5625 4.1875 1 3 C0.67 2.01 0.34 1.02 0 0 Z " fill="#E3E3E3" transform="translate(217,34)"/>
<path d="M0 0 C-1.76956458 2.14210449 -2.87575652 2.96060573 -5.5625 3.8125 C-6.366875 3.874375 -7.17125 3.93625 -8 4 C-8.66 3.34 -9.32 2.68 -10 2 C-6.5980513 -0.09350689 -3.94727588 -0.17942163 0 0 Z " fill="#D9D9D9" transform="translate(185,217)"/>
<path d="M0 0 C1.32 0 2.64 0 4 0 C4.99 1.98 5.98 3.96 7 6 C5.02 6 3.04 6 1 6 C0.67 4.02 0.34 2.04 0 0 Z " fill="#C7C7C7" transform="translate(112,207)"/>
<path d="M0 0 C2.875 0.1875 2.875 0.1875 6 1 C7.375 3.5625 7.375 3.5625 8 6 C4.65750371 5.40312566 2.53563658 4.26396123 0 2 C0 1.34 0 0.68 0 0 Z " fill="#CBCBCB" transform="translate(81,121)"/>
<path d="M0 0 C2.64 0 5.28 0 8 0 C6.515 1.98 6.515 1.98 5 4 C2.525 3.01 2.525 3.01 0 2 C0 1.34 0 0.68 0 0 Z " fill="#C7C7C7" transform="translate(98,125)"/>
<path d="M0 0 C-3.42346555 3.14958831 -6.44262737 3.56179109 -11 4 C-11 3.34 -11 2.68 -11 2 C-7.17679443 0.57741188 -4.08718695 -0.24042276 0 0 Z " fill="#CFCFCF" transform="translate(179,217)"/>
<path d="M0 0 C0.75 1.75 0.75 1.75 1 4 C-0.9375 6.25 -0.9375 6.25 -3 8 C-3.1875 5.125 -3.1875 5.125 -3 2 C-2.01 1.34 -1.02 0.68 0 0 Z " fill="#D2D2D2" transform="translate(254,149)"/>
<path d="M0 0 C2.31 0.66 4.62 1.32 7 2 C6.67 2.66 6.34 3.32 6 4 C4.35 4 2.7 4 1 4 C0.67 2.68 0.34 1.36 0 0 Z " fill="#C1C1C1" transform="translate(56,107)"/>
</svg>
