<?xml version="1.0" encoding="UTF-8"?>
<svg version="1.1" xmlns="http://www.w3.org/2000/svg" width="320" height="320">
<path d="M0 0 C2.91670885 0.08747572 4.04952826 0.35400204 6.11328125 2.46044922 C6.67402344 3.27529785 7.23476562 4.09014648 7.8125 4.9296875 C8.50480713 5.93 9.19711426 6.9303125 9.91040039 7.9609375 C10.75504774 9.22243418 11.59716699 10.48562528 12.4375 11.75 C12.94626678 12.5116748 13.45503357 13.27334961 13.97921753 14.05810547 C18.31240257 20.5577646 22.59614844 27.08949754 26.875 33.625 C38.45694951 51.32208416 38.45694951 51.32208416 50.4375 68.75 C54.42622838 68.13952197 57.4908483 66.87855191 61.05859375 65.01171875 C62.1470459 64.44525635 63.23549805 63.87879395 64.35693359 63.29516602 C65.51789551 62.68213623 66.67885742 62.06910645 67.875 61.4375 C69.09698941 60.79775453 70.31915978 60.15835458 71.54150391 59.51928711 C79.71550902 55.23471515 87.8256671 50.83722632 95.90771484 46.38183594 C105.11753868 41.32711064 114.45702885 36.52709872 123.80615234 31.73657227 C124.40861282 31.42720734 125.0110733 31.11784241 125.63179016 30.79910278 C127.27268374 29.9568656 128.91474452 29.11690353 130.55688477 28.27709961 C133.44997385 26.79049773 133.44997385 26.79049773 136.14428711 25.03735352 C138.4375 23.75 138.4375 23.75 141.1875 24 C143.4375 24.75 143.4375 24.75 144.4375 25.75 C145.03124202 32.00987021 143.27326918 36.67239272 140.94921875 42.4296875 C140.3936731 43.84758575 140.3936731 43.84758575 139.8269043 45.29412842 C138.60379654 48.40882034 137.36438253 51.51675245 136.125 54.625 C135.26740271 56.8007838 134.41105742 58.97706146 133.5559082 61.15380859 C131.76728911 65.70404163 129.97320873 70.25206791 128.17578125 74.79882812 C125.47493915 81.6416978 122.80978698 88.49804157 120.15625 95.359375 C119.73140823 96.45786774 119.30656647 97.55636047 118.86885071 98.68814087 C118.02905901 100.86040528 117.18944123 103.03273693 116.3500061 105.20513916 C113.37407448 112.90574498 110.39122281 120.60355012 107.39056396 128.29455566 C106.48608314 130.62483192 105.59439095 132.95961491 104.70556641 135.29589844 C104.18550598 136.64268807 103.66518118 137.98937565 103.14453125 139.3359375 C102.71245361 140.46821777 102.28037598 141.60049805 101.83520508 142.76708984 C99.17618319 148.44183735 96.30701625 151.45089944 90.4375 153.75 C87.14868164 154.35009766 87.14868164 154.35009766 83.59765625 154.6640625 C82.28603516 154.78523437 80.97441406 154.90640625 79.62304688 155.03125 C78.2487103 155.14598176 76.87436129 155.26056471 75.5 155.375 C74.16070995 155.49632602 72.8215157 155.61871452 71.48242188 155.7421875 C67.4693204 156.10445355 63.45534272 156.44468305 59.4375 156.75 C58.39444199 156.83439331 57.35138397 156.91878662 56.27671814 157.0057373 C45.86246234 157.78631075 35.49760657 157.93073537 25.05859375 157.953125 C23.6940742 157.95736607 23.6940742 157.95736607 22.3019886 157.96169281 C17.46654104 157.97659348 12.63112249 157.9858746 7.7956543 157.99023438 C3.88963244 157.99457395 -0.01616291 158.00830146 -3.92211914 158.03125 C-24.26279751 158.14825972 -44.49178747 157.98956931 -64.77734375 156.359375 C-65.56685488 156.29662636 -66.356366 156.23387772 -67.16980171 156.1692276 C-91.73561344 154.16379241 -91.73561344 154.16379241 -97.5625 148.75 C-99.35239132 145.77444096 -100.6147785 142.66188007 -101.87890625 139.43359375 C-102.25882217 138.505504 -102.6387381 137.57741425 -103.03016663 136.62120056 C-104.22925761 133.67229603 -105.39890025 130.71306998 -106.5625 127.75 C-106.93042664 126.82326477 -107.29835327 125.89652954 -107.6774292 124.94171143 C-110.33209729 118.24994823 -112.92184798 111.5340406 -115.5 104.8125 C-117.14919179 100.52402599 -118.80066348 96.23643382 -120.453125 91.94921875 C-120.87051437 90.86545959 -121.28790375 89.78170044 -121.71794128 88.6651001 C-124.69530038 80.95091161 -127.7326507 73.26207662 -130.796875 65.58203125 C-132.04577597 62.43961639 -133.29402874 59.29694457 -134.54226685 56.15426636 C-135.34234606 54.14748776 -136.1465565 52.14235093 -136.95504761 50.13894653 C-138.07832487 47.35455422 -139.18700286 44.5647419 -140.29296875 41.7734375 C-140.62637268 40.95893631 -140.95977661 40.14443512 -141.30328369 39.30525208 C-143.13230742 34.64301122 -144.11085232 30.84654664 -143.5625 25.75 C-142.9025 25.09 -142.2425 24.43 -141.5625 23.75 C-137.01379206 24.06700556 -133.69138738 25.49312615 -129.73046875 27.671875 C-128.61494629 28.27862061 -127.49942383 28.88536621 -126.35009766 29.51049805 C-125.76383606 29.83448578 -125.17757446 30.15847351 -124.57354736 30.49227905 C-122.08339605 31.86837583 -119.58324952 33.22581437 -117.08331299 34.58403015 C-115.79664983 35.283091 -114.51047916 35.98305904 -113.22479248 36.68391418 C-107.09082045 40.02285617 -100.89562974 43.23879303 -94.6875 46.4375 C-85.66118705 51.10061668 -76.71085971 55.88630561 -67.81494141 60.79370117 C-59.11093569 66.27802679 -59.11093569 66.27802679 -49.5625 68.75 C-48.10498075 67.18573967 -48.10498075 67.18573967 -46.7890625 65.01171875 C-46.22517822 64.14877197 -45.66129395 63.2858252 -45.08032227 62.39672852 C-44.45569092 61.42018311 -43.83105957 60.4436377 -43.1875 59.4375 C-41.77406094 57.27214772 -40.35856471 55.10822474 -38.94140625 52.9453125 C-38.54447067 52.33722244 -38.1475351 51.72913239 -37.73857117 51.10261536 C-31.95895066 42.26458859 -26.03174783 33.52479049 -20.12298584 24.77285767 C-18.13103684 21.82144461 -16.14171729 18.86827319 -14.15283203 15.91479492 C-12.91579136 14.0798471 -11.67865373 12.24496464 -10.44140625 10.41015625 C-9.5736985 9.12109879 -9.5736985 9.12109879 -8.6884613 7.80599976 C-8.15906448 7.02189728 -7.62966766 6.2377948 -7.08422852 5.42993164 C-6.61952652 4.74065079 -6.15482452 4.05136993 -5.67604065 3.34120178 C-3.73673126 0.57001192 -3.75780314 0.79111645 0 0 Z " fill="#FE4A4A" transform="translate(159.5625,80.25)"/>
<path d="M0 0 C2.91670885 0.08747572 4.04952826 0.35400204 6.11328125 2.46044922 C6.67402344 3.27529785 7.23476562 4.09014648 7.8125 4.9296875 C8.50480713 5.93 9.19711426 6.9303125 9.91040039 7.9609375 C10.75504774 9.22243418 11.59716699 10.48562528 12.4375 11.75 C12.94626678 12.5116748 13.45503357 13.27334961 13.97921753 14.05810547 C18.31240257 20.5577646 22.59614844 27.08949754 26.875 33.625 C38.45694951 51.32208416 38.45694951 51.32208416 50.4375 68.75 C54.42622838 68.13952197 57.4908483 66.87855191 61.05859375 65.01171875 C62.1470459 64.44525635 63.23549805 63.87879395 64.35693359 63.29516602 C65.51789551 62.68213623 66.67885742 62.06910645 67.875 61.4375 C69.09698941 60.79775453 70.31915978 60.15835458 71.54150391 59.51928711 C79.71550902 55.23471515 87.8256671 50.83722632 95.90771484 46.38183594 C105.11753868 41.32711064 114.45702885 36.52709872 123.80615234 31.73657227 C124.40861282 31.42720734 125.0110733 31.11784241 125.63179016 30.79910278 C127.27268374 29.9568656 128.91474452 29.11690353 130.55688477 28.27709961 C133.44997385 26.79049773 133.44997385 26.79049773 136.14428711 25.03735352 C138.4375 23.75 138.4375 23.75 141.1875 24 C143.4375 24.75 143.4375 24.75 144.4375 25.75 C145.03124202 32.00987021 143.27326918 36.67239272 140.94921875 42.4296875 C140.3936731 43.84758575 140.3936731 43.84758575 139.8269043 45.29412842 C138.60379654 48.40882034 137.36438253 51.51675245 136.125 54.625 C135.26740271 56.8007838 134.41105742 58.97706146 133.5559082 61.15380859 C131.76728911 65.70404163 129.97320873 70.25206791 128.17578125 74.79882812 C125.47493915 81.6416978 122.80978698 88.49804157 120.15625 95.359375 C119.73140823 96.45786774 119.30656647 97.55636047 118.86885071 98.68814087 C118.02905901 100.86040528 117.18944123 103.03273693 116.3500061 105.20513916 C113.70499824 112.04943717 111.05792133 118.89284488 108.38818359 125.72753906 C107.14671895 128.90799347 105.93061858 132.0958176 104.74072266 135.29589844 C104.22951246 136.64258582 103.71828344 137.98926606 103.20703125 139.3359375 C102.78655518 140.46821777 102.3660791 141.60049805 101.93286133 142.76708984 C100.24660876 146.13078517 98.21698256 148.24260403 95.4375 150.75 C95.0453833 150.31099365 94.6532666 149.8719873 94.24926758 149.41967773 C92.12722739 147.46406086 90.02297904 146.3414553 87.44921875 145.03515625 C86.4447168 144.52033691 85.44021484 144.00551758 84.40527344 143.47509766 C83.3227832 142.92644043 82.24029297 142.3777832 81.125 141.8125 C72.91864496 137.60354019 64.76116221 133.33327309 56.6875 128.875 C47.55895459 123.84704049 38.32268739 119.04503942 29.05432129 114.2822876 C20.24396425 109.75223697 11.51150085 105.10182188 2.83740234 100.31518555 C-4.85052065 96.09268953 -12.63675295 92.07075301 -20.4375 88.0625 C-28.44467541 83.94369088 -36.44712478 79.82321554 -44.3125 75.4375 C-44.95558105 75.08276611 -45.59866211 74.72803223 -46.26123047 74.36254883 C-50.43924718 71.99650565 -50.43924718 71.99650565 -51.5625 69.75 C-50.9945874 69.22446533 -50.4266748 68.69893066 -49.84155273 68.1574707 C-47.22533886 65.39384082 -45.17105497 62.4032686 -43.09765625 59.23046875 C-42.45837692 58.26522026 -42.45837692 58.26522026 -41.80618286 57.2804718 C-40.88722281 55.89207116 -39.97031769 54.50230863 -39.05526733 53.11132812 C-36.61676019 49.40510113 -34.16273414 45.70916167 -31.7109375 42.01171875 C-31.20723129 41.25120209 -30.70352509 40.49068542 -30.18455505 39.7071228 C-25.21593928 32.2112136 -20.19093881 24.75399226 -15.14572144 17.30947876 C-14.21588915 15.93745008 -13.28662794 14.5650342 -12.35794067 13.19223022 C-11.06668866 11.28356064 -9.77389404 9.37594731 -8.48046875 7.46875 C-7.74594482 6.38529297 -7.0114209 5.30183594 -6.25463867 4.18554688 C-3.92002688 0.82526882 -3.92002688 0.82526882 0 0 Z " fill="#BD3F42" transform="translate(159.5625,80.25)"/>
<path d="M0 0 C2.25 0.75 2.25 0.75 3.25 1.75 C3.84374172 8.00986706 2.08577364 12.67239739 -0.23828125 18.4296875 C-0.60869034 19.37504364 -0.97909943 20.32039978 -1.36073303 21.29440308 C-2.58382381 24.40899134 -3.8232021 27.51682925 -5.0625 30.625 C-5.91937513 32.799315 -6.77498798 34.97412784 -7.62939453 37.14941406 C-9.4171748 41.69822472 -11.21046361 46.24480812 -13.00732422 50.79003906 C-17.01672959 60.94648702 -20.95298758 71.13126363 -24.89242554 81.31500244 C-26.48068338 85.4190931 -28.07238907 89.52184228 -29.66407776 93.62460327 C-33.04016391 102.32767348 -36.40765964 111.03390302 -39.75 119.75 C-40.74 119.75 -41.73 119.75 -42.75 119.75 C-44.09059143 118.26127625 -44.09059143 118.26127625 -45.46704102 116.1394043 C-46.25132477 114.94743439 -46.25132477 114.94743439 -47.05145264 113.73138428 C-47.61326233 112.85451965 -48.17507202 111.97765503 -48.75390625 111.07421875 C-49.34544495 110.16955872 -49.93698364 109.26489868 -50.54644775 108.33282471 C-52.47827546 105.37397811 -54.39546669 102.4059488 -56.3125 99.4375 C-57.62680603 97.41737163 -58.94215616 95.39792219 -60.25854492 93.37915039 C-62.23072905 90.35453755 -64.20222581 87.32950868 -66.16975403 84.30186462 C-69.957599 78.47662477 -73.78134087 72.67902823 -77.671875 66.921875 C-78.31666054 65.9661132 -78.31666054 65.9661132 -78.97447205 64.99104309 C-80.54892347 62.65930014 -82.12438555 60.32838469 -83.71218872 58.00570679 C-84.75793356 56.4751975 -85.79525708 54.93894399 -86.83203125 53.40234375 C-87.40155518 52.56695068 -87.9710791 51.73155762 -88.55786133 50.87084961 C-89.75 48.75 -89.75 48.75 -89.75 45.75 C-88.92612793 45.3281543 -88.10225586 44.90630859 -87.25341797 44.47167969 C-73.11193101 37.22296311 -58.98910801 29.96482718 -45.07788086 22.28051758 C-35.93752701 17.25473206 -26.66287556 12.49248208 -17.38037109 7.73608398 C-16.77805161 7.42678955 -16.17573212 7.11749512 -15.55516052 6.79882812 C-13.91445185 5.95667899 -12.27257322 5.11681032 -10.63061523 4.27709961 C-7.73752615 2.79049773 -7.73752615 2.79049773 -5.04321289 1.03735352 C-2.75 -0.25 -2.75 -0.25 0 0 Z " fill="#7D353A" transform="translate(300.75,104.25)"/>
</svg>
