<?xml version="1.0" encoding="UTF-8"?>
<svg version="1.1" xmlns="http://www.w3.org/2000/svg" width="217" height="233">
<path d="M0 0 C71.61 0 143.22 0 217 0 C217 76.89 217 153.78 217 233 C145.39 233 73.78 233 0 233 C0 156.11 0 79.22 0 0 Z " fill="#EC8E24" transform="translate(0,0)"/>
<path d="M0 0 C71.61 0 143.22 0 217 0 C217 17.82 217 35.64 217 54 C212.71 56.64 208.42 59.28 204 62 C202.411875 63.00289062 200.82375 64.00578125 199.1875 65.0390625 C197.79217299 65.90186104 196.39635683 66.76386913 195 67.625 C194.28972656 68.08261719 193.57945312 68.54023437 192.84765625 69.01171875 C192.15542969 69.43324219 191.46320313 69.85476562 190.75 70.2890625 C189.84507812 70.85681396 189.84507812 70.85681396 188.921875 71.43603516 C185.28177203 72.50420562 182.41389952 70.22122532 179.24291992 68.52636719 C178.24881104 67.95563477 177.25470215 67.38490234 176.23046875 66.796875 C174.54256226 65.83044067 174.54256226 65.83044067 172.82055664 64.84448242 C171.60946025 64.14645608 170.39844311 63.44829222 169.1875 62.75 C167.94077964 62.03407677 166.69395219 61.31834001 165.44702148 60.6027832 C131.59795082 41.1573642 131.59795082 41.1573642 127.51538086 38.20043945 C125.06978505 36.70550492 125.06978505 36.70550492 122.54370117 37.61450195 C121.70427979 38.07171631 120.8648584 38.52893066 120 39 C119.10063721 39.48106201 118.20127441 39.96212402 117.2746582 40.45776367 C116.29327881 41.02213135 115.31189941 41.58649902 114.30078125 42.16796875 C112.63088135 43.12521851 112.63088135 43.12521851 110.92724609 44.10180664 C109.72228318 44.79695534 108.5173691 45.4921887 107.3125 46.1875 C106.05565201 46.90968618 104.79865088 47.6316059 103.54150391 48.35327148 C100.31362852 50.20743067 97.08810651 52.06563953 93.86346436 53.92541504 C91.00474796 55.57392183 88.14481546 57.22031688 85.28515625 58.8671875 C79.95509218 61.93874984 74.62773306 65.01497244 69.30126953 68.09277344 C63.47297454 71.45992626 57.6426826 74.82361698 51.8125 78.1875 C50.73145996 78.81148682 49.65041992 79.43547363 48.53662109 80.07836914 C46.55131474 81.22400454 44.56353439 82.36536852 42.57275391 83.50146484 C41.00277608 84.41591957 39.44791156 85.35789039 37.92333984 86.34619141 C35.1649342 88.10949034 33.51001349 89.03571958 30.19384766 88.8034668 C26.60452304 87.90051103 23.95234576 86.52794109 20.76171875 84.65625 C20.19548294 84.32709595 19.62924713 83.99794189 19.04585266 83.65881348 C17.25453969 82.61447274 15.47117036 81.55732913 13.6875 80.5 C12.47117953 79.78954833 11.2543867 79.0799047 10.03710938 78.37109375 C1.21036648 73.21036648 1.21036648 73.21036648 0 72 C0 48.24 0 24.48 0 0 Z " fill="#F7BE3C" transform="translate(0,0)"/>
<path d="M0 0 C3.88461437 1.55384575 7.17185557 3.13764688 10.76953125 5.203125 C11.89496338 5.84749512 13.02039551 6.49186523 14.17993164 7.15576172 C15.39087201 7.85369499 16.60172627 8.55177769 17.8125 9.25 C19.05775916 9.96518443 20.30312171 10.68018887 21.54858398 11.39501953 C31.86933076 17.32480112 42.16465431 23.29901312 52.44140625 29.3046875 C53.25295166 29.77890137 54.06449707 30.25311523 54.90063477 30.74169922 C56.63080584 31.77871535 58.32162969 32.88108646 60 34 C64.17963909 33.67652846 67.25668407 31.93747407 70.8515625 29.875 C71.94984375 29.25109375 73.048125 28.6271875 74.1796875 27.984375 C75.31664062 27.32953125 76.45359375 26.6746875 77.625 26 C79.88675286 24.70611435 82.14971782 23.4143445 84.4140625 22.125 C85.4138916 21.55007812 86.4137207 20.97515625 87.44384766 20.3828125 C90 19 90 19 93 18 C93 65.19 93 112.38 93 161 C52.41 161 11.82 161 -30 161 C-26.86501344 157.86501344 -25.1348214 157.15792577 -21.0546875 155.69140625 C-13.47436169 152.53956716 -6.24791569 149.52457507 -1 143 C1.50999381 135.71907928 0.53102004 127.33899899 -0.35302734 119.83422852 C-0.8162399 115.27724513 -1.00236464 111.50806191 0 107 C4.87651505 102.13966902 10.91211166 99.7655395 17.16027832 97.06698608 C25.39349542 93.67596986 25.39349542 93.67596986 30.79266357 87.07244873 C32.02133392 81.55959274 31.70910015 76.03945797 31.4375 70.4375 C31.4104376 68.74423661 31.39019452 67.05084975 31.37695312 65.35742188 C31.32997044 61.23266151 31.19057927 57.12052099 31 53 C30.30237549 52.7417041 29.60475098 52.4834082 28.88598633 52.21728516 C25.69979794 50.87337725 22.81388877 49.26127525 19.82421875 47.5234375 C18.78096436 46.91935059 17.73770996 46.31526367 16.6628418 45.69287109 C15.350979 44.92797363 14.03911621 44.16307617 12.6875 43.375 C8.500625 40.94125 4.31375 38.5075 0 36 C0 24.12 0 12.24 0 0 Z " fill="#FEFEFE" transform="translate(124,72)"/>
<path d="M0 0 C0 11.88 0 23.76 0 36 C1.65 36.66 3.3 37.32 5 38 C6.86230597 39.06361649 8.70368813 40.16436619 10.52734375 41.29296875 C11.56697266 41.92267578 12.60660156 42.55238281 13.67773438 43.20117188 C15.85329448 44.52684271 18.0225997 45.86283265 20.18554688 47.20898438 C21.22646484 47.83482422 22.26738281 48.46066406 23.33984375 49.10546875 C24.28206787 49.68449951 25.22429199 50.26353027 26.19506836 50.86010742 C29.70142552 52.28505142 31.38911323 52.05310195 35 51 C37.89210484 49.64178707 37.89210484 49.64178707 40.73046875 47.875 C41.78041016 47.25109375 42.83035156 46.6271875 43.91210938 45.984375 C44.99298828 45.32953125 46.07386719 44.6746875 47.1875 44 C49.34626726 42.70601325 51.50636265 41.41423888 53.66796875 40.125 C54.61953857 39.55007812 55.5711084 38.97515625 56.55151367 38.3828125 C59 37 59 37 62 36 C62.22329729 40.87436991 62.38613882 45.74573961 62.49438477 50.62402344 C62.53951672 52.28112654 62.60084462 53.93787369 62.67895508 55.59375 C63.30363329 69.18152185 63.30363329 69.18152185 60.34326172 73.31103516 C57.94806374 75.00374137 55.76242865 76.01844172 53 77 C52.11127197 77.3201709 51.22254395 77.6403418 50.30688477 77.97021484 C49.40123779 78.29199707 48.49559082 78.6137793 47.5625 78.9453125 C41.3843537 81.22181563 35.85437927 83.43760942 32 89 C29.93041694 96.35406649 30.73254122 104.59193589 31.4296875 112.10205078 C31.78337322 116.62875955 31.92893537 120.52520848 31 125 C27.22516757 128.94596008 22.95311664 130.83371027 18 133 C16.3756157 133.98027421 14.76802541 134.98953817 13.1875 136.0390625 C11.79217299 136.90186104 10.39635683 137.76386913 9 138.625 C8.28972656 139.08261719 7.57945313 139.54023438 6.84765625 140.01171875 C6.15542969 140.43324219 5.46320313 140.85476562 4.75 141.2890625 C4.14671875 141.66756348 3.5434375 142.04606445 2.921875 142.43603516 C-0.77983612 143.52228423 -3.72627325 141.14793889 -6.93847656 139.41186523 C-8.52354004 138.49449585 -8.52354004 138.49449585 -10.140625 137.55859375 C-10.70827576 137.23085464 -11.27592651 136.90311554 -11.86077881 136.56544495 C-13.05165144 135.87699029 -14.24160078 135.1869363 -15.43066406 134.49536133 C-17.25628193 133.43384734 -19.08491123 132.37767709 -20.9140625 131.32226562 C-29.85086462 126.14913538 -29.85086462 126.14913538 -31 125 C-31.0954693 123.59588683 -31.12188529 122.18700191 -31.12025452 120.77964783 C-31.12162918 119.86954453 -31.12300385 118.95944122 -31.12442017 118.02175903 C-31.12082489 117.01547455 -31.11722961 116.00919006 -31.11352539 114.97241211 C-31.11367142 113.91888046 -31.11381744 112.86534882 -31.1139679 111.77989197 C-31.11326826 108.279022 -31.10547348 104.77820448 -31.09765625 101.27734375 C-31.09579225 98.85738657 -31.09436826 96.43742901 -31.09336853 94.01747131 C-31.08954192 87.63384976 -31.07971041 81.25025079 -31.06866455 74.86663818 C-31.05845351 68.35836086 -31.05387157 61.8500799 -31.04882812 55.34179688 C-31.03808827 42.56118825 -31.02120112 29.78059533 -31 17 C-30.33991943 16.62713867 -29.67983887 16.25427734 -28.99975586 15.87011719 C-25.97890376 14.16358866 -22.95820074 12.45679643 -19.9375 10.75 C-18.89916016 10.16347656 -17.86082031 9.57695313 -16.79101562 8.97265625 C-15.26831055 8.11220703 -15.26831055 8.11220703 -13.71484375 7.234375 C-12.72983887 6.67814453 -11.74483398 6.12191406 -10.72998047 5.54882812 C-8.41819344 4.23725802 -6.11595306 2.91095714 -3.81640625 1.578125 C-1 0 -1 0 0 0 Z " fill="#E55B2D" transform="translate(93,90)"/>
<path d="M0 0 C3.92757687 1.57103075 7.19782079 3.17639344 10.81640625 5.29296875 C11.91017578 5.92267578 13.00394531 6.55238281 14.13085938 7.20117188 C16.4266375 8.5300315 18.71829711 9.86603092 21.00585938 11.20898438 C22.09833984 11.83482422 23.19082031 12.46066406 24.31640625 13.10546875 C25.31099854 13.68449951 26.30559082 14.26353027 27.33032227 14.86010742 C29.82882138 16.16624461 29.82882138 16.16624461 32.02734375 15.86035156 C34.53817861 14.76527953 36.87377408 13.5006757 39.24609375 12.12890625 C40.24833984 11.55462891 41.25058594 10.98035156 42.28320312 10.38867188 C43.84458008 9.4847168 43.84458008 9.4847168 45.4375 8.5625 C47.49701515 7.3733828 49.55815833 6.18707987 51.62109375 5.00390625 C52.5330249 4.47611572 53.44495605 3.9483252 54.38452148 3.40454102 C56.87704456 2.06602844 59.36788287 1.02761667 62 0 C61.95479218 1.30719498 61.90958435 2.61438995 61.86300659 3.9611969 C61.45244864 16.33195814 61.18148103 28.69912646 61.04403496 41.07602024 C60.96896563 47.43916454 60.84631845 53.7936698 60.61132812 60.15307617 C58.0110811 86.63138081 58.0110811 86.63138081 65.60900879 110.7711792 C71.33658394 116.40059164 78.60414547 119.21190408 86.306427 121.14634705 C89 122 89 122 92 125 C61.64 125 31.28 125 0 125 C0 83.75 0 42.5 0 0 Z " fill="#FEFEFE" transform="translate(0,108)"/>
<path d="M0 0 C40.59 0 81.18 0 123 0 C120.18780573 2.81219427 117.92364493 4.33343385 114.49609375 6.265625 C113.37638184 6.90056885 112.25666992 7.5355127 111.10302734 8.18969727 C110.20834747 8.6925676 110.20834747 8.6925676 109.29559326 9.20559692 C106.76158447 10.62992079 104.23366239 12.06489886 101.7052002 13.4990387 C100.39750414 14.24053345 99.08947639 14.98144351 97.78112793 15.7217865 C91.45870435 19.30012854 85.16425348 22.92620131 78.875 26.5625 C76.72656553 27.80339067 74.57812803 29.04427608 72.4296875 30.28515625 C71.36975586 30.89762207 70.30982422 31.51008789 69.21777344 32.14111328 C63.81329357 35.26324604 58.4065396 38.38143586 53 41.5 C46.93912057 44.99627287 40.87831358 48.49266961 34.81872559 51.99118042 C33.08363272 52.99291394 31.34846743 53.99452189 29.61328125 54.99609375 C27.45949332 56.23933719 25.30583529 57.48280572 23.15234375 58.7265625 C15.44747491 63.17360093 7.72422105 67.5861594 0 72 C0 48.24 0 24.48 0 0 Z " fill="#FEFEFE" transform="translate(0,0)"/>
<path d="M0 0 C7.26338941 3.94041277 14.49395624 7.93350282 21.6875 12 C22.65993652 12.54889893 23.63237305 13.09779785 24.63427734 13.66333008 C33.20832024 18.51866774 41.7169441 23.48336347 50.1940918 28.50585938 C51.14324463 29.06466797 52.09239746 29.62347656 53.0703125 30.19921875 C53.90320801 30.69252686 54.73610352 31.18583496 55.59423828 31.6940918 C56.38813965 32.1250415 57.18204102 32.55599121 58 33 C58.81267334 33.44472656 59.62534668 33.88945313 60.46264648 34.34765625 C63.0531714 35.27296512 63.0531714 35.27296512 65.67553711 33.98950195 C66.6166333 33.41159912 67.55772949 32.83369629 68.52734375 32.23828125 C69.56697266 31.61373047 70.60660156 30.98917969 71.67773438 30.34570312 C72.75345703 29.67474609 73.82917969 29.00378906 74.9375 28.3125 C77.07080035 27.0155868 79.20489097 25.71997244 81.33984375 24.42578125 C82.28206787 23.84223877 83.22429199 23.25869629 84.19506836 22.6574707 C87.05358804 20.96833413 90.03024349 19.48487826 93 18 C93 29.88 93 41.76 93 54 C80.1875 61.375 80.1875 61.375 76.15698242 63.69287109 C75.10873291 64.29695801 74.0604834 64.90104492 72.98046875 65.5234375 C71.90692139 66.14138184 70.83337402 66.75932617 69.72729492 67.39599609 C67.78300181 68.53949316 65.8767966 69.74880227 64 71 C60.02071567 70.66261153 57.08071524 69.14186335 53.640625 67.19140625 C52.61582031 66.61422852 51.59101563 66.03705078 50.53515625 65.44238281 C49.45105469 64.82202148 48.36695313 64.20166016 47.25 63.5625 C46.12980469 62.92795898 45.00960937 62.29341797 43.85546875 61.63964844 C38.94643257 58.8511919 34.05156635 56.03871241 29.171875 53.19921875 C28.11262817 52.58348999 28.11262817 52.58348999 27.03198242 51.95532227 C25.67959434 51.15311874 24.33830924 50.33188933 23.0090332 49.49194336 C19.45742664 47.2713656 16.19517274 45.66758267 12.18359375 44.4296875 C6.9930682 42.59129964 2.7625101 41.00269685 0 36 C-2.68374253 24.51667858 -0.99692071 11.62562919 0 0 Z " fill="#E55B2D" transform="translate(124,36)"/>
<path d="M0 0 C30.36 0 60.72 0 92 0 C92 17.82 92 35.64 92 54 C87.38 51.36 82.76 48.72 78 46 C73.55273837 43.51245767 73.55273837 43.51245767 69.10180664 41.03149414 C58.71255287 35.25021908 48.39168947 29.3650408 38.13842773 23.34594727 C32.71614589 20.16344947 27.28045778 17.00755262 21.8203125 13.890625 C20.61838371 13.20308644 19.4164792 12.51550542 18.21459961 11.82788086 C15.9082631 10.50859885 13.59882022 9.19534434 11.28735352 7.88500977 C10.24764404 7.29002686 9.20793457 6.69504395 8.13671875 6.08203125 C7.21592529 5.55843018 6.29513184 5.0348291 5.34643555 4.49536133 C3 3 3 3 0 0 Z " fill="#FEFEFE" transform="translate(125,0)"/>
<path d="M0 0 C7.09191796 3.86831889 14.14139792 7.75911949 21.125 11.8125 C21.97320312 12.30169922 22.82140625 12.79089844 23.6953125 13.29492188 C24.901875 13.99391602 24.901875 13.99391602 26.1328125 14.70703125 C26.85355957 15.1244458 27.57430664 15.54186035 28.31689453 15.97192383 C30 17 30 17 31 18 C31.48580355 22.99932649 31.65644124 27.99706145 31.78955078 33.0168457 C31.84613139 34.70246277 31.92783851 36.38743926 32.03564453 38.07055664 C32.73337698 49.17193922 32.73337698 49.17193922 31 54 C27.20381408 57.9524684 22.98336686 59.85069338 18 62 C16.34268271 62.97122854 14.70048983 63.96921919 13.08203125 65.00390625 C11.65953952 65.85791344 10.23638511 66.71081802 8.8125 67.5625 C8.07708984 68.01173828 7.34167969 68.46097656 6.58398438 68.92382812 C4.75849672 70.01174501 2.88296306 71.01490181 1 72 C0.34 71.67 -0.32 71.34 -1 71 C-0.67 47.57 -0.34 24.14 0 0 Z " fill="#EC8E23" transform="translate(93,161)"/>
<path d="M0 0 C1.98364845 0.95208244 3.93262429 1.97811966 5.8515625 3.0546875 C6.94984375 3.66957031 8.048125 4.28445312 9.1796875 4.91796875 C10.31664062 5.56378906 11.45359375 6.20960937 12.625 6.875 C13.7696875 7.51308594 14.914375 8.15117188 16.09375 8.80859375 C25.35145294 14.02558164 25.35145294 14.02558164 28 17 C27.29915283 17.40839111 26.59830566 17.81678223 25.8762207 18.23754883 C22.68812172 20.09553651 19.50030814 21.95401335 16.3125 23.8125 C15.20970703 24.45509766 14.10691406 25.09769531 12.97070312 25.75976562 C11.3706543 26.69272461 11.3706543 26.69272461 9.73828125 27.64453125 C8.75899658 28.21534424 7.77971191 28.78615723 6.77075195 29.37426758 C4.93242865 30.4528996 3.11342204 31.56519043 1.31616211 32.7109375 C-1 34 -1 34 -3.796875 33.98046875 C-8.0344615 32.68335386 -11.49344525 30.63036527 -15.25 28.3125 C-16.36846313 27.63791748 -16.36846313 27.63791748 -17.50952148 26.94970703 C-18.99361887 26.05361788 -20.47537636 25.1536402 -21.95458984 24.24951172 C-24.6458095 22.60548424 -27.35419503 20.99068408 -30.0625 19.375 C-31.37549052 18.58414714 -32.68822459 17.79286671 -34 17 C-30.16046551 12.69721554 -24.87079313 10.17645923 -19.93994141 7.31005859 C-18.12991666 6.25287169 -16.33283205 5.17567184 -14.53515625 4.09765625 C-13.38095092 3.42320675 -12.22602573 2.74998734 -11.0703125 2.078125 C-10.02633301 1.46356445 -8.98235352 0.84900391 -7.90673828 0.21582031 C-4.54978574 -1.18831404 -3.38632021 -1.20303481 0 0 Z " fill="#F7BE3C" transform="translate(127,109)"/>
<path d="M0 0 C7.07962446 3.40705143 13.84976723 7.17137756 20.5625 11.25 C21.46291016 11.79140625 22.36332031 12.3328125 23.29101562 12.890625 C29.85193452 16.85193452 29.85193452 16.85193452 31 18 C31.08851529 20.59359322 31.11525945 23.16039691 31.09765625 25.75390625 C31.0962413 26.52935287 31.09482635 27.3047995 31.09336853 28.10374451 C31.08775345 30.59003494 31.07519846 33.0762366 31.0625 35.5625 C31.05748694 37.24413933 31.0529237 38.92578006 31.04882812 40.60742188 C31.03777913 44.73831566 31.02050445 48.86914276 31 53 C30.09813965 52.53166748 29.1962793 52.06333496 28.26708984 51.58081055 C20.31759385 47.44704603 20.31759385 47.44704603 11.9140625 44.39453125 C6.76589541 42.65916825 2.74434733 40.89524696 0 36 C-2.72386007 24.54140514 -0.99540952 11.6080064 0 0 Z " fill="#E55B2D" transform="translate(0,72)"/>
<path d="M0 0 C0.22329729 4.87436991 0.38613882 9.74573961 0.49438477 14.62402344 C0.53951672 16.28112654 0.60084462 17.93787369 0.67895508 19.59375 C1.30632791 33.24013414 1.30632791 33.24013414 -1.65673828 37.23193359 C-4.02871435 38.84162094 -6.3535421 39.90316527 -9 41 C-10.82426304 42.05013782 -12.63660816 43.12120649 -14.4375 44.2109375 C-16.28974767 45.26899153 -18.14393257 46.32366111 -20 47.375 C-20.95261719 47.92027344 -21.90523437 48.46554688 -22.88671875 49.02734375 C-29.86624765 53 -29.86624765 53 -31 53 C-31 41.12 -31 29.24 -31 17 C-26.42125 14.380625 -21.8425 11.76125 -17.125 9.0625 C-15.68141113 8.2362915 -14.23782227 7.41008301 -12.75048828 6.55883789 C-11.61853027 5.91164795 -10.48657227 5.26445801 -9.3203125 4.59765625 C-8.42880493 4.08712708 -8.42880493 4.08712708 -7.51928711 3.56628418 C-1.2786216 0 -1.2786216 0 0 0 Z " fill="#ED8E24" transform="translate(155,126)"/>
<path d="M0 0 C0 11.88 0 23.76 0 36 C-4.186875 38.43375 -8.37375 40.8675 -12.6875 43.375 C-13.99936279 44.13989746 -15.31122559 44.90479492 -16.6628418 45.69287109 C-18.22772339 46.59900146 -18.22772339 46.59900146 -19.82421875 47.5234375 C-20.88729248 48.14138184 -21.95036621 48.75932617 -23.0456543 49.39599609 C-25.65742018 50.81400302 -28.21676024 51.96950379 -31 53 C-31.22329729 48.12563009 -31.38613882 43.25426039 -31.49438477 38.37597656 C-31.53951672 36.71887346 -31.60084462 35.06212631 -31.67895508 33.40625 C-32.3075636 19.73298743 -32.3075636 19.73298743 -29.28613281 15.72851562 C-26.92508815 14.12560457 -24.64380882 13.0661531 -22 12 C-20.41978998 11.11643125 -18.8492051 10.21541324 -17.2890625 9.296875 C-15.73656788 8.44391313 -14.18187621 7.59493784 -12.625 6.75 C-11.05407778 5.89174006 -9.48374019 5.03240896 -7.9140625 4.171875 C-7.2329541 3.8015918 -6.5518457 3.43130859 -5.85009766 3.04980469 C-0.47534884 0 -0.47534884 0 0 0 Z " fill="#ED8E24" transform="translate(217,54)"/>
</svg>
