<?xml version="1.0" encoding="UTF-8"?>
<svg version="1.1" xmlns="http://www.w3.org/2000/svg" width="300" height="300">
<path d="M0 0 C7.42141028 4.20060161 14.8150529 8.40163385 22 13 C21.60167969 13.44730469 21.20335937 13.89460938 20.79296875 14.35546875 C14.3970405 21.65398541 11.89707127 26.75518711 11.83886719 36.57519531 C11.82925964 37.88715881 11.8196521 39.19912231 11.80975342 40.55084229 C11.80490423 41.97660141 11.8006257 43.40236257 11.796875 44.828125 C11.79404762 45.55148796 11.79122025 46.27485092 11.78830719 47.02013397 C11.77334745 50.84952659 11.7640982 54.67888185 11.75976562 58.50830078 C11.75429125 62.44326361 11.73027614 66.37787864 11.70179367 70.3127327 C11.68307176 73.35669926 11.6779566 76.40058371 11.67642975 79.44460297 C11.6734233 80.89413093 11.66546347 82.34365816 11.65224457 83.79312897 C11.45229096 97.22403412 11.45229096 97.22403412 17.375 108.875 C21.98576575 112.89981514 21.98576575 112.89981514 27.75 113.8125 C30.17221913 113.23003121 30.17221913 113.23003121 31 111 C31.10539015 108.86254651 31.14607445 106.72180557 31.15771484 104.58178711 C31.16279556 103.92295532 31.16787628 103.26412354 31.17311096 102.58532715 C31.18382198 101.15193453 31.19243929 99.71852512 31.19923019 98.28510857 C31.21102819 96.00985411 31.23048723 93.73478872 31.25234985 91.45960999 C31.31390685 84.98949573 31.36783799 78.51939714 31.40136719 72.04907227 C31.42242753 68.09139576 31.45782926 64.1340582 31.50212479 60.17657661 C31.51620528 58.67407817 31.5249891 57.17151969 31.52817917 55.66895866 C31.57567472 35.42432528 31.57567472 35.42432528 39 28 C41.475 26.515 41.475 26.515 44 25 C51.26 29.29 58.52 33.58 66 38 C64.35 39.65 62.7 41.3 61 43 C56.98323753 48.57883677 55.87613529 52.08091003 55.82299805 58.91479492 C55.81642685 59.61439331 55.80985565 60.3139917 55.80308533 61.03479004 C55.78337708 63.35001743 55.77169349 65.66517993 55.76171875 67.98046875 C55.75764322 68.77310938 55.7535677 69.56575001 55.74936867 70.38241005 C55.72851554 74.58021406 55.71421222 78.77798549 55.70483398 82.97583008 C55.69378869 87.29889707 55.6594088 91.62144663 55.61966228 95.94433117 C55.59343634 99.27906714 55.58513674 102.61368111 55.58155251 105.94851112 C55.57669966 107.54122717 55.56512295 109.13393824 55.54651451 110.72655296 C55.27911949 123.52816173 55.27911949 123.52816173 61.34135437 134.53630066 C64.92221527 137.9469079 68.16539937 138.70992396 73 139 C75.24073988 135.40552977 75.25649915 132.41570708 75.27124023 128.23120117 C75.27908035 127.22306618 75.27908035 127.22306618 75.28707886 126.19456482 C75.29729901 124.73884089 75.3030958 123.28308062 75.30496025 121.82732201 C75.30863224 119.51876774 75.32538239 117.21063989 75.34571838 114.9021759 C75.40104287 108.34005689 75.43176265 101.77787486 75.45629883 95.21557617 C75.47222662 91.19727355 75.50250184 87.17927279 75.54106331 83.16112709 C75.55266954 81.63463879 75.55864327 80.10809637 75.55874443 78.58156395 C75.55893778 76.43971884 75.577298 74.29869855 75.59936523 72.15698242 C75.60443588 70.94104904 75.60950653 69.72511566 75.61473083 68.47233582 C76.36347656 61.72407553 79.32379965 56.80848325 84 52 C86.38635012 50.37229974 88.67226568 48.94953536 91.1875 47.5625 C92.69275607 46.70581303 94.19796083 45.84903593 95.703125 44.9921875 C96.53521484 44.52393555 97.36730469 44.05568359 98.22460938 43.57324219 C101.34591934 41.80391412 104.44700143 40.00192671 107.546875 38.1953125 C109.84364832 36.85920019 112.14052313 35.52326235 114.4375 34.1875 C116.07078247 33.23629272 116.07078247 33.23629272 117.73706055 32.26586914 C137.9644599 20.57250737 157.42851021 13.39333182 181 19 C191.5959807 22.1647004 202.5846389 27.03557932 209.25 36.1875 C212.82978031 40.66440286 217.37151811 41.68174463 222.66943359 43.14404297 C235.27169283 46.64740729 247.07690641 52.92118083 255.5625 63.0625 C257.83865658 67.71377649 258.62744855 71.15456309 256.9375 76.125 C252.32827125 82.96450072 245.1056472 86.41653481 238.0640564 90.35839844 C236.21689264 91.39355345 234.37509532 92.43772396 232.53442383 93.484375 C226.84727184 96.71519026 221.14771395 99.92260442 215.42837524 103.09609985 C213.64490894 104.08831316 211.86528908 105.08707302 210.08691406 106.08837891 C207.87865156 107.33016973 205.66346455 108.55975472 203.44042969 109.77490234 C196.10000632 113.92164295 189.7632143 118.06322189 186.83618164 126.25854492 C185.48476303 132.29517956 185.71985639 138.50465586 185.72560501 144.6585331 C185.72658054 146.96850674 185.71350762 149.27802796 185.69662476 151.5879364 C185.65066594 158.15030451 185.62577042 164.71262264 185.61914062 171.27514648 C185.61409102 175.30462264 185.58967207 179.33362211 185.55381393 183.36293602 C185.54409899 184.88612172 185.54163798 186.40937366 185.54698563 187.93258095 C185.61189717 207.33052719 185.61189717 207.33052719 179.35464478 215.0226593 C176.16905234 218.20367761 172.83429 219.99029763 168.2265625 220.23046875 C155.11158574 218.87295361 142.33066513 209.5630692 134.09375 199.72265625 C124.96491249 187.37069848 119.9597322 173.25643257 119 158 C124.43539058 158.89082326 128.4224548 161.17862316 133.125 163.9375 C134.34123047 164.59202148 134.34123047 164.59202148 135.58203125 165.25976562 C140.1777119 167.96779893 142.41598869 169.95756674 143.9375 175.1640625 C144.11410156 175.99760254 144.29070312 176.83114258 144.47265625 177.68994141 C145.49095996 182.15067739 147.84897374 185.09129506 151.375 187.875 C154.43171781 189.18502192 156.70700999 189.22974349 160 189 C162.2368301 185.41227074 162.24559584 182.45558573 162.23950195 178.27880859 C162.24151611 177.61153748 162.24353027 176.94426636 162.24560547 176.2567749 C162.24914414 174.81086007 162.2483923 173.36492975 162.24382973 171.91901779 C162.23821722 169.62223382 162.24742859 167.32595135 162.2610321 165.02920532 C162.29806481 158.50007983 162.31675539 151.97112221 162.30541992 145.44189453 C162.29953077 141.44290076 162.31801631 137.44460936 162.35130882 133.44575882 C162.35920758 131.93011057 162.35806158 130.41438463 162.34728432 128.89875412 C162.28723522 120.06878376 162.60006881 112.37788364 168 105 C173.57666319 99.50639186 180.93386768 96.02089021 187.71661377 92.22174072 C190.83720342 90.47329012 193.94707702 88.70593498 197.05859375 86.94140625 C197.66449341 86.5984552 198.27039307 86.25550415 198.89465332 85.90216064 C203.67044314 83.19640244 208.41602246 80.44532116 213.125 77.625 C214.24132812 76.95726563 215.35765625 76.28953125 216.5078125 75.6015625 C219.04744981 74.09427317 219.04744981 74.09427317 221 72 C221.06948565 68.99706929 221.06948565 68.99706929 220 66 C215.45878297 62.44066773 210.94892721 61.61895893 205.23632812 61.72851562 C195.81451179 62.87229944 187.16679517 69.12379411 179.125 73.8125 C177.92352331 74.50645916 176.72170161 75.19982134 175.51953125 75.89257812 C174.9280127 76.23447174 174.33649414 76.57636536 173.72705078 76.92861938 C172.54475803 77.6110338 171.36117213 78.29121299 170.17626953 78.96908569 C167.29272983 80.62787509 164.4801822 82.34149569 161.69921875 84.16845703 C154.1714919 89.01660446 154.1714919 89.01660446 150.88134766 88.9699707 C149.046875 88.328125 149.046875 88.328125 145.75 86.25 C145.16718262 85.90251709 144.58436523 85.55503418 143.98388672 85.19702148 C142.29394906 84.17737724 140.64559655 83.08975946 139 82 C137.37505402 81.0207437 135.75006508 80.04155865 134.125 79.0625 C133.09375 78.381875 132.0625 77.70125 131 77 C132.44045737 72.67862788 135.66802663 71.75401906 139.5 69.75 C147.57232722 65.38434513 155.53493233 60.85366929 163.4375 56.1875 C165.08105469 55.23665527 165.08105469 55.23665527 166.7578125 54.26660156 C167.78519531 53.65655273 168.81257812 53.04650391 169.87109375 52.41796875 C170.78818115 51.87938232 171.70526855 51.3407959 172.65014648 50.78588867 C175.29450127 48.77617904 176.55781297 46.9745482 178 44 C178.09279415 41.7855201 178.09279415 41.7855201 177 40 C171.55397404 36.675319 164.16155265 35.75431296 158 37 C143.92094615 42.47062419 130.93394717 51.30692919 118 59 C117.06051514 59.55333008 116.12103027 60.10666016 115.15307617 60.67675781 C114.26338135 61.20366211 113.37368652 61.73056641 112.45703125 62.2734375 C111.6678833 62.73927246 110.87873535 63.20510742 110.06567383 63.68505859 C104.57461943 67.18048691 101.4303584 71.59520774 99.43074036 77.7530365 C98.84276976 80.82019389 98.86693901 83.76579138 98.8581543 86.88891602 C98.85467987 87.57408798 98.85120544 88.25925995 98.84762573 88.9651947 C98.84028746 90.4503912 98.83493182 91.93559852 98.83133507 93.42080879 C98.82413676 95.78078571 98.80844257 98.14055864 98.78999329 100.50047302 C98.73770161 107.20967707 98.68963068 113.91877065 98.67407227 120.62817383 C98.6639209 124.73735479 98.634414 128.84602277 98.59275246 132.95499992 C98.58053481 134.51166824 98.5753041 136.06840933 98.57755089 137.62512398 C98.59942533 157.7389758 98.59942533 157.7389758 92.48222351 164.73609924 C87.8296598 168.7566659 84.26434778 169.53160522 78.26953125 169.46875 C68.17034484 168.02083797 58.12609674 161.05095336 51 154 C49.66596353 152.18227779 48.35322167 150.34873063 47.0625 148.5 C44.43563202 144.91445622 44.43563202 144.91445622 40.41015625 143.5078125 C38.53274149 143.58680611 36.65676631 143.71156835 34.78515625 143.87890625 C25.205509 144.29541265 16.85967228 136.85257358 10 131 C-1.96669037 119.90286152 -10.44403474 102.9676232 -11.14717102 86.56730652 C-11.16193733 84.59495781 -11.16193733 84.59495781 -11.17700195 82.58276367 C-11.18357315 81.85361252 -11.19014435 81.12446136 -11.19691467 80.37321472 C-11.2165494 77.97146484 -11.22828738 75.56977716 -11.23828125 73.16796875 C-11.24235678 72.34406458 -11.2464323 71.52016041 -11.25063133 70.67128944 C-11.27144884 66.3113798 -11.28576993 61.95150124 -11.29516602 57.59155273 C-11.30622969 53.10264444 -11.34064127 48.61423191 -11.38033772 44.12549877 C-11.40654997 40.66037611 -11.41486185 37.19537092 -11.41844749 33.73015785 C-11.42330046 32.07603921 -11.43487749 30.42192537 -11.45348549 28.76790428 C-11.64039281 11.05538729 -11.64039281 11.05538729 -5.078125 3.90625 C-4.47484375 3.4421875 -3.8715625 2.978125 -3.25 2.5 C-2.63640625 2.0153125 -2.0228125 1.530625 -1.390625 1.03125 C-0.93171875 0.6909375 -0.4728125 0.350625 0 0 Z " fill="#EF6823" transform="translate(14,12)"/>
<path d="M0 0 C7.42141028 4.20060161 14.8150529 8.40163385 22 13 C21.60167969 13.44730469 21.20335937 13.89460938 20.79296875 14.35546875 C14.3970405 21.65398541 11.89707127 26.75518711 11.83886719 36.57519531 C11.82925964 37.88715881 11.8196521 39.19912231 11.80975342 40.55084229 C11.80490423 41.97660141 11.8006257 43.40236257 11.796875 44.828125 C11.79404762 45.55148796 11.79122025 46.27485092 11.78830719 47.02013397 C11.77334745 50.84952659 11.7640982 54.67888185 11.75976562 58.50830078 C11.75429125 62.44326361 11.73027614 66.37787864 11.70179367 70.3127327 C11.68307176 73.35669926 11.6779566 76.40058371 11.67642975 79.44460297 C11.6734233 80.89413093 11.66546347 82.34365816 11.65224457 83.79312897 C11.45229096 97.22403412 11.45229096 97.22403412 17.375 108.875 C21.98576575 112.89981514 21.98576575 112.89981514 27.75 113.8125 C30.17221913 113.23003121 30.17221913 113.23003121 31 111 C31.10539015 108.86254651 31.14607445 106.72180557 31.15771484 104.58178711 C31.16279556 103.92295532 31.16787628 103.26412354 31.17311096 102.58532715 C31.18382198 101.15193453 31.19243929 99.71852512 31.19923019 98.28510857 C31.21102819 96.00985411 31.23048723 93.73478872 31.25234985 91.45960999 C31.31390685 84.98949573 31.36783799 78.51939714 31.40136719 72.04907227 C31.42242753 68.09139576 31.45782926 64.1340582 31.50212479 60.17657661 C31.51620528 58.67407817 31.5249891 57.17151969 31.52817917 55.66895866 C31.57567472 35.42432528 31.57567472 35.42432528 39 28 C41.475 26.515 41.475 26.515 44 25 C51.26 29.29 58.52 33.58 66 38 C64.35 39.65 62.7 41.3 61 43 C56.98323753 48.57883677 55.87613529 52.08091003 55.82299805 58.91479492 C55.81642685 59.61439331 55.80985565 60.3139917 55.80308533 61.03479004 C55.78337708 63.35001743 55.77169349 65.66517993 55.76171875 67.98046875 C55.75764322 68.77310938 55.7535677 69.56575001 55.74936867 70.38241005 C55.72851554 74.58021406 55.71421222 78.77798549 55.70483398 82.97583008 C55.69378869 87.29889707 55.6594088 91.62144663 55.61966228 95.94433117 C55.59343634 99.27906714 55.58513674 102.61368111 55.58155251 105.94851112 C55.57669966 107.54122717 55.56512295 109.13393824 55.54651451 110.72655296 C55.27911949 123.52816173 55.27911949 123.52816173 61.34135437 134.53630066 C64.92221527 137.9469079 68.16539937 138.70992396 73 139 C75.24073988 135.40552977 75.25649915 132.41570708 75.27124023 128.23120117 C75.27908035 127.22306618 75.27908035 127.22306618 75.28707886 126.19456482 C75.29729901 124.73884089 75.3030958 123.28308062 75.30496025 121.82732201 C75.30863224 119.51876774 75.32538239 117.21063989 75.34571838 114.9021759 C75.40104287 108.34005689 75.43176265 101.77787486 75.45629883 95.21557617 C75.47222662 91.19727355 75.50250184 87.17927279 75.54106331 83.16112709 C75.55266954 81.63463879 75.55864327 80.10809637 75.55874443 78.58156395 C75.55893778 76.43971884 75.577298 74.29869855 75.59936523 72.15698242 C75.60443588 70.94104904 75.60950653 69.72511566 75.61473083 68.47233582 C76.35969142 61.75819013 79.33606409 56.77769044 84 52 C86.6021675 50.87050648 87.62449791 50.85304177 90.29003906 51.89624023 C91.10698242 52.36231689 91.92392578 52.82839355 92.765625 53.30859375 C93.65507813 53.80810547 94.54453125 54.30761719 95.4609375 54.82226562 C96.38132812 55.35529297 97.30171875 55.88832031 98.25 56.4375 C99.18585938 56.96666016 100.12171875 57.49582031 101.0859375 58.04101562 C103.39706962 59.34987106 105.70113158 60.66975947 108 62 C107.40503709 65.15330341 107.1070197 65.90142922 104.625 68.1875 C97.94736221 75.34211192 98.57991623 84.67822735 98.61987495 93.94945908 C98.62909072 96.28901906 98.6186436 98.62779532 98.60325623 100.96731567 C98.56344685 107.61247737 98.56194671 114.25757075 98.56420898 120.90283203 C98.56426044 124.98529957 98.54492352 129.06734192 98.51487541 133.14969254 C98.50417042 135.43577253 98.51610658 137.72099852 98.52870178 140.00704956 C98.5081354 148.53377689 98.39930259 157.96680552 92.48194885 164.73678589 C87.82890403 168.75646733 84.26431257 169.53160485 78.26953125 169.46875 C68.17034484 168.02083797 58.12609674 161.05095336 51 154 C49.66596353 152.18227779 48.35322167 150.34873063 47.0625 148.5 C44.43563202 144.91445622 44.43563202 144.91445622 40.41015625 143.5078125 C38.53274149 143.58680611 36.65676631 143.71156835 34.78515625 143.87890625 C25.205509 144.29541265 16.85967228 136.85257358 10 131 C-1.96669037 119.90286152 -10.44403474 102.9676232 -11.14717102 86.56730652 C-11.16193733 84.59495781 -11.16193733 84.59495781 -11.17700195 82.58276367 C-11.18357315 81.85361252 -11.19014435 81.12446136 -11.19691467 80.37321472 C-11.2165494 77.97146484 -11.22828738 75.56977716 -11.23828125 73.16796875 C-11.24235678 72.34406458 -11.2464323 71.52016041 -11.25063133 70.67128944 C-11.27144884 66.3113798 -11.28576993 61.95150124 -11.29516602 57.59155273 C-11.30622969 53.10264444 -11.34064127 48.61423191 -11.38033772 44.12549877 C-11.40654997 40.66037611 -11.41486185 37.19537092 -11.41844749 33.73015785 C-11.42330046 32.07603921 -11.43487749 30.42192537 -11.45348549 28.76790428 C-11.64039281 11.05538729 -11.64039281 11.05538729 -5.078125 3.90625 C-4.47484375 3.4421875 -3.8715625 2.978125 -3.25 2.5 C-2.63640625 2.0153125 -2.0228125 1.530625 -1.390625 1.03125 C-0.93171875 0.6909375 -0.4728125 0.350625 0 0 Z " fill="#808184" transform="translate(14,12)"/>
<path d="M0 0 C5.24585912 2.69774997 10.35496573 5.61807586 15.44897461 8.59082031 C20.35226191 11.44111857 25.1116985 14.1494837 30.3984375 16.22265625 C39.45570085 20.00490064 39.45570085 20.00490064 42 24 C43.99530294 32.50525904 43.04009329 41.41005304 42 50 C38.03276277 48.52724053 34.47545124 46.65838949 30.80859375 44.55078125 C30.22263931 44.21507614 29.63668488 43.87937103 29.03297424 43.53349304 C27.16605729 42.4628585 25.30177901 41.38771995 23.4375 40.3125 C22.21305612 39.60973762 20.988448 38.90726131 19.76367188 38.20507812 C18.54942861 37.50790054 17.33523566 36.81063533 16.12109375 36.11328125 C15.2254924 35.59957222 15.2254924 35.59957222 14.3117981 35.07548523 C11.38097743 33.38962883 8.4647147 31.68498581 5.57177734 29.93481445 C4.51297363 29.29890381 3.45416992 28.66299316 2.36328125 28.0078125 C0.96203003 27.15340576 0.96203003 27.15340576 -0.4675293 26.28173828 C-3.94672696 24.52084098 -6.19379153 24.39446683 -10 25 C-12.00793434 29.01586868 -11.61068958 33.88398006 -10.38671875 38.125 C-6.19613709 47.57688463 2.97272843 52.43195694 11.6875 57.125 C22.64352131 63.0426277 22.64352131 63.0426277 27 68 C27.52464844 68.515625 28.04929687 69.03125 28.58984375 69.5625 C39.12272841 80.79757698 42.20233463 96.37200058 42.375 111.25 C42.38901855 112.07765869 42.40303711 112.90531738 42.41748047 113.75805664 C42.36623334 120.33805595 41.48782857 126.87890598 37.28125 132.15625 C36.6934375 132.5996875 36.105625 133.043125 35.5 133.5 C34.9121875 133.9640625 34.324375 134.428125 33.71875 134.90625 C29.99479044 137.27604245 26.2668614 137.53478504 22 137 C11.68970814 134.37364632 3.07912103 129.34979045 -5.95068359 123.88818359 C-11.17954957 120.74489242 -16.26227771 117.77628709 -21.91015625 115.44921875 C-32.10759945 111.04506271 -32.10759945 111.04506271 -35 107 C-37.20042578 98.8533646 -36.1733685 90.25158331 -35 82 C-30.85259811 82.59248598 -27.91654327 83.98236357 -24.31640625 86.09765625 C-23.23004883 86.73106934 -22.14369141 87.36448242 -21.02441406 88.01708984 C-20.45823364 88.35166199 -19.89205322 88.68623413 -19.30871582 89.03094482 C-17.55190523 90.06875873 -15.78996896 91.09731028 -14.02636719 92.12353516 C-9.13372975 94.97361028 -4.2548088 97.84649044 0.61328125 100.73828125 C1.56279663 101.2960022 1.56279663 101.2960022 2.53149414 101.86499023 C4.1142653 102.79522525 5.69028077 103.73692968 7.265625 104.6796875 C10.23635233 106.11412441 12.72063629 106.71282408 16 107 C16.66 106.67 17.32 106.34 18 106 C19.47499119 99.64619179 18.88898695 94.86825475 16 89 C11.65760427 83.50814658 5.2909175 79.9505292 -0.67578125 76.4140625 C-16.54425896 66.85257522 -28.1721655 51.91557761 -33.3125 34 C-35.39089422 23.80086959 -36.9026921 10.70921144 -31.125 1.4375 C-22.01482242 -9.01240958 -11.06818324 -5.18458323 0 0 Z " fill="#BBBDBF" transform="translate(255,151)"/>
<path d="M0 0 C7.56139223 3.66376737 14.86998546 7.5516281 22 12 C20.71940585 14.77462067 19.60976612 16.42925727 17.5 18.75 C11.68221008 25.70662559 12.71760082 35.09008001 12.72560501 43.6585331 C12.72658054 45.96850674 12.71350762 48.27802796 12.69662476 50.5879364 C12.65066594 57.15030451 12.62577042 63.71262264 12.61914062 70.27514648 C12.61409102 74.30462264 12.58967207 78.33362211 12.55381393 82.36293602 C12.54409899 83.88612172 12.54163798 85.40937366 12.54698563 86.93258095 C12.61189717 106.33052719 12.61189717 106.33052719 6.35464478 114.0226593 C3.16905234 117.20367761 -0.16571 118.99029763 -4.7734375 119.23046875 C-17.88841426 117.87295361 -30.66933487 108.5630692 -38.90625 98.72265625 C-48.03508751 86.37069848 -53.0402678 72.25643257 -54 57 C-48.56460942 57.89082326 -44.5775452 60.17862316 -39.875 62.9375 C-39.06417969 63.37384766 -38.25335938 63.81019531 -37.41796875 64.25976562 C-32.8222881 66.96779893 -30.58401131 68.95756674 -29.0625 74.1640625 C-28.88589844 74.99760254 -28.70929688 75.83114258 -28.52734375 76.68994141 C-27.50904004 81.15067739 -25.15102626 84.09129506 -21.625 86.875 C-18.56828219 88.18502192 -16.29299001 88.22974349 -13 88 C-10.7631699 84.41227074 -10.75440416 81.45558573 -10.76049805 77.27880859 C-10.75848389 76.61153748 -10.75646973 75.94426636 -10.75439453 75.2567749 C-10.75085586 73.81086007 -10.7516077 72.36492975 -10.75617027 70.91901779 C-10.76178278 68.62223382 -10.75257141 66.32595135 -10.7389679 64.02920532 C-10.70193519 57.50007983 -10.68324461 50.97112221 -10.69458008 44.44189453 C-10.70046923 40.44290076 -10.68198369 36.44460936 -10.64869118 32.44575882 C-10.64079242 30.93011057 -10.64193842 29.41438463 -10.65271568 27.89875412 C-10.71300775 19.03305601 -10.34071359 11.44405132 -5 4 C-2.1875 1.375 -2.1875 1.375 0 0 Z " fill="#BBBDBF" transform="translate(187,113)"/>
<path d="M0 0 C3.51163881 0.56357744 6.12527042 1.42405965 9.171875 3.25 C9.91824219 3.6934375 10.66460937 4.136875 11.43359375 4.59375 C12.19800781 5.0578125 12.96242187 5.521875 13.75 6 C14.52988281 6.4640625 15.30976563 6.928125 16.11328125 7.40625 C21.82088745 10.82088745 21.82088745 10.82088745 23 12 C23.08737645 13.85369611 23.10698153 15.71067541 23.09765625 17.56640625 C23.09443359 18.69111328 23.09121094 19.81582031 23.08789062 20.97460938 C23.07951172 22.15861328 23.07113281 23.34261719 23.0625 24.5625 C23.05798828 25.75037109 23.05347656 26.93824219 23.04882812 28.16210938 C23.03699675 31.10812226 23.02051287 34.05403681 23 37 C20.99088753 36.36132048 18.99355609 35.68569567 17 35 C16.31067383 34.76909668 15.62134766 34.53819336 14.91113281 34.30029297 C9.28069746 32.25680971 3.63724808 29.9366688 0 25 C-2.15777408 16.91409674 -1.03620875 8.20527287 0 0 Z " fill="#BBBDBF" transform="translate(133,120)"/>
</svg>
